<?xml version="1.0" encoding="utf-8"?>
<!-- Generator: Adobe Illustrator 24.0.0, SVG Export Plug-In . SVG Version: 6.00 Build 0)  -->
<svg version="1.1" id="Grid" xmlns="http://www.w3.org/2000/svg" xmlns:xlink="http://www.w3.org/1999/xlink" x="0px" y="0px"
	 viewBox="0 0 670.09 269.36" style="enable-background:new 0 0 670.09 269.36;" xml:space="preserve">
<style type="text/css">
	.st0{fill:#F8A88B;}
	.st1{fill:#FFFFFF;}
</style>
<g>
	<g>
		<path class="st0" d="M49.12,57.63h7.58v21.41h10.14v6.97H49.12V57.63z"/>
		<path class="st0" d="M74.21,57.63h18.41v7.26H81.8v3.53h10.3v6.65H81.8v3.69h10.99v7.26H74.21V57.63z"/>
		<path class="st0" d="M126.11,77.86h-3.12v8.15h-7.58V57.63h10.7c5.68,0,10.18,4.62,10.18,10.09
			C136.29,73.36,131.78,77.86,126.11,77.86z M125.5,64.68h-2.51v6.08h2.51c1.82,0,3.04-1.34,3.04-3.04
			C128.54,66.06,127.28,64.68,125.5,64.68z"/>
		<path class="st0" d="M143.54,57.63h7.58v21.41h10.14v6.97h-17.72V57.63z"/>
		<path class="st0" d="M175.89,82.97l-1.34,3.04h-8.03l13.38-29.27l13.42,29.27h-8.07l-1.3-3.04H175.89z M179.91,71.61l-2.19,5.59
			h4.46L179.91,71.61z"/>
		<path class="st0" d="M199.69,57.63h7.58v28.38h-7.58V57.63z"/>
		<path class="st0" d="M214.49,78.43c4.14,0,5.15-1.3,6.28-4.54l2.51-7.09c1.87-5.23,5.35-9.16,13.62-9.16v7.5
			c-3.85,0-5.11,2.07-6.04,4.66l-2.59,7.13c-1.78,4.95-5.43,9.08-13.78,9.08V78.43z"/>
		<path class="st0" d="M244.13,57.63h7.58v28.38h-7.58V57.63z"/>
		<path class="st0" d="M278.26,75.71c2.8,1.54,3.89,4.18,3.89,7.22v3.08h-7.58v-2.43c0-2.72-1.95-4.74-4.82-4.74h-1.99v7.18h-7.54
			V57.63h11.31c5.8,0,10.62,4.7,10.62,10.46C282.16,71.65,280.62,74.21,278.26,75.71z M270.48,64.68h-2.72v7.34h2.72
			c2.39,0,3.93-1.5,3.93-3.65C274.41,66.26,272.87,64.68,270.48,64.68z"/>
		<path class="st0" d="M304.33,57.63h10.62c7.78,0,13.99,6.37,13.99,14.19c0,7.82-6,14.19-13.99,14.19h-10.62V57.63z M314.55,78.95
			c3.85,0,6.65-3.16,6.65-7.13c0-3.97-2.8-7.14-6.65-7.14h-2.64v14.27H314.55z"/>
		<path class="st0" d="M337.29,57.63h7.46l-6.32,10.46h-3.97L337.29,57.63z"/>
		<path class="st0" d="M359.15,57.63v18.69c0,1.58,1.34,2.88,2.92,2.88c1.7,0,2.96-1.3,2.96-2.88V57.63h7.54v18.73
			c0,5.76-4.66,10.22-10.54,10.22c-5.84,0-10.38-4.46-10.38-10.22V57.63H359.15z"/>
		<path class="st0" d="M381.08,57.63h6.24l9.73,9.93v-9.93h7.34v29.39l-15.97-16.99v15.97h-7.34V57.63z"/>
		<path class="st0" d="M412.91,57.63h18.41v7.26h-10.82v3.53h10.3v6.65h-10.3v3.69h10.99v7.26h-18.57V57.63z"/>
		<path class="st0" d="M473.56,85.11c-2.15,1.05-4.14,1.42-6.33,1.42c-8.15,0-14.51-6.61-14.51-14.68c0-8.11,6.37-14.72,14.51-14.72
			c2.19,0,4.14,0.37,6.33,1.42v8.96c-1.22-1.7-3.37-2.96-5.88-2.96c-3.89,0-7.09,3.33-7.09,7.3c0,4.01,3.08,7.3,6.85,7.3
			c2.47,0,4.91-1.46,6.12-3.2V85.11z"/>
		<path class="st0" d="M489.01,57.63v18.69c0,1.58,1.34,2.88,2.92,2.88c1.7,0,2.96-1.3,2.96-2.88V57.63h7.54v18.73
			c0,5.76-4.66,10.22-10.54,10.22c-5.84,0-10.38-4.46-10.38-10.22V57.63H489.01z"/>
		<path class="st0" d="M510.94,57.63h7.58v28.38h-7.58V57.63z"/>
		<path class="st0" d="M538.47,68.05c4.99,0,8.96,4.09,8.96,8.88c0,4.87-4.01,9.08-8.96,9.08h-11.51v-7.38h10.91
			c0.93,0,1.78-0.69,1.78-1.66c0-0.89-0.85-1.62-1.78-1.62h-3.49c-4.87,0-8.8-4.13-8.8-8.96c0-4.74,3.93-8.76,8.8-8.76h9.85v7.26
			h-9.41c-0.93,0-1.58,0.73-1.58,1.58c0,0.93,0.65,1.58,1.58,1.58H538.47z"/>
		<path class="st0" d="M554.48,57.63h7.58v28.38h-7.58V57.63z"/>
		<path class="st0" d="M570.58,57.63h6.24l9.73,9.93v-9.93h7.34v29.39l-15.97-16.99v15.97h-7.34V57.63z"/>
		<path class="st0" d="M602.4,57.63h18.41v7.26h-10.82v3.53h10.3v6.65h-10.3v3.69h10.99v7.26H602.4V57.63z"/>
	</g>
	<g>
		<path class="st1" d="M233.91,117.21h7.2l3.72,32.11h-5.64l-0.46-6.24h-2.43l-0.46,6.24h-5.64L233.91,117.21z M236.75,138.18h1.51
			l-0.18-4.36c-0.18-3.85-0.32-7.02-0.5-10.27h-0.14c-0.14,3.3-0.37,6.65-0.5,10.27L236.75,138.18z"/>
		<path class="st1" d="M254.09,117.21v26.42c0,0.73,0.32,1.05,0.96,1.05c0.64,0,0.96-0.32,0.96-1.05v-26.42h5.6v26.47
			c0,3.53-1.47,6.1-6.56,6.1s-6.56-2.57-6.56-6.1v-26.47H254.09z"/>
		<path class="st1" d="M271.39,143.59c0,0.69,0.27,1.1,0.96,1.1c0.69,0,0.96-0.41,0.96-1.1v-2.89c0-8.53-7.34-5.69-7.34-15.46v-2.38
			c0-3.49,1.51-6.1,6.38-6.1c4.82,0,6.38,2.61,6.38,6.1v3.99h-5.41v-3.94c0-0.64-0.27-1.05-0.96-1.05c-0.69,0-0.96,0.41-0.96,1.05
			v2.29c0,7.25,7.34,4.27,7.34,15.41v3.07c0,3.49-1.56,6.1-6.38,6.1c-4.86,0-6.38-2.62-6.38-6.1v-4.45h5.41V143.59z"/>
		<path class="st1" d="M288.04,143.59c0,0.69,0.27,1.1,0.96,1.1s0.96-0.41,0.96-1.1v-2.89c0-8.53-7.34-5.69-7.34-15.46v-2.38
			c0-3.49,1.51-6.1,6.38-6.1c4.82,0,6.38,2.61,6.38,6.1v3.99h-5.41v-3.94c0-0.64-0.28-1.05-0.96-1.05s-0.96,0.41-0.96,1.05v2.29
			c0,7.25,7.34,4.27,7.34,15.41v3.07c0,3.49-1.56,6.1-6.38,6.1c-4.86,0-6.38-2.62-6.38-6.1v-4.45h5.41V143.59z"/>
		<path class="st1" d="M299.97,117.21h5.64v32.11h-5.64V117.21z"/>
		<path class="st1" d="M326.02,130.47h6.56v13.12c0,3.53-1.47,6.19-6.56,6.19s-6.56-2.66-6.56-6.19v-20.64
			c0-3.53,1.47-6.19,6.56-6.19s6.56,2.66,6.56,6.19v4.68h-5.6v-4.77c0-0.6-0.32-1.01-0.96-1.01c-0.64,0-0.96,0.41-0.96,1.01v20.69
			c0,0.73,0.32,1.15,0.96,1.15c0.64,0,0.96-0.41,0.96-1.15v-7.84h-0.96V130.47z"/>
		<path class="st1" d="M343.04,144h4.95v5.32h-10.6v-32.11h10.6v5.32h-4.95v7.94h4.31v5.23h-4.31V144z M344.14,115.38h-3.12
			l0.92-6.19h4.91L344.14,115.38z"/>
		<path class="st1" d="M357.49,131.29c0.09,1.56,0.18,6.47,0.18,8.39v9.63h-5.09v-32.11h5.18l3.85,18.07
			c-0.09-1.65-0.23-6.47-0.23-8.39v-9.68h5.09v32.11h-5.14L357.49,131.29z"/>
		<path class="st1" d="M376.94,144h4.95v5.32h-10.6v-32.11h10.6v5.32h-4.95v7.94h4.31v5.23h-4.31V144z M378.04,115.38h-3.12
			l0.92-6.19h4.91L378.04,115.38z"/>
		<path class="st1" d="M391.99,136.39h-0.09v12.93h-5.41v-32.11h7.61c4.4,0,5.37,2.16,5.37,5.73v8.07c0,2.75-0.64,4.17-2.16,4.91
			l3.76,13.39h-5.96L391.99,136.39z M391.9,131.52h0.96c0.69,0,0.96-0.32,0.96-1.01v-6.88c0-0.78-0.37-1.1-1.06-1.1h-0.87V131.52z"
			/>
		<path class="st1" d="M409.93,144h4.95v5.32h-10.6v-32.11h10.6v5.32h-4.95v7.94h4.31v5.23h-4.31V144z"/>
		<path class="st1" d="M425.07,117.21v26.42c0,0.73,0.32,1.05,0.96,1.05c0.64,0,0.96-0.32,0.96-1.05v-26.42h5.6v26.47
			c0,3.53-1.47,6.1-6.56,6.1c-5.09,0-6.56-2.57-6.56-6.1v-26.47H425.07z"/>
		<path class="st1" d="M442.36,143.59c0,0.69,0.28,1.1,0.96,1.1c0.69,0,0.96-0.41,0.96-1.1v-2.89c0-8.53-7.34-5.69-7.34-15.46v-2.38
			c0-3.49,1.51-6.1,6.38-6.1c4.82,0,6.38,2.61,6.38,6.1v3.99h-5.41v-3.94c0-0.64-0.28-1.05-0.96-1.05c-0.69,0-0.96,0.41-0.96,1.05
			v2.29c0,7.25,7.34,4.27,7.34,15.41v3.07c0,3.49-1.56,6.1-6.38,6.1c-4.86,0-6.38-2.62-6.38-6.1v-4.45h5.41V143.59z"/>
		<path class="st1" d="M459.7,144h4.95v5.32h-10.6v-32.11h10.6v5.32h-4.95v7.94h4.31v5.23h-4.31V144z"/>
	</g>
	<g>
		<path class="st0" d="M166.35,193.82c-0.8-0.23-1.54,0.29-1.71,1.08c-0.17,0.63-0.4,1.31-0.63,2c-0.74,1.99-1.88,3.76-3.13,4.9
			c-0.97,0.85-1.88,1.2-2.51,0.97c-1.03-0.34-1.65-2.68-0.97-5.93l1.94-8.21l0.34-1.6c0.17-0.8-0.34-1.54-1.08-1.71
			c-0.8-0.17-1.6,0.34-1.77,1.08l-0.34,1.6l-1.54,6.72c-0.06,0.06-0.06,0.11-0.06,0.17c-0.17,0.63-0.4,1.31-0.63,2
			c-0.74,1.99-1.88,3.76-3.13,4.9c-0.97,0.85-1.88,1.2-2.51,0.97c-1.03-0.34-1.65-2.68-0.97-5.93l0.01-0.05
			c0.1-0.36,0.19-0.73,0.27-1.09c0.02-0.08,0.03-0.16,0.04-0.25l1.61-6.82l0.34-1.6c0.17-0.8-0.34-1.54-1.08-1.71
			c-0.8-0.17-1.6,0.34-1.77,1.08l-0.34,1.6l-1.48,6.44c-0.04,0.19-0.07,0.36-0.1,0.53c0,0.01-0.01,0.02-0.01,0.04
			c-0.17,0.68-0.34,1.37-0.63,2.05c-1.48,3.93-4.27,6.38-5.64,5.87c-0.91-0.34-1.48-2.22-1.14-4.96l2.45-10.71
			c0.17-0.8-0.34-1.6-1.14-1.77c-0.74-0.17-1.54,0.34-1.71,1.14l-0.11,0.51c-0.68-0.97-1.54-1.65-2.56-1.99
			c-3.53-1.03-7.64,2.74-9.4,8.55c-1.77,5.87-0.4,11.28,3.08,12.37c0.4,0.11,0.8,0.17,1.2,0.17c1.25,0,2.51-0.51,3.7-1.48
			l-1.31,5.59c-0.17,0.8,0.34,1.6,1.08,1.77h0.34c0.68,0,1.25-0.4,1.42-1.08l1.48-6.5c0.46,0.51,0.97,0.91,1.6,1.14
			c0.46,0.17,0.97,0.23,1.42,0.23c1.9,0,3.94-1.3,5.64-3.53c0.48,1.56,1.42,2.64,2.68,3.13c0.46,0.17,0.91,0.29,1.42,0.29
			c1.88,0,3.93-1.31,5.58-3.53c0.51,1.6,1.42,2.74,2.74,3.25c0.46,0.17,0.91,0.29,1.42,0.29c1.31,0,2.68-0.63,4.05-1.82
			c1.6-1.42,2.96-3.59,3.88-6.04c0.34-0.8,0.57-1.6,0.74-2.39S167.14,193.99,166.35,193.82z M134.94,196.67
			c-1.31,4.39-4.1,7.12-5.76,6.61c-1.65-0.51-2.51-4.33-1.14-8.72c1.2-4.05,3.7-6.67,5.36-6.67c0.17,0,0.28,0,0.4,0.06
			c0.74,0.23,1.37,1.14,1.65,2.56C135.8,192.28,135.63,194.5,134.94,196.67z"/>
		<path class="st0" d="M173.59,174.38c0-0.29-0.06-0.46-0.17-0.68c-1.14-3.13-6.1-2.39-5.81,1.14c0.06,0.91,0.51,1.65,1.14,2.17
			c0.57,0.34,0.74,0.74,0.46,1.03c-0.23,0.11-0.46,0.34-0.68,0.51c-0.57,0.46-0.74,1.31-0.23,1.88c0.23,0.4,0.74,0.63,1.2,0.57
			c0.23,0,0.46-0.11,0.68-0.23C171.93,179.51,173.93,176.72,173.59,174.38z"/>
		<path class="st0" d="M214.16,193.87c-0.74-0.17-1.54,0.34-1.71,1.14c-0.17,0.63-0.4,1.31-0.63,1.99c-0.74,2-1.88,3.76-3.13,4.9
			c-0.97,0.86-1.88,1.2-2.51,0.97c-1.03-0.34-1.65-2.68-0.97-5.93l0.29-1.2c0.4-1.37,1.99-7.18,0.06-9.86
			c-0.68-0.91-1.65-1.37-2.85-1.37c-1.42,0-2.85,0.68-4.22,2.05c-0.11-0.51-0.51-0.97-1.08-1.08c-0.8-0.17-1.54,0.29-1.77,1.08
			l-1.91,7.93c-0.06,0.12-0.12,0.25-0.15,0.39c-0.17,0.63-0.4,1.31-0.63,2c-0.74,1.99-1.88,3.76-3.13,4.9
			c-0.97,0.85-1.88,1.2-2.51,0.97c-1.03-0.34-1.65-2.68-0.97-5.93l1.94-8.21l0.34-1.6c0.17-0.8-0.34-1.54-1.08-1.71
			c-0.8-0.17-1.6,0.34-1.77,1.08l-0.34,1.6l-1.54,6.72c-0.06,0.06-0.06,0.11-0.06,0.17c-0.17,0.63-0.4,1.31-0.63,2
			c-0.74,1.99-1.88,3.76-3.13,4.9c-0.97,0.85-1.88,1.2-2.51,0.97c-1.03-0.34-1.65-2.68-0.97-5.93l1.94-8.21l0.34-1.6
			c0.17-0.8-0.34-1.54-1.08-1.71c-0.8-0.17-1.6,0.34-1.77,1.08l-0.34,1.6l-1.48,6.44c-0.85,4.45-1.03,5.53-0.4,7.75
			c0.46,1.65,1.42,2.79,2.74,3.31c0.46,0.17,0.91,0.29,1.42,0.29c1.88,0,3.93-1.31,5.58-3.53c0.51,1.6,1.42,2.74,2.74,3.25
			c0.46,0.17,0.91,0.29,1.42,0.29c1.2,0,2.44-0.53,3.69-1.53c-0.1,0.75,0.34,1.43,1.1,1.65h0.34c0.63,0,1.25-0.46,1.37-1.08
			l2.17-8.95c0.06-0.06,0.85-2.34,2.17-4.5c1.48-2.51,3.02-3.99,4.16-3.99c0.34,0,0.4,0.11,0.51,0.23c0.51,0.68,0.68,3.48-0.51,7.35
			c-0.06,0.11-0.23,1.03-0.29,1.37c-1.03,4.56,0.11,8.26,2.74,9.29c0.46,0.17,0.91,0.29,1.42,0.29c1.31,0,2.74-0.63,4.05-1.88
			c1.6-1.42,2.96-3.53,3.93-5.98c0.29-0.8,0.51-1.6,0.68-2.39C215.47,194.84,214.96,194.1,214.16,193.87z"/>
		<path class="st0" d="M345.93,184.53c0.91,0,1.71-0.74,1.71-1.65c0-0.97-0.8-1.71-1.71-1.71c-0.91,0-1.71,0.74-1.71,1.71
			C344.22,183.79,345.02,184.53,345.93,184.53z"/>
		<path class="st0" d="M417.91,193.76c-0.74-0.29-1.54,0.11-1.77,0.85l-1.08,3.02c-0.63,1.88-1.65,3.53-2.79,4.56
			c-0.91,0.8-1.82,1.14-2.45,0.91c-0.8-0.29-1.37-1.71-1.31-3.59c0-0.57,0.29-1.65,0.57-2.74c0.68-2.79,1.6-6.21,0.11-8.43
			c-0.8-1.2-2-1.6-2.91-1.71c-1.14-0.17-2.05-0.46-2.74-0.85c0.29-1.25,0.4-2.17,0.4-2.91c0-0.4,0-1.6-0.91-2.11
			c-0.34-0.17-0.68-0.23-1.03-0.17c-1.03,0-1.54,0.97-1.71,1.31c-0.23,0.4-0.46,1.08-0.57,1.94c-0.06,0.68,0,1.82,0.74,2.91
			l-1.47,7.93c-0.03,0.07-0.05,0.14-0.07,0.22c-0.17,0.63-0.4,1.31-0.63,2c-0.74,1.99-1.88,3.76-3.13,4.9
			c-0.97,0.85-1.88,1.2-2.51,0.97c-1.03-0.34-1.65-2.68-0.97-5.93l1.94-8.21l0.34-1.6c0.17-0.8-0.34-1.54-1.08-1.71
			c-0.8-0.17-1.6,0.34-1.77,1.08l-0.34,1.6l-1.54,6.72c-0.06,0.06-0.06,0.11-0.06,0.17c-0.17,0.63-0.4,1.31-0.63,2
			c-0.74,1.99-1.88,3.76-3.13,4.9c-0.97,0.85-1.88,1.2-2.51,0.97c-0.98-0.33-1.59-2.5-1.04-5.53c0.16-0.49,0.3-0.98,0.41-1.48
			c0.03-0.16,0.04-0.31,0.02-0.47l1.57-6.66l0.34-1.6c0.17-0.8-0.34-1.54-1.08-1.71c-0.8-0.17-1.6,0.34-1.77,1.08l-0.34,1.6
			l-1.48,6.44c-0.05,0.27-0.1,0.52-0.15,0.76c-0.12,0.64-0.33,1.28-0.54,1.92c-1.03,2.62-3.76,5.13-6.72,5.98
			c-1.48,0.46-3.7,0.68-5.7-0.8c-1.2-0.86-1.82-2.11-2.11-3.25h0.11c3.02,0,6.44-1.82,8.95-4.96c1.25-1.6,3.19-5.3,1.25-8.04
			c-0.91-1.25-3.02-2.96-7.12-0.57c-2.94,1.76-5.28,5.46-5.99,9.33c-0.17,0.67-0.39,1.34-0.62,2.01c-1.65,4.27-4.45,6.33-5.64,5.87
			c-1.03-0.4-1.65-2.68-0.97-5.93l1.88-8.21l0.17-0.74h2.51c0.8,0,1.42-0.63,1.42-1.42c0-0.74-0.63-1.42-1.42-1.42h-1.82l1.08-4.73
			c0.17-0.8-0.34-1.6-1.08-1.77c-0.8-0.17-1.6,0.34-1.77,1.08l-1.2,5.36h-3.13c-0.8,0-1.48,0.63-1.48,1.42s0.68,1.48,1.48,1.48h0.51
			h0.29h1.65l-0.06,0.06l-1.6,7.25c-0.02,0.05-0.04,0.1-0.05,0.16c-0.17,0.68-0.4,1.37-0.63,1.99c-0.74,2-1.88,3.82-3.13,4.9
			c-0.97,0.86-1.88,1.25-2.51,1.03c-1.03-0.4-1.65-2.74-0.97-5.93l1.94-8.26l0.34-1.54c0.17-0.8-0.34-1.6-1.08-1.77
			c-0.8-0.17-1.6,0.34-1.77,1.14l-0.34,1.54l-1.46,6.36c-0.06,0.11-0.11,0.23-0.14,0.36c-0.17,0.68-0.4,1.37-0.63,1.99
			c-0.85,2.28-2.34,3.88-4.45,4.84c0.34-0.74,0.63-1.54,0.8-2.39c0.63-3.02-1.03-5.3-2.39-7.12c-1.77-2.39-2.51-3.59-1.03-5.59
			c0-0.06,0-0.06,0.06-0.11c0-0.06,0-0.06,0.06-0.11c0-0.06,0.06-0.11,0.06-0.17c0,0,0-0.06,0.06-0.11v-0.11c0-0.06,0-0.11,0-0.17
			v-0.11c0-0.06,0-0.11,0-0.17v-0.11c0-0.06-0.06-0.11-0.06-0.11c0-0.06,0-0.11-0.06-0.17c0,0,0-0.06-0.06-0.11
			c0-0.06-0.06-0.06-0.06-0.11l-0.11-0.11c0-0.06-0.06-0.06-0.11-0.11c0,0,0-0.06-0.06-0.06c0,0,0,0,0-0.06h-0.06
			c0,0-0.06-0.06-0.11-0.06c0,0-0.06-0.06-0.11-0.06c-0.06-0.06-0.06-0.06-0.11-0.06c-0.06,0-0.11-0.06-0.11-0.06h-0.17
			c-0.06-0.06-0.06-0.06-0.11-0.06c-0.06,0-0.11,0-0.17,0h-0.11c-0.06,0-0.11,0.06-0.17,0.06h-0.11c-0.06,0.06-0.06,0.06-0.11,0.06
			c-0.06,0.06-0.11,0.06-0.11,0.06l-0.17,0.11c0,0-0.06,0.06-0.11,0.06c0,0.06-0.06,0.06-0.06,0.11c-0.06,0.06-0.06,0.06-0.11,0.06
			v0.06c0,0.06-0.06,0.06-0.06,0.06c-1.48,1.88-2.51,5.36-3.53,9.12c-0.23,0.91-0.46,1.77-0.63,2.11c-0.28,0.74,0.06,1.6,0.85,1.88
			c0.17,0.06,0.34,0.06,0.51,0.06c0.57,0,1.14-0.34,1.37-0.91c0.17-0.46,0.4-1.25,0.68-2.39c0.23-0.68,0.46-1.54,0.68-2.45
			c0.4,0.57,0.74,1.08,1.14,1.6c1.2,1.65,2.28,3.08,1.88,4.79c-0.57,2.74-1.88,3.88-4.56,4.05c-0.06,0-0.06,0-0.11,0h-0.23
			c-1.03,0-2.05-0.4-2.74-1.14c-0.91-0.85-1.37-2.11-1.31-3.53v-0.06c0,0,0.06-0.68,0.4-1.99c0.05-0.17,0.06-0.35,0.06-0.51
			c0.23-0.74-0.17-1.54-0.97-1.77c-0.74-0.23-1.54,0.17-1.77,0.97l-0.4,1.08c-0.17,0.46-0.46,1.14-0.74,1.65
			c-0.8,1.42-1.94,2.11-3.25,1.94c-0.17,0-0.34-0.06-0.51-0.11c0.29-0.46,0.51-0.91,0.74-1.42c2.51-5.76,1.48-11.57-2.28-13.22
			c-1.94-0.85-4.16-0.46-6.38,1.14c-1.94,1.37-3.65,3.59-4.79,6.21c-0.39,0.86-0.7,1.74-0.93,2.62c-0.01,0.04-0.03,0.07-0.04,0.11
			c-0.17,0.68-0.34,1.37-0.63,2.05c-1.08,2.91-3.19,4.67-6.44,5.47c1.2-1.48,2.11-3.36,2.74-5.47c0.8-2.62,1.03-5.3,0.57-7.52
			c-0.51-2.56-1.82-4.27-3.65-4.79c-1.71-0.51-3.53,0-5.24,1.54c0.17-0.8-0.29-1.54-1.08-1.71s-1.54,0.29-1.71,1.08l-2.31,10.32
			c-0.12,0.37-0.24,0.75-0.37,1.13c-1.65,4.27-4.45,6.38-5.64,5.87c-1.03-0.34-1.65-2.68-0.97-5.93l0.28-1.2
			c0.4-1.31,1.99-7.18,0.06-9.86c-0.68-0.91-1.65-1.37-2.85-1.37c-1.82,0-3.65,1.14-5.36,3.42c-0.17-0.8-0.4-1.6-0.85-2.22
			c-0.68-0.91-1.65-1.37-2.85-1.37c-1.42,0-2.85,0.68-4.22,2.11c-0.11-0.51-0.51-0.97-1.08-1.14c-0.8-0.17-1.54,0.34-1.77,1.08
			l-2.02,8.42c-0.01,0.03-0.02,0.05-0.03,0.08l-0.4,1.08c-0.17,0.46-0.46,1.14-0.74,1.65c-0.8,1.42-1.94,2.11-3.25,1.94
			c-0.17,0-0.34-0.06-0.51-0.11c0.29-0.46,0.51-0.91,0.74-1.42c2.51-5.76,1.48-11.57-2.28-13.22c-1.94-0.85-4.16-0.46-6.38,1.14
			c-1.94,1.37-3.65,3.59-4.79,6.21c-0.47,1.02-0.82,2.07-1.05,3.1c-0.15,0.56-0.3,1.11-0.54,1.68c-0.85,2.34-2.28,3.99-4.5,5.19
			c-1.42,0.8-3.19,0.97-4.56,0.4c-0.97-0.34-1.54-1.03-1.88-1.94c-0.8-2.68,0.23-5.76,0.97-7.35c1.08-2.51,3.65-6.16,6.21-5.98
			c0.28,0,0.8,0.06,0.97,0.34c0.23,0.28,0.17,1.14-0.29,2.34c-0.28,0.74,0.06,1.6,0.8,1.88c0.8,0.29,1.6-0.06,1.88-0.8
			c0.85-2.05,0.85-3.82,0.06-5.02c-0.46-0.68-1.37-1.54-3.25-1.65c-1.99-0.11-3.99,0.85-5.81,2.79c-1.82,1.88-2.85,4.1-3.25,4.96
			c-0.85,1.94-2.17,5.81-1.03,9.35c0.51,1.77,1.77,3.13,3.53,3.82c0.85,0.34,1.82,0.51,2.79,0.51c1.48,0,2.96-0.4,4.27-1.08
			c1.5-0.86,2.72-1.88,3.72-3.1c0.57,1.81,1.66,3.11,3.17,3.78c0.68,0.28,1.37,0.46,2.05,0.46c2.34,0,4.79-1.42,6.78-3.88
			c0.57,0.23,1.2,0.4,1.82,0.51h0.68c0.83,0,1.62-0.17,2.35-0.49l-0.47,1.97c-0.17,0.8,0.29,1.6,1.08,1.77
			c0.11,0.06,0.23,0.06,0.34,0.06c0.63,0,1.25-0.46,1.37-1.14l2.17-8.95c1.25-3.36,4.1-8.44,6.33-8.44c0.34,0,0.4,0.11,0.51,0.23
			c0.97,1.25,0.34,4.22-2.74,16.64c-0.17,0.8,0.28,1.6,1.08,1.77h0.34c0.63,0,1.25-0.4,1.42-1.08c1.88-8.09,1.77-9.23,4.27-13.45
			c1.48-2.51,3.02-3.93,4.16-3.93c0.34,0,0.4,0.06,0.51,0.17c1.08,1.42-0.11,5.36-0.8,8.72c-1.03,4.56,0.11,8.26,2.74,9.29
			c0.46,0.17,0.91,0.29,1.42,0.29c1.21,0,2.47-0.54,3.67-1.5l-1.5,6.4c-0.17,0.74,0.28,1.54,1.08,1.71
			c0.11,0.06,0.23,0.06,0.34,0.06c0.63,0,1.25-0.46,1.42-1.14l1.88-8.21c0.68,1.2,1.6,1.94,2.74,2.28c1.31,0.23,1.31,0.23,2.79,0.23
			c3.7,0,8.05-0.9,10.94-4.2c0.56,1.85,1.66,3.18,3.2,3.86c0.68,0.28,1.37,0.46,2.05,0.46c2.34,0,4.79-1.42,6.78-3.88
			c0.57,0.23,1.2,0.4,1.82,0.51h0.68c1.42,0,2.75-0.5,3.84-1.44c0.35,1.07,0.92,2.03,1.69,2.8c1.31,1.31,3.02,2,4.84,2h0.28
			c0,0,0.06,0,0.11,0H331c3.54,0,7.66-0.78,10.54-3.75c0.44,1.86,1.42,3.22,2.85,3.75c0.46,0.23,0.91,0.28,1.42,0.28
			c1.31,0,2.68-0.63,4.05-1.82c0.62-0.55,1.21-1.22,1.75-1.96c0.51,1.48,1.41,2.56,2.64,3.04c0.46,0.17,0.97,0.23,1.42,0.23
			c2.17,0,4.52-1.68,6.34-4.52c0.57,1.41,1.48,2.61,2.72,3.49c1.54,1.14,3.31,1.71,5.24,1.71c0.97,0,2-0.17,3.02-0.46
			c2.28-0.69,4.45-2.12,6.1-3.91c0.02,0.07,0.04,0.14,0.06,0.21c0.46,1.65,1.42,2.79,2.74,3.31c0.46,0.17,0.91,0.29,1.42,0.29
			c1.88,0,3.93-1.31,5.59-3.53c0.51,1.6,1.42,2.74,2.74,3.25c0.46,0.17,0.91,0.29,1.42,0.29c1.31,0,2.68-0.63,4.05-1.82
			c1.6-1.42,2.96-3.59,3.88-6.04c0.25-0.59,0.43-1.19,0.58-1.78c0.04-0.09,0.08-0.17,0.1-0.27l1.37-7.18
			c0.74,0.34,1.71,0.57,2.85,0.74c0.63,0.11,0.85,0.34,0.97,0.51c0.74,1.14-0.06,4.16-0.57,6.16c-0.34,1.31-0.63,2.45-0.63,3.36
			c-0.06,3.25,1.14,5.64,3.25,6.33c0.4,0.17,0.85,0.29,1.31,0.29c1.31,0,2.68-0.63,3.93-1.77c1.48-1.37,2.79-3.42,3.59-5.7
			l1.08-3.02C419.05,194.79,418.65,193.99,417.91,193.76z M245.34,202.76c-1.25-0.51-1.65-2.17-1.82-3.13
			c-0.14-1.12-0.04-2.4,0.26-3.72c0.03-0.09,0.05-0.18,0.08-0.27c0.01-0.02,0-0.05,0.01-0.07c0.19-0.72,0.43-1.44,0.73-2.15
			c0.91-2.17,2.34-3.99,3.88-5.07c0.29-0.23,0.74-0.46,1.2-0.68c-1.82,2.79-1.54,7.35-0.97,9.23c0.34,1.31,1.03,2.51,1.94,3.42
			C248.99,202.25,246.93,203.51,245.34,202.76z M252.75,196.95c-0.11,0.29-0.29,0.57-0.46,0.85c-0.34-0.51-0.63-1.08-0.85-1.71
			c-0.46-1.71-0.46-5.36,0.8-7.01c0.23-0.34,0.51-0.51,0.85-0.63C254.29,190.28,254,193.99,252.75,196.95z M294.92,201.57
			c-1.03,1.03-2.05,1.48-2.79,1.25c-0.74-0.23-1.37-1.2-1.65-2.62c-0.34-1.71-0.17-3.93,0.51-6.1c0.63-2.17,1.71-4.16,2.96-5.41
			c0.85-0.8,1.71-1.31,2.39-1.31c0.17,0,0.28,0.06,0.4,0.06c0.74,0.23,1.37,1.2,1.65,2.62c0.34,1.71,0.17,3.99-0.51,6.1
			C297.26,198.32,296.18,200.31,294.92,201.57z M309.34,202.76c-1.25-0.51-1.65-2.17-1.82-3.13c-0.14-1.12-0.04-2.41,0.26-3.72
			c0.03-0.09,0.05-0.18,0.08-0.27c0-0.02,0-0.05,0.01-0.07c0.19-0.72,0.43-1.45,0.73-2.15c0.91-2.17,2.34-3.99,3.88-5.07
			c0.29-0.23,0.74-0.46,1.2-0.68c-1.82,2.79-1.54,7.35-0.97,9.23c0.34,1.31,1.03,2.51,1.94,3.42
			C312.99,202.25,310.94,203.51,309.34,202.76z M316.75,196.95c-0.11,0.29-0.29,0.57-0.46,0.85c-0.34-0.51-0.63-1.08-0.85-1.71
			c-0.46-1.71-0.46-5.36,0.8-7.01c0.23-0.34,0.51-0.51,0.85-0.63C318.29,190.28,318.01,193.99,316.75,196.95z M369.01,188
			c2.45-1.42,3.02-0.57,3.31-0.23c0.74,1.03-0.23,3.31-1.2,4.5c-2,2.45-4.73,3.93-6.9,3.88C364.63,192.85,366.62,189.43,369.01,188z
			"/>
		<path class="st0" d="M459.46,207.67c-2.17,0.63-6.04-0.11-9.8-0.8c3.25-2.85,4.79-8.89,6.9-17.84c2.56-10.94,5.47-16.3,9.63-17.27
			c0.57-0.11,1.03-0.17,1.48-0.17c0.8,0,1.42-0.63,1.42-1.48c0-0.8-0.63-1.42-1.42-1.42s-1.54,0.11-2.22,0.29
			c-4.22,0.85-10.14,3.88-14.7,6.84c-3.48,2.28-11.74,8.21-13.11,13.91c-1.2,5.3,1.08,9.29,6.9,11.8c0.74,0.34,1.6,0,1.94-0.74
			c0.28-0.74-0.06-1.6-0.74-1.94c-4.56-1.94-6.16-4.56-5.24-8.49c0.74-3.19,5.3-7.81,11.85-12.08c2.05-1.37,4.22-2.56,6.21-3.59
			c-1.82,3.08-3.36,7.41-4.84,13.73c-3.13,13.51-4.79,17.44-9.52,17.44c-0.11,0-0.17,0-0.23,0.06c-1.54-0.23-3.02-0.34-4.39-0.23
			c-3.82,0.23-6.1,1.82-6.78,4.9c-0.17,0.74,0.29,1.54,1.08,1.71c0.11,0.06,0.23,0.06,0.34,0.06c0.63,0,1.25-0.46,1.42-1.14
			c0.74-3.36,4.73-3.19,13.34-1.54c4.33,0.86,8.44,1.6,11.29,0.74c0.74-0.23,1.2-1.03,0.97-1.77
			C461,207.84,460.2,207.44,459.46,207.67z"/>
		<path class="st0" d="M508.02,184.53c0.91,0,1.71-0.74,1.71-1.65c0-0.97-0.8-1.71-1.71-1.71c-0.91,0-1.71,0.74-1.71,1.71
			C506.31,183.79,507.11,184.53,508.02,184.53z"/>
		<path class="st0" d="M552.36,193.87c-0.74-0.17-1.54,0.34-1.71,1.14c-0.17,0.63-0.4,1.31-0.63,1.99c-0.74,2-1.88,3.76-3.13,4.9
			c-0.97,0.86-1.88,1.2-2.51,0.97c-1.03-0.34-1.65-2.68-0.97-5.93l0.29-1.2c0.4-1.37,2-7.18,0.06-9.86
			c-0.68-0.91-1.65-1.37-2.85-1.37c-1.42,0-2.85,0.68-4.22,2.05c-0.11-0.51-0.51-0.97-1.08-1.08c-0.8-0.17-1.54,0.29-1.77,1.08
			l-2.02,8.41c-0.01,0.03-0.02,0.05-0.03,0.08c-0.11,0.68-0.34,1.37-0.57,2.05c-1.03,2.62-3.76,5.13-6.72,5.98
			c-1.48,0.46-3.7,0.68-5.7-0.8c-1.2-0.86-1.82-2.11-2.11-3.25h0.11c3.02,0,6.44-1.82,8.95-4.96c1.25-1.6,3.19-5.3,1.25-8.04
			c-0.91-1.25-3.02-2.96-7.12-0.57c-3.03,1.82-5.42,5.68-6.05,9.67c-0.01,0.04-0.03,0.09-0.04,0.13c-0.17,0.68-0.4,1.37-0.63,1.99
			c-0.74,2-1.88,3.82-3.13,4.9c-0.97,0.86-1.88,1.25-2.51,1.03c-1.03-0.4-1.65-2.74-0.97-5.93l1.94-8.26l0.34-1.54
			c0.17-0.8-0.34-1.6-1.08-1.77c-0.8-0.17-1.6,0.34-1.77,1.14l-0.34,1.54l-1.5,6.56c-0.01,0.04-0.03,0.07-0.04,0.11
			c-0.17,0.68-0.4,1.37-0.63,2c-1.65,4.33-4.45,6.38-5.64,5.93c-1.03-0.4-1.65-2.74-0.97-5.93l1.94-8.21l1.94-8.32
			c0.17-0.8-0.34-1.6-1.08-1.77c-0.8-0.17-1.6,0.34-1.77,1.08l-1.94,8.32l-1.51,6.6c-0.03,0.08-0.06,0.16-0.08,0.24
			c-0.17,0.68-0.4,1.37-0.63,2.05c-0.74,1.99-1.88,3.76-3.13,4.9c-0.97,0.85-1.88,1.2-2.51,0.97c-1.03-0.4-1.65-2.68-0.97-5.93
			l1.94-8.21l0.34-1.6c0.17-0.8-0.34-1.54-1.08-1.71c-0.8-0.17-1.6,0.29-1.77,1.08l-0.06,0.4c-0.57-0.8-1.31-1.42-2.22-1.82
			c-1.88-0.8-4.05-0.4-6.21,1.08c-1.88,1.37-3.59,3.53-4.67,6.1c-0.35,0.81-0.63,1.62-0.84,2.42c0,0.01-0.01,0.02-0.01,0.03
			c-0.17,0.68-0.4,1.37-0.63,2.05c-1.65,4.27-4.45,6.33-5.64,5.87c-1.03-0.4-1.65-2.68-0.97-5.93l1.88-8.21l0.17-0.74h2.51
			c0.8,0,1.42-0.63,1.42-1.42c0-0.74-0.63-1.42-1.42-1.42h-1.82l1.08-4.73c0.17-0.8-0.34-1.6-1.08-1.77
			c-0.8-0.17-1.6,0.34-1.77,1.08l-1.2,5.36h-3.13c-0.8,0-1.48,0.63-1.48,1.42s0.68,1.48,1.48,1.48h0.51h0.29h1.65l-0.06,0.06
			l-1.82,8.26c-1.03,4.56,0.11,8.26,2.74,9.29c0.46,0.17,0.97,0.23,1.42,0.23c2,0,4.17-1.43,5.91-3.89
			c0.57,1.59,1.57,2.82,2.98,3.43c0.68,0.29,1.37,0.4,2.05,0.4c2.22,0,4.67-1.37,6.61-3.76c0.4,1.88,1.37,3.25,2.85,3.82
			c0.46,0.17,0.91,0.23,1.42,0.23c1.89,0,3.92-1.28,5.6-3.49c0.49,1.61,1.42,2.78,2.72,3.26c0.46,0.23,0.91,0.29,1.42,0.29
			c1.85,0,3.85-1.26,5.52-3.39c0.48,1.65,1.42,2.85,2.74,3.33c0.46,0.23,0.91,0.28,1.42,0.28c1.31,0,2.68-0.63,4.05-1.82
			c0.91-0.81,1.74-1.85,2.47-3.04c0.58,1.34,1.47,2.47,2.66,3.32c1.54,1.14,3.31,1.71,5.24,1.71c0.97,0,2-0.17,3.02-0.46
			c1.57-0.48,3.08-1.32,4.42-2.37l-0.14,0.6c-0.17,0.8,0.29,1.54,1.08,1.77h0.34c0.63,0,1.25-0.46,1.37-1.08l1.88-7.75
			c0.14-0.44,0.25-0.87,0.35-1.31c0-0.01,0-0.01,0-0.02c0.21-0.51,0.96-2.48,2.11-4.37c1.48-2.51,3.02-3.99,4.16-3.99
			c0.34,0,0.4,0.11,0.51,0.23c0.51,0.68,0.68,3.48-0.51,7.35c-0.06,0.11-0.23,1.03-0.28,1.37c-1.03,4.56,0.11,8.26,2.74,9.29
			c0.46,0.17,0.91,0.29,1.42,0.29c1.31,0,2.74-0.63,4.05-1.88c1.6-1.42,2.96-3.53,3.93-5.98c0.29-0.8,0.51-1.6,0.68-2.39
			C553.67,194.84,553.16,194.1,552.36,193.87z M483.8,196.89c-1.31,3.02-3.99,5.81-6.15,5.81c-0.34,0-0.63-0.06-0.91-0.17
			c-2.28-1.03-2.22-5.58-0.68-9.06c0.85-2.05,2.22-3.82,3.7-4.84c0.57-0.4,1.54-0.97,2.51-0.97c0.28,0,0.57,0.06,0.85,0.17
			c1.25,0.51,1.6,2.11,1.71,3.02C485.11,192.62,484.71,194.84,483.8,196.89z M521.35,188c2.45-1.42,3.02-0.57,3.31-0.23
			c0.74,1.03-0.23,3.31-1.2,4.5c-2,2.45-4.73,3.93-6.9,3.88C516.97,192.85,518.96,189.43,521.35,188z"/>
	</g>
</g>
</svg>
