<?xml version="1.0" encoding="utf-8"?>
<!-- Generator: Adobe Illustrator 24.0.0, SVG Export Plug-In . SVG Version: 6.00 Build 0)  -->
<svg version="1.1" id="Grid" xmlns="http://www.w3.org/2000/svg" xmlns:xlink="http://www.w3.org/1999/xlink" x="0px" y="0px"
	 viewBox="0 0 260 260" style="enable-background:new 0 0 260 260;" xml:space="preserve">
<style type="text/css">
	.st0{fill:#00534C;}
</style>
<g>
	<path class="st0" d="M87.87,49.19c-44.56,23.23-61.91,78.38-38.69,122.94c23.23,44.56,78.38,61.91,122.94,38.69
		s61.91-78.38,38.69-122.94C187.58,43.31,132.43,25.96,87.87,49.19z M170.49,207.66c-42.82,22.32-95.83,5.65-118.15-37.18
		S46.69,74.66,89.51,52.34c42.82-22.32,95.83-5.65,118.15,37.18S213.31,185.34,170.49,207.66z"/>
	
		<rect x="63.06" y="111.71" transform="matrix(0.1536 -0.9881 0.9881 0.1536 -62.4469 163.7612)" class="st0" width="2.61" height="13.24"/>
	<polygon class="st0" points="74.63,105.46 72.23,104.68 70.3,110.6 60.11,107.27 59.3,109.75 71.88,113.86 	"/>
	<polygon class="st0" points="80.73,94.41 76.13,90.69 83.2,91.07 83.23,91.04 81.17,83.83 86.08,87.8 87.72,85.77 77.01,77.11 
		76.99,77.13 80.06,88.46 68.44,87.69 68.43,87.7 79.14,96.37 	"/>
	<polygon class="st0" points="98.3,77.74 96.81,75.71 91.44,79.67 89.74,77.37 94.32,74 92.82,71.97 88.25,75.34 86.57,73.07 
		91.74,69.26 90.25,67.23 82.98,72.59 90.83,83.25 	"/>
	<path class="st0" d="M101.93,71.19l1.59-0.71l4.26,2.71l2.78-1.24l-4.76-3.13c0.48-0.66,0.73-1.39,0.75-2.18
		c0.02-0.79-0.13-1.56-0.47-2.3c-0.56-1.26-1.42-2.07-2.57-2.43c-1.15-0.36-2.48-0.2-3.98,0.46L95.87,64l5.4,12.09l2.38-1.06
		L101.93,71.19z M99.27,65.24l1.71-0.76c0.72-0.32,1.3-0.34,1.73-0.05c0.43,0.29,0.74,0.65,0.94,1.09c0.2,0.44,0.23,0.91,0.1,1.42
		c-0.13,0.51-0.51,0.91-1.16,1.2l-1.69,0.76L99.27,65.24z"/>
	<path class="st0" d="M115.05,70.09c1.12,0.38,2.36,0.43,3.71,0.14c0.84-0.18,1.6-0.48,2.26-0.9c0.66-0.42,1.13-0.8,1.4-1.14
		l-1.54-2.07c-0.23,0.34-0.58,0.67-1.04,0.98s-1.01,0.53-1.64,0.67c-0.79,0.16-1.51,0.13-2.17-0.1c-0.66-0.23-1.22-0.62-1.66-1.19
		c-0.45-0.56-0.76-1.26-0.94-2.09c-0.16-0.76-0.14-1.49,0.07-2.19c0.21-0.7,0.56-1.29,1.06-1.78c0.5-0.48,1.08-0.8,1.73-0.93
		c0.97-0.2,2-0.05,3.07,0.46l0.5-2.62c-0.57-0.21-1.21-0.35-1.93-0.42c-0.71-0.07-1.46-0.02-2.25,0.14
		c-1.24,0.26-2.28,0.78-3.11,1.54c-0.83,0.77-1.41,1.72-1.72,2.85c-0.31,1.13-0.33,2.35-0.06,3.65c0.25,1.19,0.74,2.22,1.48,3.1
		C113,69.08,113.93,69.71,115.05,70.09z"/>
	<path class="st0" d="M126.98,69.07l1.12-2.57l4.39,0.07l0.98,2.61l3.02,0.05l-5.74-13.86l-0.14,0l-6.2,13.66L126.98,69.07z
		 M130.44,61.12l1.22,3.24l-2.61-0.04L130.44,61.12z"/>
	<polygon class="st0" points="142.77,70.63 144.96,60.13 148.12,60.79 148.63,58.33 139.9,56.5 139.38,58.97 142.41,59.6 
		140.22,70.09 	"/>
	<path class="st0" d="M150.02,69.1c0.12,1.19,0.53,2.27,1.22,3.25c0.69,0.98,1.59,1.72,2.7,2.23c1.1,0.5,2.25,0.69,3.45,0.57
		c1.2-0.12,2.29-0.52,3.28-1.21c0.99-0.68,1.74-1.58,2.24-2.7c0.5-1.09,0.68-2.24,0.55-3.45c-0.13-1.21-0.54-2.3-1.23-3.29
		c-0.69-0.99-1.58-1.74-2.69-2.24c-1.1-0.5-2.25-0.68-3.45-0.55c-1.2,0.13-2.29,0.55-3.27,1.25c-0.98,0.7-1.72,1.6-2.22,2.69
		C150.09,66.76,149.9,67.91,150.02,69.1z M152.67,68.92c-0.07-0.74,0.06-1.46,0.38-2.16c0.33-0.72,0.79-1.3,1.38-1.74
		c0.6-0.44,1.25-0.7,1.97-0.79c0.72-0.09,1.42,0.02,2.11,0.34c0.69,0.31,1.23,0.77,1.64,1.37c0.41,0.6,0.64,1.27,0.7,2.01
		c0.06,0.74-0.07,1.47-0.4,2.19c-0.32,0.71-0.78,1.28-1.36,1.72c-0.58,0.44-1.23,0.71-1.94,0.8c-0.71,0.09-1.41-0.02-2.09-0.33
		c-0.7-0.32-1.26-0.78-1.67-1.38C152.97,70.33,152.73,69.66,152.67,68.92z"/>
	<path class="st0" d="M98.38,189.66c-0.02-0.81-0.22-1.56-0.62-2.25c-0.4-0.7-0.95-1.24-1.64-1.64c-0.7-0.4-1.45-0.59-2.25-0.57
		c-0.8,0.02-1.55,0.23-2.24,0.63c-0.69,0.4-1.23,0.95-1.63,1.64c-0.4,0.71-0.6,1.46-0.58,2.25c0.01,0.79,0.22,1.54,0.61,2.22
		c0.4,0.69,0.95,1.23,1.65,1.63c0.26,0.15,0.54,0.27,0.85,0.37l3.54,2.01l0.84-1.47l-1.22-0.69c0.44-0.19,0.84-0.45,1.2-0.77
		c0.37-0.32,0.67-0.69,0.91-1.12C98.2,191.21,98.39,190.46,98.38,189.66z M96.63,189.62c0,0.49-0.13,0.95-0.38,1.4
		c-0.25,0.44-0.58,0.79-0.99,1.05c-0.41,0.26-0.86,0.39-1.33,0.41c-0.48,0.02-0.93-0.1-1.36-0.34c-0.44-0.25-0.78-0.59-1.03-1.01
		c-0.24-0.42-0.36-0.88-0.36-1.37c0-0.49,0.12-0.96,0.38-1.4c0.25-0.44,0.59-0.79,1-1.04c0.42-0.25,0.87-0.39,1.35-0.4
		c0.48-0.01,0.94,0.11,1.37,0.35c0.43,0.24,0.76,0.57,1,0.99C96.51,188.68,96.63,189.13,96.63,189.62z"/>
	<path class="st0" d="M109.12,191.66l-1.6-0.6l-1.94,5.19c-0.1,0.26-0.27,0.48-0.51,0.66c-0.24,0.18-0.53,0.3-0.85,0.35
		c-0.32,0.05-0.65,0.01-0.97-0.11c-0.3-0.11-0.55-0.29-0.75-0.54c-0.2-0.25-0.34-0.52-0.41-0.82c-0.07-0.3-0.05-0.58,0.05-0.84
		l1.94-5.19l-1.62-0.61l-1.95,5.23c-0.22,0.59-0.27,1.18-0.15,1.76c0.12,0.58,0.38,1.1,0.79,1.56c0.41,0.45,0.92,0.8,1.53,1.02
		c0.61,0.23,1.22,0.31,1.83,0.23c0.61-0.07,1.15-0.29,1.63-0.65c0.48-0.36,0.82-0.84,1.04-1.43L109.12,191.66z"/>
	<path class="st0" d="M114.59,192.67l-5.86,8.05l1.67,0.37l1.07-1.52l2.84,0.64l0.29,1.83l1.96,0.44l-1.88-9.78L114.59,192.67z
		 M114.08,198.66l-1.69-0.38l1.33-1.89L114.08,198.66z"/>
	<polygon class="st0" points="120.51,194.12 119.74,202.88 125.58,203.39 125.73,201.73 121.61,201.37 122.23,194.27 	"/>
	
		<rect x="129.05" y="194.6" transform="matrix(0.9999 -0.014 0.014 0.9999 -2.7687 1.8352)" class="st0" width="1.73" height="8.79"/>
	<polygon class="st0" points="133.46,196.2 135.51,195.97 136.3,203.04 138.02,202.85 137.23,195.78 139.35,195.54 139.17,193.88 
		133.28,194.54 	"/>
	<polygon class="st0" points="143.62,201.99 149.61,200.55 149.22,198.92 144.91,199.96 144.47,198.11 148.14,197.23 147.74,195.6 
		144.07,196.49 143.63,194.67 147.78,193.67 147.39,192.04 141.56,193.45 	"/>
	<polygon class="st0" points="144.32,190.53 143.79,192.32 144.78,192.08 146.12,190.1 	"/>
	<path class="st0" d="M157.57,189.68c0.51-0.24,1.2-0.33,2.08-0.27l0.04-1.48c-0.49-0.07-0.96-0.08-1.42-0.03
		c-0.46,0.05-0.99,0.21-1.58,0.49c-0.73,0.38-1.23,0.89-1.49,1.52s-0.22,1.29,0.09,1.97c0.22,0.47,0.51,0.81,0.87,1.01
		c0.36,0.21,0.74,0.33,1.12,0.35c0.38,0.02,0.84,0.02,1.38-0.01c0.91-0.06,1.47,0.12,1.66,0.53c0.15,0.32,0.13,0.6-0.05,0.86
		c-0.18,0.26-0.44,0.46-0.77,0.61c-0.28,0.13-0.63,0.21-1.04,0.25c-0.41,0.03-0.81,0.02-1.17-0.06l-0.12,1.55
		c0.54,0.1,1.07,0.11,1.61,0.04c0.53-0.08,1.04-0.23,1.52-0.45c0.57-0.27,1.01-0.6,1.33-0.99c0.32-0.4,0.5-0.82,0.55-1.27
		c0.05-0.45-0.02-0.88-0.21-1.29c-0.22-0.48-0.49-0.83-0.81-1.06c-0.32-0.23-0.66-0.37-1.01-0.42c-0.35-0.05-0.74-0.06-1.18-0.02
		c-0.54,0.04-1,0.03-1.36-0.03c-0.37-0.06-0.61-0.22-0.73-0.47c-0.13-0.27-0.13-0.53,0-0.75
		C156.99,190.04,157.23,189.84,157.57,189.68z"/>
	<path class="st0" d="M167.31,182.37l-1.44,0.92l2.97,4.68c0.15,0.23,0.22,0.5,0.22,0.81c0,0.3-0.08,0.6-0.24,0.89
		c-0.16,0.29-0.38,0.52-0.67,0.71c-0.27,0.17-0.56,0.26-0.88,0.28c-0.32,0.02-0.62-0.04-0.9-0.17c-0.28-0.13-0.49-0.31-0.64-0.54
		l-2.97-4.68l-1.46,0.93l2.99,4.71c0.34,0.53,0.77,0.93,1.31,1.18c0.54,0.26,1.11,0.36,1.72,0.31c0.61-0.05,1.19-0.25,1.74-0.6
		c0.55-0.35,0.98-0.79,1.29-1.32c0.31-0.53,0.46-1.1,0.46-1.69s-0.17-1.16-0.51-1.69L167.31,182.37z"/>
	<path class="st0" d="M173.99,177.92c-0.79-0.02-1.6,0.31-2.42,1.01l-2.03,1.72l5.69,6.7l1.32-1.12l-1.8-2.12l0.95-0.8
		c0.55-0.47,0.91-0.96,1.07-1.48c0.16-0.52,0.17-1.02,0.03-1.5c-0.14-0.48-0.38-0.92-0.72-1.32
		C175.47,178.3,174.78,177.94,173.99,177.92z M175.05,180.68c0.06,0.21,0.06,0.43,0.01,0.67c-0.06,0.24-0.21,0.47-0.46,0.68
		l-0.94,0.8l-1.72-2.02l0.95-0.8c0.4-0.34,0.76-0.46,1.09-0.36c0.33,0.1,0.59,0.27,0.79,0.51
		C174.9,180.29,174.99,180.47,175.05,180.68z"/>
	<polygon class="st0" points="182.23,178.61 180.82,177.33 183.36,174.53 182.12,173.41 179.58,176.21 178.19,174.95 181.06,171.79 
		179.82,170.66 175.79,175.11 182.3,181.01 186.44,176.45 185.2,175.32 	"/>
	<path class="st0" d="M188.46,166.31c-0.26-0.46-0.62-0.84-1.06-1.14c-0.75-0.52-1.52-0.68-2.3-0.48c-0.78,0.2-1.47,0.74-2.09,1.64
		l-1.51,2.2l7.25,4.98l0.98-1.43l-2.3-1.58l0.66-0.96l3.35,0.06l1.14-1.66l-3.78-0.12C188.83,167.27,188.72,166.77,188.46,166.31z
		 M186.98,167.45c0.1,0.33,0.02,0.69-0.24,1.08l-0.7,1.01l-2.19-1.5l0.7-1.02c0.3-0.43,0.62-0.64,0.96-0.63
		c0.34,0.01,0.65,0.11,0.91,0.29C186.69,166.86,186.87,167.12,186.98,167.45z"/>
	
		<rect x="189.79" y="157.87" transform="matrix(0.4768 -0.879 0.879 0.4768 -42.894 252.4729)" class="st0" width="1.73" height="8.79"/>
	<path class="st0" d="M195.88,150.5c-0.74-0.29-1.51-0.38-2.3-0.25c-0.8,0.13-1.51,0.43-2.15,0.92c-0.63,0.49-1.1,1.11-1.4,1.85
		c-0.3,0.75-0.38,1.52-0.26,2.31c0.13,0.79,0.44,1.5,0.93,2.13c0.5,0.63,1.11,1.09,1.85,1.38c0.76,0.3,1.53,0.39,2.31,0.27
		c0.79-0.12,1.49-0.42,2.12-0.91c0.63-0.49,1.09-1.11,1.39-1.86c0.3-0.75,0.39-1.52,0.27-2.3c-0.12-0.79-0.42-1.5-0.91-2.14
		C197.25,151.27,196.63,150.8,195.88,150.5z M196.99,154.28c0.08,0.47,0.03,0.93-0.15,1.39c-0.19,0.47-0.48,0.86-0.86,1.15
		s-0.83,0.48-1.32,0.54c-0.49,0.07-0.97,0.01-1.44-0.18c-0.49-0.19-0.89-0.48-1.2-0.86c-0.31-0.38-0.51-0.81-0.59-1.28
		c-0.08-0.47-0.03-0.94,0.15-1.41c0.19-0.46,0.47-0.84,0.86-1.13c0.39-0.29,0.82-0.46,1.31-0.53c0.49-0.06,0.98,0,1.46,0.19
		c0.48,0.19,0.88,0.47,1.19,0.84C196.71,153.38,196.91,153.81,196.99,154.28z"/>
	<path class="st0" d="M198.08,141.91c-0.41-0.33-0.88-0.55-1.41-0.68c-0.89-0.21-1.66-0.08-2.32,0.39c-0.65,0.47-1.1,1.23-1.35,2.29
		l-0.6,2.59l8.56,2l0.39-1.69l-2.72-0.64l0.26-1.13l3.14-1.17l0.46-1.97l-3.57,1.27C198.77,142.66,198.49,142.24,198.08,141.91z
		 M197.29,144.6l-0.28,1.2l-2.58-0.6l0.28-1.21c0.12-0.51,0.34-0.82,0.67-0.94c0.32-0.11,0.64-0.13,0.95-0.06
		c0.31,0.07,0.57,0.24,0.79,0.52C197.34,143.78,197.39,144.14,197.29,144.6z"/>
	<polygon class="st0" points="201.9,132.32 201.48,136.74 199.59,136.55 199.95,132.8 198.28,132.64 197.92,136.39 196.05,136.21 
		196.46,131.97 194.8,131.81 194.22,137.78 202.97,138.62 203.57,132.48 	"/>
	<path class="st0" d="M84.3,42.33c-48.34,25.2-67.17,85.03-41.97,133.37c25.2,48.34,85.03,67.17,133.37,41.97
		c48.34-25.2,67.17-85.03,41.97-133.37C192.47,35.96,132.64,17.13,84.3,42.33z M174.06,214.52c-46.6,24.29-104.28,6.14-128.58-40.46
		c-24.29-46.6-6.14-104.28,40.46-128.58s104.28-6.14,128.58,40.46C238.81,132.54,220.66,190.22,174.06,214.52z"/>
	<path class="st0" d="M123.48,141.84C123.48,141.84,123.48,141.84,123.48,141.84C123.47,141.83,123.49,141.81,123.48,141.84z"/>
	<path class="st0" d="M157.53,137.43c0.09-0.51,0.15-1.04,0.2-1.56c0.05-0.59,0.18-1.18,0.14-1.78c0-0.04,0.01-0.08,0.01-0.13
		c0.07-0.56,0.05-1.11-0.09-1.65c-0.07-0.28-0.11-0.56-0.06-0.85c0.04-0.24,0.02-0.49-0.01-0.73c-0.03-0.27-0.13-0.54-0.14-0.82
		c-0.02-0.53-0.2-1.03-0.29-1.54c-0.04-0.19-0.05-0.38-0.09-0.57c-0.15-0.61-0.3-1.22-0.47-1.82c-0.08-0.3-0.18-0.59-0.29-0.88
		c-0.26-0.69-0.55-1.36-0.79-2.06c-0.23-0.69-0.5-1.36-0.85-1.99c-0.29-0.52-0.56-1.06-0.84-1.58c-0.05-0.1-0.14-0.19-0.21-0.28
		c-0.1-0.14-0.23-0.26-0.3-0.41c-0.28-0.6-0.68-1.1-1.1-1.6c-0.36-0.43-0.72-0.87-1.09-1.29c-0.21-0.24-0.47-0.44-0.67-0.68
		c-0.36-0.42-0.77-0.79-1.22-1.12c-0.1-0.07-0.22-0.16-0.27-0.26c-0.14-0.28-0.36-0.47-0.61-0.64c-0.36-0.23-0.71-0.47-1.08-0.7
		c-0.09-0.06-0.2-0.08-0.29-0.13c-0.08-0.04-0.16-0.09-0.24-0.15c-0.24-0.17-0.47-0.37-0.72-0.51c-0.27-0.15-0.57-0.24-0.86-0.35
		c-0.28-0.1-0.57-0.19-0.85-0.29c-0.46-0.17-0.92-0.34-1.38-0.51c-0.06-0.02-0.12-0.04-0.18-0.05c-0.71-0.16-1.41-0.31-2.12-0.47
		c-0.13-0.03-0.25-0.07-0.38-0.06c-0.41,0.03-0.77-0.11-1.14-0.25c-0.2-0.07-0.41-0.13-0.61-0.19c-0.28-0.08-0.55-0.17-0.85-0.12
		c-0.3-0.2-0.65-0.19-0.98-0.25c-0.54-0.09-1.07-0.18-1.61-0.26c-0.2-0.03-0.39-0.02-0.55,0.16c-0.14,0.15-0.24,0.11-0.31-0.1
		c-0.08-0.23-0.24-0.31-0.4-0.19c-0.05,0.03-0.08,0.1-0.11,0.15c-0.18,0.26-0.38,0.27-0.53-0.01c-0.1-0.19-0.24-0.21-0.42-0.21
		c-0.2,0-0.4,0.01-0.6-0.02c-0.27-0.03-0.55-0.09-0.82-0.12c-0.18-0.02-0.36-0.01-0.54,0.02c-0.36,0.05-0.71,0.12-1.07,0.18
		c-0.03,0-0.07,0.01-0.09-0.01c-0.14-0.09-0.24,0-0.35,0.06c-0.21,0.12-0.43,0.16-0.67,0.2c-0.39,0.06-0.78,0.14-1.15,0.26
		c-0.36,0.11-0.72,0.27-1.07,0.43c-0.3,0.13-0.59,0.3-0.89,0.43c-0.45,0.2-0.65,0.11-0.83-0.36c-0.04-0.11-0.07-0.23-0.11-0.34
		c-0.04-0.1-0.09-0.19-0.13-0.29c-0.07-0.14-0.13-0.29-0.19-0.43c-0.06-0.14-0.1-0.28-0.16-0.42c-0.12-0.25-0.26-0.49-0.36-0.74
		c-0.16-0.4-0.34-0.8-0.32-1.26c0.01-0.2-0.03-0.4-0.08-0.6c-0.04-0.17-0.12-0.35-0.32-0.36c-0.31-0.01-0.55-0.16-0.81-0.28
		c-0.23-0.11-0.46-0.16-0.71-0.1c-0.25,0.05-0.5,0.12-0.76,0.11c-0.43-0.01-0.76,0.13-1.04,0.45c-0.11,0.12-0.27,0.22-0.42,0.27
		c-0.31,0.11-0.45,0.28-0.37,0.6c0.12,0.43,0.28,0.85,0.43,1.27c0.26,0.74,0.62,1.42,1.04,2.09c0.25,0.4,0.45,0.82,0.67,1.24
		c0.03,0.05,0.04,0.1,0.06,0.15c0.18,0.52,0.13,0.68-0.35,0.94c-0.5,0.27-1,0.52-1.52,0.76c-0.39,0.18-0.8,0.3-1.19,0.46
		c-0.13,0.05-0.25,0.12-0.37,0.18c-0.1,0.05-0.18,0.11-0.28,0.15c-0.66,0.23-1.24,0.6-1.84,0.95c-0.31,0.18-0.62,0.37-0.93,0.56
		c-0.42,0.27-0.87,0.5-1.19,0.91c-0.06,0.07-0.15,0.11-0.23,0.16c-0.07,0.04-0.16,0.06-0.23,0.12c-0.47,0.4-0.94,0.81-1.4,1.21
		c-0.31,0.27-0.62,0.55-0.93,0.83c-0.13,0.11-0.27,0.21-0.38,0.34c-0.31,0.37-0.61,0.74-0.9,1.12c-0.23,0.3-0.43,0.61-0.64,0.91
		c-0.2,0.28-0.41,0.55-0.59,0.84c-0.35,0.56-0.7,1.12-1.01,1.7c-0.35,0.67-0.74,1.33-0.96,2.06c-0.17,0.59-0.46,1.15-0.56,1.77
		c-0.04,0.23-0.11,0.45-0.17,0.68c-0.13,0.51-0.26,1.01-0.37,1.52c-0.05,0.27-0.01,0.55-0.07,0.82c-0.17,0.84-0.13,1.7-0.18,2.55
		c-0.03,0.63,0.06,1.27,0.11,1.91c0.03,0.4,0.1,0.8,0.16,1.2c0.1,0.63,0.21,1.26,0.34,1.89c0.03,0.17,0.12,0.33,0.18,0.5
		c0.05,0.15,0.13,0.3,0.13,0.45c0,0.47,0.15,0.91,0.35,1.32c0.2,0.42,0.33,0.85,0.48,1.28c0.13,0.36,0.29,0.71,0.44,1.06
		c0.14,0.32,0.31,0.63,0.46,0.95c0.27,0.58,0.49,1.18,0.79,1.75c0.45,0.86,0.94,1.7,1.57,2.45c0.32,0.37,0.63,0.75,0.97,1.1
		c0.42,0.42,0.87,0.82,1.31,1.22c0.14,0.13,0.3,0.24,0.46,0.34c0.62,0.38,1.24,0.75,1.86,1.13c0.31,0.19,0.6,0.4,0.92,0.58
		c1.1,0.63,2.17,1.31,3.33,1.84c0.68,0.31,1.33,0.68,2.07,0.85c0.23,0.05,0.46,0.1,0.68,0.17c0.52,0.15,1.04,0.32,1.56,0.47
		c1.15,0.32,2.32,0.48,3.5,0.58c0.29,0.02,0.57,0.05,0.86,0.05c0.63,0.02,1.26,0.02,1.89,0.05c0.98,0.05,1.96-0.03,2.94-0.14
		c0.7-0.08,1.39-0.22,2.09-0.29c0.36-0.04,0.71-0.12,1.05-0.24c0.35-0.13,0.71-0.23,1.08-0.27c0.17-0.02,0.33-0.08,0.49-0.13
		c0.13-0.04,0.26-0.08,0.4-0.12c0.66-0.16,1.32-0.31,1.98-0.49c0.49-0.14,0.98-0.31,1.46-0.47c0.59-0.2,1.17-0.39,1.75-0.61
		c0.61-0.23,1.21-0.49,1.8-0.75c0.48-0.21,0.95-0.44,1.61-0.76c0.37-0.23,0.95-0.54,1.48-0.92c0.81-0.59,1.58-1.23,2.37-1.86
		c0.16-0.13,0.32-0.25,0.46-0.39c0.51-0.53,1-1.08,1.52-1.6c0.81-0.81,1.59-1.64,2.27-2.56c0.3-0.41,0.6-0.82,0.9-1.24
		c0.26-0.36,0.54-0.71,0.74-1.11c0.39-0.77,0.81-1.52,1.16-2.32C157.2,138.88,157.4,138.17,157.53,137.43z M153.21,119.36
		c0.03,0.02,0.08,0.03,0.09,0.06c0.01,0.02-0.01,0.07-0.03,0.12c-0.05-0.03-0.12-0.04-0.11-0.06
		C153.17,119.44,153.19,119.4,153.21,119.36z M147.92,120.35c-0.25-0.06-0.73-0.41-0.88-0.63c0.09-0.07,0.18-0.04,0.26,0.02
		c0.19,0.15,0.37,0.31,0.55,0.47C147.87,120.23,147.88,120.27,147.92,120.35z M137.66,117.01c-0.04,0-0.09-0.01-0.13,0.01
		c-0.36,0.16-0.74,0.03-1.1,0.03c-0.01,0-0.03-0.03-0.04-0.04c0.01-0.02,0.01-0.05,0.02-0.06c0.59-0.14,1.19-0.21,1.8-0.2
		c0.06,0,0.13,0.01,0.19,0c0.44-0.11,0.88-0.11,1.33,0.02c0.08,0.02,0.18,0.03,0.25,0c0.49-0.19,0.99-0.08,1.49-0.08
		c0.68,0,1.32,0.22,1.98,0.33c0.36,0.06,0.71,0.22,1.06,0.34c0.5,0.16,0.99,0.34,1.49,0.48c0.33,0.09,0.55,0.3,0.78,0.52
		c-0.45-0.08-0.89-0.13-1.3-0.35c-0.3-0.17-0.65-0.24-0.98-0.35c-0.04-0.01-0.09-0.01-0.13-0.02c-0.52-0.22-1.07-0.23-1.62-0.33
		c-0.36-0.06-0.71-0.14-1.07-0.15c-0.5-0.01-1-0.03-1.5-0.05c-0.07,0-0.16,0.02-0.22-0.01c-0.19-0.11-0.39-0.08-0.59-0.05
		c-0.09,0.01-0.19,0.02-0.29,0.02C138.61,117.03,138.14,117.02,137.66,117.01z M138.14,117.58c-0.19,0.24-0.51,0.26-0.83,0.04
		C137.6,117.39,137.87,117.43,138.14,117.58z M140.53,126.12c0.16,0.05,0.2,0.14,0.2,0.33
		C140.54,126.37,140.48,126.28,140.53,126.12z M138.6,122.81c0.47,0.07,0.53,0.12,0.53,0.43
		C138.84,123.22,138.78,122.94,138.6,122.81z M142.67,130.31c-0.04-0.08-0.02-0.19-0.03-0.32c0.07,0.04,0.11,0.04,0.12,0.06
		c0.1,0.22,0.2,0.44,0.29,0.66c0.01,0.03-0.03,0.09-0.07,0.12c-0.01,0.01-0.1-0.03-0.1-0.05
		C142.88,130.6,142.75,130.47,142.67,130.31z M142.37,129.35c-0.21-0.07-0.21-0.07-0.2-0.29
		C142.27,129.14,142.39,129.2,142.37,129.35z M140.96,126.8c0.17,0.18,0.38,0.33,0.44,0.62c-0.08,0-0.16,0.01-0.17-0.01
		C141.13,127.21,140.9,127.07,140.96,126.8z M136.47,119.35c-0.44,0.09-0.89,0.11-1.32,0.22c-0.24,0.06-0.44,0.24-0.66,0.37
		c-0.13,0.08-0.23,0.19-0.36,0.27c-0.42,0.26-0.84,0.51-1.25,0.78c-0.27,0.18-0.55,0.31-0.88,0.35c-0.35,0.05-0.68,0.13-1.04,0.03
		c-0.21-0.06-0.44-0.06-0.66,0.05c-0.09,0.04-0.19,0.03-0.21-0.07c-0.02-0.07,0-0.19,0.05-0.22c0.22-0.15,0.45-0.28,0.69-0.4
		c0.33-0.17,0.69-0.29,1.01-0.47c0.4-0.22,0.77-0.48,1.16-0.72c0.21-0.13,0.42-0.24,0.63-0.37c0.08-0.05,0.14-0.11,0.22-0.16
		c-0.48,0.11-0.9,0.32-1.31,0.57c-0.29,0.18-0.57,0.37-0.87,0.55c-0.06,0.04-0.16,0.01-0.24,0.02c0-0.08-0.03-0.18,0-0.23
		c0.11-0.18,0.2-0.37,0.42-0.46c0.08-0.03,0.15-0.11,0.21-0.18c0.17-0.2,0.33-0.42,0.49-0.62c0.03-0.03,0.06-0.07,0.1-0.08
		c0.28-0.12,0.57-0.24,0.86-0.35c0.41-0.15,0.83-0.27,1.24-0.41c0.45-0.16,0.91-0.22,1.37-0.05c0.13,0.05,0.24,0.13,0.36,0.2
		c0.05,0.03,0.08,0.09,0.13,0.09c0.44,0.04,0.59,0.39,0.81,0.69c0.13,0.17,0.13,0.28-0.06,0.36
		C137.09,119.19,136.78,119.29,136.47,119.35z M137.89,122.08c-0.18,0.07-0.31,0.12-0.45,0.17c-0.09-0.11-0.16-0.2-0.06-0.32
		C137.48,121.82,137.66,121.87,137.89,122.08z M131.73,124.33c-0.05,0-0.13,0.02-0.14,0c-0.11-0.22-0.35-0.36-0.37-0.64
		C131.55,123.71,131.63,123.81,131.73,124.33z M143.03,114.36c-0.29-0.03-0.59,0.03-0.89,0.05c-0.2,0.01-0.4-0.01-0.6,0.01
		c-0.3,0.04-0.6,0.1-0.9,0.16c-0.24,0.05-0.47,0.14-0.71,0.19c-0.35,0.07-0.73,0.07-1.06,0.2c-0.24,0.09-0.53,0.08-0.74,0.28
		c-0.16,0.14-0.37,0.09-0.64,0.05c0.24-0.18,0.44-0.27,0.67-0.33c0.4-0.1,0.79-0.23,1.19-0.35c0.19-0.05,0.39-0.1,0.59-0.14
		c0.71-0.13,1.42-0.3,2.14-0.36c0.54-0.05,1.1-0.07,1.65,0.05c0.48,0.1,0.96,0.17,1.44,0.27c0.09,0.02,0.18,0.08,0.27,0.13
		c-0.17,0.02-0.34,0.08-0.51,0.06C144.29,114.55,143.66,114.43,143.03,114.36z M145.3,115.54c-0.24,0.08-0.43,0.06-0.64-0.1
		C144.9,115.4,145.09,115.35,145.3,115.54z M144.4,115.31c-0.16,0.09-0.16,0.09-0.31,0.04c0-0.02,0.01-0.04,0.01-0.06
		C144.19,115.29,144.27,115.3,144.4,115.31z M142.35,114.98c0.01,0.06-0.01,0.15-0.06,0.18c-0.04,0.02-0.12-0.03-0.18-0.04
		c0.02-0.06,0.04-0.13,0.07-0.22C142.26,114.93,142.35,114.95,142.35,114.98z M141.13,115.13c-0.44,0.05-0.89,0.19-1.33,0.01
		C140.24,114.94,140.68,115.07,141.13,115.13z M140.23,116.06c0,0.03,0,0.06,0,0.09c-0.09,0-0.17,0.01-0.26,0.01
		c0-0.03,0-0.06,0-0.09C140.06,116.07,140.15,116.07,140.23,116.06z M146.68,116.02c-0.41,0-0.44-0.01-0.75-0.24
		C146.21,115.54,146.4,115.59,146.68,116.02z M149.44,121.81c-0.03,0.02-0.05,0.05-0.08,0.07c-0.06-0.06-0.13-0.12-0.23-0.23
		C149.35,121.63,149.45,121.66,149.44,121.81z M150.49,123.35c-0.2-0.06-0.3-0.12-0.26-0.31
		C150.41,123.06,150.43,123.18,150.49,123.35z M150.98,122.22c-0.23,0.01-0.25-0.01-0.27-0.32
		C150.91,121.95,150.91,121.95,150.98,122.22z M151.75,123.34c-0.28-0.1-0.34-0.38-0.54-0.61
		C151.54,122.73,151.72,122.96,151.75,123.34z M147.59,116.34c0.19-0.04,0.19-0.04,0.32,0.12
		C147.76,116.52,147.68,116.43,147.59,116.34z M152.82,125.36c-0.03-0.12-0.04-0.18-0.05-0.24c0.02-0.01,0.03-0.02,0.05-0.02
		c0.03,0.03,0.06,0.06,0.07,0.1C152.9,125.22,152.87,125.26,152.82,125.36z M152.48,124.31c-0.26,0.05-0.44-0.22-0.68,0
		c-0.03-0.3,0.15-0.4,0.24-0.55c0.01-0.01,0.15,0.02,0.18,0.07C152.31,123.97,152.38,124.12,152.48,124.31z M150.81,119.96
		c-0.3-0.15-0.44-0.41-0.66-0.57c0.02-0.04,0.04-0.08,0.06-0.11c0.06,0.04,0.16,0.07,0.17,0.12
		C150.45,119.62,150.81,119.61,150.81,119.96z M148.71,116.87c0.45-0.06,0.66,0.28,1.01,0.52
		C149.27,117.39,148.83,117.15,148.71,116.87z M152.04,121.42c-0.1,0.05-0.2,0.04-0.24-0.07c-0.03-0.09-0.02-0.19-0.03-0.29
		c0.02-0.01,0.05-0.03,0.07-0.04c0.08,0.06,0.17,0.11,0.23,0.18C152.14,121.27,152.13,121.37,152.04,121.42z M152.6,122.06
		c-0.05,0-0.11-0.01-0.16-0.03c-0.01-0.01,0.01-0.11,0.01-0.11c0.06,0,0.11,0.01,0.2,0.02C152.63,121.99,152.62,122.05,152.6,122.06
		z M151.2,119.05c-0.06-0.15-0.06-0.25,0.09-0.3c0.03-0.01,0.11,0.04,0.12,0.07C151.45,119,151.31,119,151.2,119.05z M151.85,119.45
		c-0.06-0.04-0.12-0.1-0.17-0.15c0.03-0.03,0.06-0.09,0.1-0.1c0.1-0.02,0.19,0,0.21,0.12c0.01,0.04-0.01,0.08-0.01,0.13
		C151.93,119.45,151.88,119.46,151.85,119.45z M152.48,119.93c-0.23,0.01-0.29-0.06-0.33-0.34
		C152.33,119.65,152.45,119.74,152.48,119.93z M153.04,120.87c-0.09-0.01-0.12-0.12-0.12-0.39c0.14,0.12,0.23,0.2,0.36,0.31
		C153.17,120.83,153.1,120.88,153.04,120.87z M149.62,115.87c0.3,0.38,0.79,0.5,1.13,0.81c0.18,0.17,0.34,0.36,0.52,0.54
		c-0.05,0.02-0.07,0.04-0.08,0.04c-0.15-0.21-0.39-0.26-0.6-0.39c-0.16-0.1-0.29-0.24-0.44-0.36c-0.05-0.04-0.09-0.1-0.14-0.12
		c-0.34-0.14-0.63-0.39-1.01-0.47c-0.06-0.01-0.14-0.03-0.17-0.08c-0.15-0.2-0.38-0.2-0.59-0.27c-0.31-0.11-0.6-0.26-0.9-0.39
		c-0.2-0.09-0.39-0.15-0.61-0.14c-0.13,0.01-0.27-0.05-0.4-0.08c-0.22-0.06-0.45-0.13-0.67-0.21c-0.08-0.03-0.13-0.11-0.2-0.17
		c1.04,0.14,2.08,0.3,3.01,0.83c0.06,0.03,0.12,0.07,0.18,0.07c0.34-0.01,0.59,0.23,0.88,0.34
		C149.56,115.84,149.6,115.85,149.62,115.87z M146.05,112.8c0.27-0.02,0.52,0.03,0.76,0.13c0,0.03-0.01,0.06-0.01,0.09
		c-0.05,0.01-0.1,0.03-0.14,0.02c-0.2-0.05-0.4-0.1-0.6-0.16C146.06,112.88,146.06,112.84,146.05,112.8z M144.87,112.55
		c-0.13,0.08-0.13,0.08-0.2-0.05C144.74,112.51,144.8,112.53,144.87,112.55z M144.64,113.43c0.32,0.03,0.64,0.04,0.95,0.12
		c0.8,0.2,1.59,0.43,2.37,0.67c0.23,0.07,0.44,0.24,0.67,0.38c-0.25,0.05-0.79-0.04-1-0.13c-0.25-0.11-0.5-0.24-0.77-0.29
		c-0.59-0.13-1.18-0.28-1.79-0.33c-0.67-0.05-1.33-0.16-2-0.21c-0.4-0.03-0.81,0.01-1.21,0.03c-0.6,0.03-1.17,0.21-1.75,0.34
		c-0.76,0.17-1.48,0.48-2.23,0.67c-0.05,0.01-0.1,0.03-0.15,0.05c-0.41,0.18-0.82,0.36-1.22,0.55c-0.11,0.05-0.21,0.11-0.33,0.17
		c0.04,0.11,0.07,0.17,0.1,0.25c-0.26,0.27-0.66,0.17-0.96,0.46c0.01-0.15,0.02-0.21,0.03-0.34c-0.08,0.01-0.17,0.01-0.25,0.02
		c0-0.1-0.01-0.14,0-0.16c0.04-0.04,0.09-0.09,0.15-0.12c0.49-0.21,0.98-0.41,1.47-0.62c0.09-0.04,0.17-0.1,0.25-0.14
		c0.23-0.13,0.46-0.26,0.69-0.4c0.35-0.22,0.73-0.35,1.14-0.37c0.09-0.01,0.19-0.04,0.27-0.08c0.5-0.27,1.04-0.37,1.6-0.42
		c0.68-0.06,1.35-0.15,2.03-0.21c0.16-0.02,0.32,0,0.47,0.01C143.64,113.36,144.14,113.39,144.64,113.43z M141.51,111.46
		c0.06-0.01,0.13-0.03,0.19-0.04c0.01,0.03,0.01,0.06,0.02,0.09c-0.06,0.01-0.13,0.02-0.19,0.03
		C141.52,111.52,141.51,111.49,141.51,111.46z M142.05,112.41c0.28,0.02,0.53-0.01,0.79-0.06c0.26-0.05,0.53-0.04,0.79-0.03
		c0.06,0,0.12,0.06,0.18,0.09c0,0.03-0.01,0.06-0.01,0.09c-0.12,0.03-0.24,0.08-0.36,0.08c-0.27,0-0.54,0.06-0.79,0.04
		c-0.29-0.02-0.55,0.03-0.82,0.1c-0.2,0.05-0.42,0.03-0.63,0.05c-0.83,0.07-1.59,0.36-2.34,0.71c-0.4,0.19-0.81,0.38-1.2,0.59
		c-0.61,0.33-1.21,0.68-1.8,1.04c-0.18,0.11-0.37,0.18-0.61,0.24c0.02-0.21,0.15-0.3,0.26-0.39c0.06-0.05,0.13-0.08,0.2-0.1
		c0.55-0.21,0.95-0.63,1.36-1.04c0.13-0.13,0.32-0.21,0.47-0.33c0.51-0.39,1.1-0.54,1.71-0.67c0.44-0.09,0.87-0.24,1.31-0.3
		C141.05,112.43,141.55,112.37,142.05,112.41z M140.82,111.63c-0.15,0.15-0.31,0.18-0.55,0.11
		C140.46,111.57,140.62,111.52,140.82,111.63z M139.84,111.71c0.1-0.01,0.21,0,0.37,0c-0.16,0.23-0.32,0.34-0.55,0.35
		c-0.12,0.01-0.22,0.04-0.32,0.12c-0.07,0.07-0.19,0.1-0.29,0.12c-0.5,0.1-0.96,0.26-1.38,0.55c-0.49,0.34-1,0.66-1.49,1
		c-0.18,0.12-0.33,0.27-0.5,0.4c-0.12,0.1-0.24,0.21-0.52,0.16c0.15-0.15,0.24-0.25,0.35-0.35c0.29-0.25,0.58-0.5,0.89-0.73
		c0.16-0.12,0.34-0.22,0.51-0.33c0.13-0.08,0.27-0.14,0.38-0.24c0.27-0.24,0.6-0.36,0.94-0.47c0.24-0.08,0.48-0.18,0.7-0.29
		C139.22,111.85,139.51,111.74,139.84,111.71z M139.22,111.04c-0.22,0.21-0.45,0.24-0.69,0.26
		C138.69,111.07,138.88,110.94,139.22,111.04z M137.81,110.53c0.1-0.04,0.2-0.08,0.29-0.12c-0.09,0.17-0.09,0.17-0.26,0.18
		C137.83,110.58,137.82,110.55,137.81,110.53z M138.06,111.54c-0.13,0.11-0.19,0.19-0.28,0.25c-0.37,0.25-0.76,0.48-1.12,0.74
		c-0.26,0.19-0.49,0.43-0.74,0.65c-0.11,0.1-0.23,0.19-0.36,0.25c-0.28,0.15-0.5,0.33-0.62,0.65c-0.1,0.28-0.3,0.48-0.61,0.6
		c-0.28,0.1-0.54,0.31-0.74,0.54c-0.29,0.33-0.64,0.55-0.99,0.79c-0.02,0.01-0.06,0-0.1-0.01c-0.05-0.13,0.03-0.2,0.12-0.26
		c0.58-0.37,1.04-0.86,1.49-1.38c0.33-0.39,0.68-0.76,1.02-1.14c0.08-0.09,0.18-0.11,0.29-0.08c0.13,0.04,0.22-0.01,0.32-0.09
		c0.36-0.31,0.73-0.61,1.1-0.91c0.08-0.07,0.17-0.12,0.26-0.18c0.17-0.11,0.34-0.22,0.51-0.33
		C137.72,111.55,137.83,111.47,138.06,111.54z M134.2,114.99c-0.05,0.03-0.09,0.07-0.14,0.1c-0.01-0.02-0.03-0.04-0.04-0.05
		c0.05-0.03,0.09-0.07,0.14-0.1C134.17,114.95,134.19,114.97,134.2,114.99z M134.5,109.99c-0.14,0.25-0.14,0.25-0.36,0.24
		C134.27,110.14,134.36,110.08,134.5,109.99z M134.52,111.28c0.28-0.26,0.57-0.51,0.87-0.75c0.09-0.07,0.21-0.1,0.32-0.15
		c0.01,0.02,0.03,0.04,0.04,0.06c-0.04,0.06-0.06,0.13-0.11,0.16c-0.24,0.18-0.49,0.34-0.72,0.52c-0.1,0.08-0.18,0.2-0.25,0.32
		c-0.14,0.23-0.32,0.4-0.63,0.53C134.17,111.67,134.33,111.46,134.52,111.28z M134.52,112.75c0.23-0.25,0.44-0.52,0.67-0.77
		c0.11-0.11,0.24-0.2,0.37-0.29c0.08-0.05,0.17-0.09,0.25-0.14c0.38-0.23,0.76-0.48,1.14-0.7c0.1-0.06,0.23-0.07,0.41-0.12
		c-0.08,0.26-0.22,0.37-0.4,0.4c-0.44,0.08-0.75,0.39-1.1,0.63c-0.22,0.15-0.41,0.34-0.61,0.51c-0.38,0.31-0.65,0.72-0.96,1.1
		c-0.16,0.2-0.34,0.38-0.49,0.58c-0.15,0.2-0.28,0.43-0.43,0.64c-0.07,0.1-0.13,0.19-0.2,0.29c-0.12,0.17-0.26,0.33-0.37,0.51
		c-0.17,0.27-0.43,0.29-0.66,0.06c-0.05-0.05-0.14-0.09-0.21-0.1c-0.17-0.01-0.25-0.1-0.28-0.25c-0.04-0.2-0.08-0.4-0.12-0.59
		c-0.03-0.14,0.02-0.16,0.28-0.14c-0.02,0.34,0.22,0.54,0.54,0.52c0.48-0.02,0.69-0.37,0.95-0.68c0.29-0.34,0.54-0.72,0.82-1.06
		C134.22,112.99,134.39,112.89,134.52,112.75z M131.34,115.24c0.08,0.11,0.17,0.23,0.2,0.35c0.04,0.13-0.04,0.24-0.18,0.32
		c-0.08-0.06-0.16-0.11-0.23-0.17c-0.2-0.16-0.18-0.39,0.05-0.5C131.24,115.22,131.32,115.22,131.34,115.24z M129.66,112.1
		c0-0.06-0.01-0.12-0.01-0.18c0.04,0,0.07,0,0.11,0c-0.01,0.06-0.01,0.12-0.02,0.17C129.71,112.11,129.69,112.1,129.66,112.1z
		 M129.96,112.48c-0.02-0.16,0.02-0.2,0.29-0.26c0.02,0.06,0.04,0.1,0.05,0.14c0.01,0.12,0,0.25,0.01,0.37
		C130.08,112.75,129.99,112.68,129.96,112.48z M133.87,112.18c-0.23,0.47-0.48,0.87-0.71,1.29c-0.24,0.42-0.55,0.75-0.85,1.1
		c-0.03-0.02-0.06-0.04-0.09-0.06c0.03-0.07,0.04-0.16,0.08-0.22c0.37-0.6,0.74-1.19,1.11-1.79
		C133.5,112.35,133.6,112.21,133.87,112.18z M132.96,112.04c-0.07,0.15-0.14,0.31-0.24,0.45c-0.14,0.22-0.25,0.44-0.3,0.7
		c-0.02,0.09-0.06,0.18-0.1,0.27c-0.07,0.15-0.15,0.3-0.21,0.46c-0.04,0.12-0.09,0.21-0.23,0.25c-0.08-0.1-0.03-0.19,0.02-0.26
		c0.25-0.45,0.38-0.94,0.49-1.44c0.04-0.18,0.16-0.34,0.27-0.49c0.05-0.07,0.17-0.09,0.3-0.16
		C132.96,111.92,132.98,111.99,132.96,112.04z M130.87,110.91c-0.07,0.15-0.15,0.3-0.25,0.5c-0.05-0.06-0.1-0.09-0.1-0.13
		c0.02-0.31,0.11-0.6,0.32-0.87C130.98,110.59,130.95,110.75,130.87,110.91z M131.7,112.04c0.04-0.15,0.13-0.26,0.27-0.32
		c0.03,0.01,0.05,0.02,0.08,0.04c-0.02,0.12-0.01,0.26-0.07,0.35c-0.15,0.22-0.21,0.46-0.26,0.71c-0.03,0.18-0.04,0.18-0.24,0.23
		c-0.05-0.21,0.05-0.39,0.09-0.58C131.59,112.31,131.66,112.18,131.7,112.04z M132.37,110.92c-0.01,0.23-0.01,0.23-0.26,0.52
		c-0.12-0.05-0.19-0.13-0.15-0.27C132.01,111.02,132.19,110.91,132.37,110.92z M131.65,110.45c0.08,0.03,0.17,0.17,0.15,0.24
		c-0.05,0.25-0.18,0.47-0.37,0.68c-0.08-0.01-0.18,0.01-0.23-0.03c-0.04-0.04-0.03-0.15,0-0.22c0.07-0.17,0.16-0.34,0.24-0.51
		C131.5,110.51,131.55,110.41,131.65,110.45z M130.81,110.04c0.04,0.07,0.03,0.16,0.04,0.24c-0.02,0.02-0.05,0.03-0.07,0.05
		c-0.07-0.06-0.16-0.1-0.21-0.18c-0.05-0.08-0.03-0.18,0.07-0.2C130.7,109.94,130.79,109.99,130.81,110.04z M129.82,109.71
		c0.14-0.14,0.34-0.13,0.54-0.05c-0.09,0.32-0.44,0.26-0.59,0.51C129.66,109.97,129.73,109.81,129.82,109.71z M130.05,110.91
		c0.03,0.16,0.06,0.3-0.13,0.35C129.8,111.07,129.8,111.07,130.05,110.91z M131.55,113.43c-0.04,0.16-0.09,0.29-0.09,0.42
		c0,0.13,0.04,0.25,0.07,0.39c-0.2-0.03-0.2-0.03-0.58-0.74C131.13,113.48,131.31,113.46,131.55,113.43z M128.91,109.95
		c-0.02-0.1,0.04-0.18,0.14-0.16c0.06,0.01,0.15,0.1,0.15,0.16c0,0.09-0.05,0.18-0.09,0.28c-0.04,0-0.07,0-0.11,0
		C128.97,110.14,128.92,110.05,128.91,109.95z M128.23,109.75c0.12,0.07,0.18,0.09,0.18,0.1c-0.01,0.04-0.04,0.08-0.06,0.12
		c-0.03-0.02-0.07-0.03-0.09-0.06C128.24,109.88,128.25,109.83,128.23,109.75z M128.87,110.97c0.22,0.06,0.41,0.11,0.62,0.16
		c-0.01,0.23-0.18,0.38-0.33,0.53c-0.03,0.03-0.18-0.02-0.24-0.08C128.73,111.42,128.73,111.22,128.87,110.97z M128.34,110.69
		c0.07,0.28,0.07,0.28-0.15,0.35C128.14,110.88,128.23,110.8,128.34,110.69z M128.58,112.35c0.02-0.02,0.09-0.01,0.17-0.01
		c-0.03,0.08-0.04,0.14-0.07,0.16c-0.03,0.02-0.09-0.01-0.13-0.01C128.55,112.43,128.55,112.37,128.58,112.35z M127.32,110.68
		c0.15-0.03,0.3-0.06,0.35,0.08c0.03,0.09,0.01,0.21-0.02,0.31c-0.01,0.06-0.08,0.1-0.13,0.16
		C127.34,110.95,127.33,110.93,127.32,110.68z M128.52,113.13c0.02,0,0.04,0,0.05,0c0.01,0.24,0.04,0.48,0.03,0.71
		c-0.01,0.25-0.04,0.51-0.06,0.76c-0.01,0.07-0.03,0.15-0.07,0.21c-0.02,0.03-0.09,0.06-0.14,0.05c-0.04-0.01-0.08-0.06-0.1-0.1
		c-0.01-0.02-0.01-0.06-0.01-0.09C128.32,114.16,128.42,113.64,128.52,113.13z M127.89,112.41c0.08,0.15,0.15,0.23,0.16,0.32
		c0.05,0.37,0.08,0.74,0.1,1.11c0.01,0.23-0.05,0.28-0.31,0.33c-0.02-0.09-0.07-0.18-0.06-0.27
		C127.86,113.44,127.69,112.95,127.89,112.41z M127.08,112.67c0.07,0.14,0.14,0.24,0.18,0.36c0.02,0.04-0.01,0.14-0.05,0.15
		c-0.04,0.02-0.12-0.01-0.16-0.05C126.89,112.98,126.89,112.85,127.08,112.67z M128.72,117.96c-0.01-0.25-0.08-0.5-0.12-0.75
		c-0.03-0.25-0.05-0.51-0.06-0.76c-0.01-0.17,0.01-0.34,0.03-0.51c0.01-0.09,0.03-0.19,0.07-0.28c0.33-0.7,0.61-1.42,0.81-2.17
		c0.02-0.08,0.07-0.15,0.15-0.31c0.09,0.13,0.17,0.2,0.19,0.28c0.09,0.37,0.34,0.66,0.54,0.97c0.2,0.32,0.32,0.63,0.23,1.02
		c-0.08,0.36-0.17,0.7-0.37,1.01c-0.12,0.19-0.25,0.3-0.51,0.41c0.01-0.47,0.41-0.81,0.37-1.29c-0.05,0.1-0.09,0.2-0.15,0.3
		c-0.3,0.53-0.55,1.08-0.72,1.67c-0.05,0.17-0.04,0.36-0.06,0.54c-0.02,0.17,0.02,0.36-0.16,0.51
		C128.82,118.38,128.73,118.2,128.72,117.96z M129.1,118.91c0.55-0.79,1.32-1.29,2.17-1.7c0.35-0.17,0.71-0.31,1.04-0.49
		c0.2-0.11,0.37-0.29,0.55-0.43c0.42-0.33,0.83-0.66,1.25-0.99c0.09-0.07,0.2-0.09,0.36-0.16c0,0.35-0.03,0.59-0.19,0.84
		c-0.18,0.29-0.3,0.61-0.42,0.93c-0.18,0.48-0.56,0.77-0.97,1.02c-0.44,0.27-0.91,0.46-1.39,0.64c-0.29,0.11-0.62,0.17-0.83,0.43
		c0.05,0.36-0.03,0.67-0.29,0.93c-0.09,0.09-0.13,0.24-0.17,0.37c-0.06,0.18-0.1,0.37-0.13,0.56c-0.04,0.22-0.18,0.32-0.37,0.39
		c-0.38,0.14-0.76,0.29-1.08,0.55c-0.08,0.06-0.2,0.1-0.29,0.09c-0.25-0.03-0.51-0.09-0.75-0.16c-0.08-0.02-0.18-0.11-0.19-0.18
		c-0.02-0.13,0.09-0.21,0.21-0.24c0.11-0.03,0.23-0.03,0.35-0.06c0.16-0.04,0.32-0.1,0.5-0.15c-0.04-0.12-0.1-0.21-0.08-0.28
		c0.03-0.08,0.12-0.14,0.2-0.2c0.22-0.16,0.3-0.33,0.25-0.63C128.76,119.62,128.86,119.25,129.1,118.91z M130.48,123.84
		c-0.03-0.07-0.05-0.14-0.08-0.23c0.2-0.02,0.26,0.09,0.3,0.19c0.11,0.25,0.29,0.41,0.56,0.47c0.05,0.01,0.08,0.05,0.16,0.11
		c-0.16,0.13-0.3,0.25-0.46,0.38c-0.06-0.06-0.13-0.11-0.13-0.15C130.82,124.3,130.58,124.1,130.48,123.84z M126.91,117.62
		c-0.01-0.01,0.02-0.14,0.04-0.15c0.07-0.01,0.15,0.01,0.26,0.02c-0.04,0.1-0.07,0.19-0.09,0.19
		C127.05,117.69,126.97,117.66,126.91,117.62z M126.43,114.95c-0.07,0.34-0.04,0.41,0.26,0.55c0.07,0.03,0.16,0.09,0.18,0.16
		c0.03,0.12-0.08,0.16-0.17,0.19c-0.15,0.05-0.19,0.17-0.18,0.31c0.01,0.13,0.09,0.2,0.22,0.23c0.1,0.03,0.2,0.09,0.29,0.14
		c-0.01,0.04-0.01,0.07-0.02,0.11c-0.08,0.01-0.18,0.06-0.23,0.02c-0.22-0.14-0.49-0.21-0.63-0.47c-0.11-0.2-0.25-0.37-0.38-0.55
		c-0.03-0.04-0.09-0.06-0.2-0.12c0.03,0.12,0.04,0.18,0.06,0.23c0.1,0.18,0.2,0.35,0.3,0.53c0.18,0.3,0.37,0.59,0.53,0.9
		c0.11,0.22,0.18,0.46,0.22,0.7c0.03,0.22,0.08,0.39,0.33,0.44c0.06,0.01,0.11,0.11,0.16,0.17c-0.06,0.04-0.13,0.09-0.19,0.13
		c-0.06,0.04-0.12,0.07-0.18,0.1c0.04,0.07,0.08,0.14,0.13,0.19c0.06,0.05,0.17,0.07,0.22,0.13c0.04,0.05,0.03,0.15,0.04,0.22
		c-0.08,0.01-0.19,0.05-0.22,0.02c-0.27-0.3-0.63-0.49-0.79-0.91c-0.19-0.5-0.45-0.97-0.79-1.39c-0.37-0.46-0.53-1.02-0.71-1.56
		c-0.1-0.3,0.08-0.58,0.25-0.83c0.03-0.04,0.13-0.06,0.2-0.05c0.1,0.01,0.21,0.05,0.31,0.09c0.16,0.07,0.33,0.08,0.5,0.03
		c0.09-0.02,0.19-0.03,0.28-0.01C126.42,114.66,126.47,114.75,126.43,114.95z M122.84,108.28c-0.05,0.1-0.16,0.1-0.24,0.03
		c-0.07-0.06-0.12-0.15-0.18-0.22c0.02-0.03,0.04-0.07,0.06-0.1c0.1,0.02,0.22,0.03,0.3,0.08
		C122.82,108.1,122.86,108.22,122.84,108.28z M124.53,111.81c-0.3-0.06-0.42-0.16-0.52-0.49c0.22-0.1,0.33-0.09,0.46,0.04
		C124.61,111.48,124.62,111.6,124.53,111.81z M123.01,109.17c0.13-0.06,0.34,0.03,0.41,0.17c0.06,0.12,0,0.25-0.13,0.32
		c-0.15,0.07-0.31,0.01-0.4-0.16C122.83,109.37,122.89,109.23,123.01,109.17z M123.36,110.2c0.14-0.07,0.36-0.02,0.42,0.1
		c0.07,0.13-0.01,0.33-0.15,0.4c-0.13,0.06-0.23,0.03-0.31-0.12C123.21,110.4,123.23,110.27,123.36,110.2z M125.37,113.83
		c-0.01-0.06,0.02-0.17,0.07-0.2c0.09-0.06,0.22,0.01,0.28,0.13c0.05,0.11,0.03,0.2-0.06,0.24
		C125.55,114.05,125.41,113.98,125.37,113.83z M125.12,112.91c-0.11,0.1-0.29,0.01-0.38-0.17c-0.05-0.1-0.05-0.19,0.05-0.25
		c0.11-0.07,0.31,0.01,0.42,0.19C125.19,112.74,125.18,112.85,125.12,112.91z M119.86,106.04c0.01-0.1,0.1-0.2,0.19-0.28
		c0.3-0.27,0.66-0.34,1.04-0.3c0.21,0.02,0.38,0.13,0.5,0.31c0.12,0.17,0.08,0.3-0.11,0.32c-0.24,0.03-0.49,0.04-0.73,0
		c-0.33-0.05-0.41-0.03-0.63,0.34c0.46,0.01,0.87,0,1.27-0.13c0.07-0.02,0.14-0.06,0.21-0.06c0.08,0,0.19,0.03,0.21,0.08
		c0.03,0.06,0.01,0.18-0.04,0.23c-0.19,0.21-0.44,0.36-0.73,0.32c-0.33-0.04-0.65-0.11-0.97-0.18c-0.06-0.01-0.14-0.06-0.15-0.1
		C119.89,106.41,119.85,106.22,119.86,106.04z M120.48,108.76c-0.37-0.42-0.42-0.97-0.63-1.45c-0.05-0.11-0.05-0.23,0.08-0.31
		c0.13-0.07,0.25-0.03,0.35,0.06c0.05,0.05,0.07,0.13,0.12,0.18c0.1,0.1,0.19,0.2,0.31,0.26c0.18,0.09,0.37,0.16,0.56,0.22
		c0.43,0.14,0.68,0.46,0.88,0.84c0.1,0.18,0.16,0.37,0.27,0.54c0.2,0.33,0.3,0.68,0.35,1.05c0.01,0.09,0.05,0.19,0.07,0.28
		c0.08,0.33,0.02,0.4-0.32,0.37c0.13,0.3,0.35,0.54,0.56,0.77c0.08,0.09,0.17,0.11,0.29,0.1c0.35-0.05,0.58,0.12,0.75,0.42
		c0.18,0.34,0.4,0.65,0.6,0.98c0.1,0.16,0.19,0.33,0.28,0.5c0.01,0.03,0.03,0.06,0.03,0.09c-0.02,0.22-0.05,0.44-0.08,0.67
		c-0.36-0.02-0.37-0.33-0.57-0.48c-0.06,0.19,0.17,0.38-0.02,0.6c-0.07-0.04-0.18-0.07-0.24-0.13c-0.21-0.25-0.43-0.49-0.57-0.8
		c-0.27-0.59-0.73-1.05-1.12-1.55c-0.17-0.23-0.34-0.46-0.52-0.69c-0.34-0.44-0.65-0.9-0.9-1.39c-0.13-0.26-0.22-0.53-0.34-0.79
		C120.61,108.98,120.56,108.85,120.48,108.76z M122.55,113.61c0.26-0.12,0.4-0.09,0.51,0.12c0.08,0.15,0.01,0.25-0.16,0.24
		C122.72,113.96,122.63,113.88,122.55,113.61z M121.79,113.67c-0.06,0.02-0.11,0.07-0.16,0.07c-0.26-0.02-0.7-0.25-0.87-0.45
		C121.22,113.2,121.56,113.33,121.79,113.67z M121.43,114.94c-0.06-0.08-0.18-0.12-0.24-0.2c-0.06-0.07-0.11-0.16-0.1-0.24
		c0.01-0.13,0.13-0.12,0.23-0.11c0.12,0,0.23,0.01,0.35,0.03c0.27,0.04,0.55,0.08,0.82,0.11c0.34,0.04,0.58,0.26,0.84,0.44
		c0.24,0.16,0.43,0.38,0.66,0.55c0.22,0.17,0.37,0.38,0.5,0.62c0.09,0.17,0.2,0.33,0.3,0.49c0.07,0.11,0.15,0.22,0.04,0.35
		c-0.07,0.08-0.24,0.05-0.38-0.07c-0.22-0.18-0.43-0.38-0.66-0.55c-0.13-0.09-0.28-0.16-0.42-0.22c-0.04-0.02-0.11-0.03-0.15-0.01
		c-0.15,0.09-0.28,0.08-0.42-0.07c-0.02,0.03-0.03,0.06-0.05,0.09c0.15,0.28,0.29,0.56,0.44,0.84c0.16,0.29,0.33,0.57,0.51,0.84
		c0.09,0.14,0.21,0.27,0.33,0.38c0.05,0.05,0.15,0.06,0.23,0.08c0.12,0.03,0.2,0.09,0.19,0.22c-0.01,0.12-0.1,0.15-0.21,0.15
		c-0.34-0.01-0.65-0.08-0.89-0.36c-0.26-0.31-0.54-0.6-0.8-0.91c-0.27-0.31-0.41-0.69-0.51-1.09
		C121.91,115.83,121.72,115.36,121.43,114.94z M123.59,117.17c-0.13-0.16-0.31-0.32-0.24-0.61c0.3,0.02,0.4,0.21,0.45,0.42
		c0.08,0.34,0.24,0.64,0.37,0.96c0.02,0.05,0.01,0.12,0.01,0.18c-0.02,0.01-0.05,0.01-0.07,0.02c-0.1-0.19-0.22-0.37-0.29-0.57
		C123.76,117.43,123.68,117.3,123.59,117.17z M120.42,114.5c-0.13,0.05-0.24,0.05-0.31-0.1C120.3,114.26,120.33,114.27,120.42,114.5
		z M119.89,115.08c0.1,0.04,0.2,0.05,0.27,0.1c0.22,0.16,0.44,0.33,0.64,0.51c0.03,0.03,0.02,0.15-0.01,0.19
		c-0.06,0.07-0.15,0.04-0.18-0.04c-0.09-0.27-0.33-0.34-0.54-0.45C119.92,115.3,119.92,115.31,119.89,115.08z M120.77,117.89
		c-0.13-0.24-0.12-0.5-0.07-0.75c0.04-0.19,0.2-0.24,0.33-0.1c0.16,0.18,0.32,0.38,0.41,0.6c0.12,0.28,0.3,0.47,0.58,0.6
		c1,0.44,2,0.89,3.01,1.34c0.11,0.05,0.25,0.06,0.37,0.07c0.18,0.01,0.33,0.07,0.47,0.18c0.27,0.24,0.56,0.46,0.82,0.71
		c0.12,0.11,0.21,0.27,0.29,0.41c0.07,0.13,0.02,0.28-0.1,0.36c-0.11,0.07-0.29,0.07-0.39-0.02c-0.11-0.11-0.22-0.23-0.33-0.35
		c-0.28-0.27-0.6-0.47-0.95-0.65c-0.03-0.01-0.06-0.03-0.09-0.04c-0.51-0.11-1.01-0.23-1.52-0.34c-0.02,0-0.04,0.02-0.11,0.06
		c0.13,0.12,0.24,0.2,0.33,0.31c0.08,0.11,0.11,0.27,0.21,0.35c0.17,0.14,0.37,0.24,0.56,0.36c0.05,0.03,0.13,0.05,0.16,0.1
		c0.24,0.38,0.67,0.47,1.03,0.59c0.46,0.16,0.97,0.27,1.48,0.18c0.09-0.02,0.2-0.03,0.29-0.01c0.1,0.03,0.2,0.08,0.27,0.15
		c0.13,0.13,0.12,0.22-0.03,0.32c-0.36,0.23-0.73,0.41-1.17,0.18c-0.09-0.05-0.21-0.05-0.31-0.09c-0.13-0.04-0.26-0.08-0.37-0.15
		c-0.16-0.1-0.31-0.16-0.51-0.16c-0.38,0-0.75-0.07-1.1-0.27c-0.64-0.36-1.21-0.8-1.75-1.28c-0.14-0.13-0.28-0.26-0.44-0.37
		c-0.26-0.18-0.44-0.42-0.58-0.71C121.32,118.95,121.04,118.42,120.77,117.89z M128.07,124.63c-0.22-0.15-0.23-0.4-0.32-0.6
		c-0.04-0.09-0.05-0.2,0.05-0.28C128.06,123.99,128.14,124.25,128.07,124.63z M128.25,125.44c-0.15-0.06-0.13-0.16-0.11-0.28
		C128.28,125.25,128.28,125.25,128.25,125.44z M122.72,121.1c0.15,0.16,0.08,0.3-0.14,0.32c-0.15,0.02-0.3,0.01-0.45,0.02
		c-0.1,0.01-0.21,0.02-0.33,0.03c0.03,0.12,0.06,0.2,0.08,0.29c-0.15,0.17-0.32,0.11-0.49,0.1c-0.15-0.01-0.31,0-0.47,0.03
		c0.16,0.14,0.34,0.22,0.54,0.23c0.45,0.03,0.89,0.04,1.34,0.06c0.23,0.01,0.46,0.01,0.76,0.02c-0.08,0.1-0.11,0.17-0.15,0.19
		c-0.71,0.42-1.45,0.67-2.28,0.41c-0.23-0.07-0.49-0.05-0.73-0.1c-0.25-0.05-0.5-0.11-0.74-0.19c-0.24-0.08-0.36-0.29-0.44-0.52
		c-0.06-0.18,0.04-0.35,0.24-0.38c0.39-0.05,0.73-0.23,1.07-0.4c0.1-0.05,0.22-0.09,0.34-0.09c0.28,0.01,0.52-0.1,0.75-0.24
		c0.11-0.06,0.23-0.1,0.36-0.13C122.29,120.71,122.52,120.89,122.72,121.1z M125.54,131.01c-0.14-0.19-0.3-0.39-0.11-0.67
		C125.71,130.53,125.56,130.78,125.54,131.01z M125.67,131.75c-0.17-0.19-0.25-0.36-0.18-0.64
		C125.75,131.3,125.72,131.5,125.67,131.75z M122.44,127.15c0.06-0.22,0.07-0.4,0.23-0.52C122.81,126.86,122.76,127,122.44,127.15z
		 M123.11,128.57c-0.1-0.17-0.08-0.3-0.02-0.43C123.25,128.27,123.2,128.4,123.11,128.57z M117.71,120.71
		c-0.13-0.11-0.22-0.28-0.32-0.41c-0.09-0.29-0.19-0.57-0.26-0.84c-0.02-0.08-0.02-0.17-0.01-0.26c0.02-0.2,0.11-0.27,0.3-0.19
		c0.23,0.1,0.48,0.2,0.67,0.36c0.34,0.29,0.74,0.36,1.15,0.41c0.53,0.07,1.06,0.14,1.58,0.22c0.11,0.02,0.23,0.07,0.33,0.13
		c0.17,0.1,0.16,0.25-0.02,0.34c-0.17,0.08-0.36,0.14-0.54,0.21c-0.36,0.14-0.7,0.35-1.07,0.4
		C118.89,121.16,118.24,121.17,117.71,120.71z M121.31,126.62c-0.01,0.23-0.01,0.23-0.23,0.22
		C121.1,126.71,121.13,126.59,121.31,126.62z M116.01,121.49c0.24-0.08,0.48-0.18,0.75-0.13c0.03,0.16-0.08,0.22-0.18,0.27
		c-0.25,0.11-0.51,0.21-0.77,0.31c-0.42,0.16-0.84,0.32-1.25,0.48c-0.06,0.02-0.14,0.05-0.16,0.1c-0.19,0.34-0.61,0.37-0.86,0.66
		c-0.07-0.13-0.12-0.23-0.19-0.36c0.44-0.29,0.86-0.57,1.29-0.84c0.2-0.13,0.41-0.2,0.65-0.24
		C115.53,121.69,115.77,121.57,116.01,121.49z M115.31,121c0.17-0.23,0.42-0.34,0.68-0.41c0.2-0.06,0.42-0.06,0.62-0.09
		c0.05-0.01,0.1,0,0.16,0.01c0,0.18-0.11,0.2-0.23,0.22c-0.29,0.06-0.58,0.11-0.87,0.19c-0.12,0.03-0.22,0.1-0.34,0.15
		C115.33,121.04,115.32,121.02,115.31,121z M116.98,122.37c-0.21,0.1-0.36,0.19-0.52,0.24c-0.57,0.16-1.07,0.47-1.54,0.81
		c-0.12,0.09-0.26,0.15-0.39,0.21c-0.05,0.02-0.15,0.01-0.17-0.02c-0.03-0.05-0.04-0.15-0.01-0.2c0.04-0.08,0.12-0.15,0.2-0.2
		c0.52-0.3,1.03-0.6,1.56-0.88c0.22-0.12,0.46-0.17,0.71-0.08C116.85,122.26,116.88,122.3,116.98,122.37z M115.08,121.14
		c-0.25,0.15-0.47,0.35-0.77,0.43c-0.2,0.06-0.39,0.17-0.58,0.26c-0.1,0.05-0.21,0.11-0.31,0.16c-0.05,0.02-0.11,0.03-0.14,0.06
		c-0.31,0.25-0.62,0.51-0.92,0.77c-0.08,0.07-0.16,0.13-0.25,0.19c-0.17-0.11-0.18-0.21-0.06-0.31c0.11-0.09,0.23-0.16,0.33-0.24
		c0.37-0.3,0.74-0.6,1.12-0.9c0.04-0.03,0.09-0.07,0.13-0.08c0.38-0.15,0.75-0.29,1.13-0.43c0.1-0.04,0.22-0.04,0.35-0.06
		C115.1,121.09,115.1,121.13,115.08,121.14z M113.85,123.97c-0.08,0.16-0.08,0.16-0.27,0.21
		C113.65,123.92,113.65,123.92,113.85,123.97z M114.11,124.44c0.25-0.19,0.51-0.38,0.78-0.55c0.4-0.26,0.81-0.52,1.22-0.75
		c0.18-0.1,0.39-0.17,0.6-0.21c0.22-0.05,0.43-0.08,0.63-0.21c0.13-0.09,0.3-0.18,0.54-0.17c-0.06,0.07-0.07,0.11-0.1,0.13
		c-0.45,0.28-0.9,0.57-1.35,0.85c-0.5,0.31-0.99,0.62-1.49,0.93c-0.06,0.04-0.12,0.09-0.19,0.11c-0.25,0.07-0.51,0.12-0.78,0.18
		C113.92,124.61,114.02,124.51,114.11,124.44z M116.17,119.94c0.22-0.22,0.29-0.24,0.5-0.13
		C116.53,119.97,116.37,119.98,116.17,119.94z M115.04,119.5c-0.41,0.17-0.84,0.27-1.27,0.39c-0.05,0.01-0.11-0.02-0.16-0.03
		c0-0.03,0-0.05-0.01-0.08c0.38-0.2,0.77-0.39,1.2-0.48c0.11-0.02,0.24-0.04,0.33-0.1c0.38-0.23,0.8-0.28,1.22-0.37
		c0.29-0.06,0.38,0.03,0.35,0.31c-0.01,0.06-0.03,0.12-0.04,0.16c-0.03,0.01-0.04,0.02-0.05,0.02
		C116.05,119.05,115.55,119.29,115.04,119.5z M121.96,126.69c-0.03,0.14-0.05,0.24-0.08,0.39c-0.06-0.07-0.12-0.11-0.12-0.15
		C121.75,126.82,121.77,126.72,121.96,126.69z M118.22,115.19c0.25-0.11,0.44-0.17,0.65,0.02c0.09,0.08,0.22,0.12,0.34,0.16
		c0.17,0.05,0.27,0.15,0.32,0.31c-0.01,0.03-0.02,0.06-0.03,0.06c-0.24,0.08-0.49,0.14-0.73,0.25c-0.07,0.03-0.19-0.02-0.34-0.04
		c0.11-0.14,0.19-0.22,0.26-0.31C118.64,115.38,118.35,115.4,118.22,115.19z M112.6,118.34c0.04-0.03,0.09-0.05,0.13-0.08
		c0.01,0.02,0.03,0.05,0.04,0.07c-0.05,0.02-0.1,0.04-0.15,0.06C112.62,118.39,112.6,118.34,112.6,118.34z M114.03,118.68
		c-0.4-0.11-0.84-0.22-1.21-0.52c0.16-0.33,0.23-0.69,0.53-0.93c0.02-0.01,0.05-0.03,0.05-0.04c-0.02-0.26,0.19-0.3,0.35-0.38
		c0.46-0.21,0.94-0.42,1.39-0.64c0.39-0.2,0.81-0.27,1.24-0.24c0.68,0.05,1.36,0.06,2.02,0.28c0.27,0.09,0.52,0.17,0.7,0.42
		c0.05,0.07,0.15,0.12,0.23,0.15c0.12,0.04,0.25,0.06,0.38,0.07c0.17,0.02,0.3,0.1,0.41,0.23c0.07,0.08,0.16,0.17,0.07,0.28
		c-0.08,0.1-0.2,0.11-0.32,0.06c-0.16-0.07-0.31-0.13-0.47-0.2c-0.06-0.02-0.12-0.03-0.2-0.05c-0.07,0.08-0.14,0.15-0.22,0.24
		c0.33,0.15,0.63,0.29,0.93,0.44c0.03,0.01,0.06,0.03,0.09,0.04c0.11,0.05,0.22,0.1,0.18,0.25c-0.03,0.11-0.21,0.17-0.36,0.1
		c-0.24-0.11-0.47-0.26-0.7-0.37c-0.35-0.17-0.69-0.26-1.06-0.04c-0.18,0.11-0.39,0.17-0.58,0.31c0.14,0.02,0.28,0.05,0.42,0.04
		c0.28,0,0.55-0.01,0.81,0.14c0.07,0.04,0.17,0.02,0.25,0.04c0.47,0.11,0.93,0.21,1.4,0.32c0.06,0.01,0.11,0.06,0.17,0.1
		c0,0.14-0.07,0.21-0.19,0.23c-0.07,0.01-0.15,0.03-0.22,0.01c-0.31-0.09-0.64-0.17-0.93-0.31c-0.34-0.17-0.67-0.31-1.06-0.27
		c-0.16,0.02-0.32-0.02-0.48-0.03c-0.07-0.01-0.16-0.03-0.22,0c-0.25,0.11-0.47,0.03-0.71-0.04c-0.08-0.02-0.17-0.02-0.24-0.01
		c-0.48,0.08-0.96,0.19-1.45,0.25c-0.36,0.04-0.68,0.18-0.98,0.36c-0.36,0.22-0.74,0.33-1.16,0.34
		C113.26,119.08,113.65,118.88,114.03,118.68z M114.29,120.36c0.1-0.06,0.22-0.09,0.33-0.12c0.27-0.08,0.55-0.14,0.83-0.21
		c0.01,0,0.02,0.01,0.1,0.07c-1.55,0.44-2.85,1.25-4.03,2.26c-0.02-0.02-0.03-0.03-0.05-0.05c0.02-0.05,0.02-0.11,0.06-0.15
		c0.42-0.43,0.89-0.79,1.4-1.11C113.37,120.78,113.85,120.62,114.29,120.36z M111.96,120.57c0.19-0.25,0.46-0.33,0.83-0.4
		c-0.32,0.34-0.63,0.58-0.95,0.79c-0.1,0.07-0.19,0.17-0.28,0.25c-0.06,0.05-0.13,0.12-0.2,0.15c-0.33,0.14-0.59,0.38-0.81,0.65
		c-0.15,0.18-0.18,0.2-0.46,0.26c-0.03-0.16,0.1-0.22,0.18-0.3c0.17-0.16,0.35-0.31,0.53-0.45c0.33-0.27,0.66-0.54,0.99-0.81
		C111.85,120.67,111.92,120.63,111.96,120.57z M111.08,122.65c-0.14,0.31-0.32,0.46-0.61,0.56
		C110.58,122.93,110.75,122.76,111.08,122.65z M109.39,121.63c0.33-0.33,0.66-0.66,1.01-0.97c0.23-0.2,0.48-0.38,0.72-0.57
		c0.09-0.07,0.19-0.12,0.35-0.04c-0.08,0.07-0.13,0.14-0.19,0.18c-0.5,0.29-0.87,0.74-1.29,1.12c-0.23,0.2-0.4,0.46-0.61,0.69
		c-0.07,0.07-0.15,0.13-0.28,0.24C109.1,121.96,109.24,121.78,109.39,121.63z M109.94,122.5c-0.22,0.43-0.53,0.77-0.78,0.89
		C109.14,123.12,109.5,122.69,109.94,122.5z M111.03,124.37c0.04,0.45-0.14,0.63-0.54,0.5
		C110.69,124.69,110.85,124.54,111.03,124.37z M108.67,122.84c-0.13,0.14-0.21,0.23-0.31,0.33
		C108.27,122.97,108.32,122.91,108.67,122.84z M109.34,126.68c-0.08,0.14-0.11,0.26-0.18,0.33c-0.12,0.11-0.18,0.23-0.19,0.39
		c-0.01,0.12-0.06,0.24-0.1,0.36c-0.07,0.19-0.14,0.38-0.22,0.56c-0.04,0.09-0.09,0.17-0.14,0.25c-0.02-0.01-0.05-0.02-0.07-0.04
		C108.35,128.01,108.87,126.87,109.34,126.68z M108.13,126.88c-0.05-0.41,0.13-0.78,0.48-0.94c-0.01,0.1,0,0.18-0.03,0.25
		c-0.1,0.22-0.21,0.43-0.33,0.64C108.23,126.87,108.17,126.87,108.13,126.88z M109.72,127.66c0.1-0.2,0.23-0.37,0.36-0.55
		c0.02-0.03,0.07-0.03,0.18-0.06c-0.3,0.62-0.51,1.22-0.92,1.72C109.35,128.35,109.55,128.01,109.72,127.66z M109.43,126.24
		c-0.02-0.33,0.14-0.49,0.48-0.49C109.93,126.08,109.75,126.26,109.43,126.24z M108.85,123.81c-0.25,0.47-0.48,0.92-0.8,1.33
		c-0.11,0.14-0.15,0.33-0.24,0.48c-0.11,0.19-0.16,0.42-0.42,0.48C107.4,125.56,108.43,123.95,108.85,123.81z M107.89,127.33
		c0.02,0.01,0.04,0.03,0.06,0.04c-0.03,0.05-0.05,0.09-0.09,0.16C107.75,127.41,107.82,127.37,107.89,127.33z M109.06,129.53
		c-0.04,0.11-0.06,0.16-0.1,0.26C108.85,129.65,108.89,129.6,109.06,129.53z M106.8,127.41c0.01-0.03,0.06-0.04,0.13-0.02
		c-0.03,0.06-0.06,0.12-0.09,0.18c-0.02-0.01-0.04-0.01-0.06-0.02C106.79,127.5,106.78,127.45,106.8,127.41z M107.45,128.38
		c0.03-0.03,0.11-0.06,0.13-0.04c0.04,0.04,0.08,0.11,0.07,0.15c-0.03,0.14-0.13,0.2-0.28,0.26
		C107.29,128.58,107.35,128.47,107.45,128.38z M108.1,129.41c0.15,0.24,0.13,0.32-0.19,0.59
		C107.94,129.79,107.89,129.56,108.1,129.41z M107.08,129.85c0.08,0.15,0.09,0.3,0.09,0.45c0,0.04-0.07,0.08-0.11,0.13
		C106.85,130.17,106.85,130.06,107.08,129.85z M107.66,130.8c0.22,0.38,0.18,0.63-0.15,0.9C107.36,131.34,107.58,131.1,107.66,130.8
		z M107.53,132.05c0.08,0.33,0.1,0.63-0.1,0.96C107.28,132.63,107.3,132.43,107.53,132.05z M107.31,134.46
		c-0.02-0.12-0.02-0.25-0.02-0.38c0-0.22,0.06-0.24,0.31-0.13c-0.03,0.11-0.06,0.22-0.09,0.33c-0.02,0.11-0.04,0.22-0.12,0.35
		C107.37,134.58,107.32,134.52,107.31,134.46z M108,134.7c-0.04,0.06-0.06,0.1-0.1,0.12c-0.01,0.01-0.07-0.02-0.07-0.03
		c0-0.05,0.02-0.09,0.03-0.13C107.9,134.66,107.93,134.67,108,134.7z M108.27,136.83c0.03-0.09,0.07-0.17,0.13-0.29
		c0.17,0.22,0.18,0.42,0.1,0.65C108.2,137.08,108.18,137.05,108.27,136.83z M108.42,137.86c-0.02-0.08,0.02-0.18,0.05-0.27
		c0.01-0.02,0.12-0.03,0.13-0.01c0.05,0.08,0.12,0.18,0.1,0.25c-0.1,0.31,0.09,0.58,0.12,0.86c0.02,0.2,0.03,0.22-0.14,0.36
		C108.59,138.64,108.5,138.25,108.42,137.86z M108.74,139.75c0.09-0.06,0.17-0.04,0.19,0.06c0.01,0.03-0.05,0.11-0.07,0.11
		C108.75,139.92,108.73,139.84,108.74,139.75z M109.11,141.3c0.13-0.03,0.25-0.06,0.37-0.1c0.01,0.02,0.02,0.04,0.03,0.05
		c-0.09,0.12-0.17,0.25-0.3,0.43C109.17,141.54,109.14,141.44,109.11,141.3z M110.92,144.12c0.04,0.02,0.09,0.02,0.11,0.05
		c0.01,0.02-0.01,0.07-0.02,0.13c-0.05-0.04-0.1-0.05-0.11-0.08C110.89,144.2,110.91,144.15,110.92,144.12z M112.07,146.38
		c0.28,0.17,0.3,0.2,0.29,0.48C112.13,146.81,112.08,146.73,112.07,146.38z M111.42,145.22c0.26,0.06,0.4,0.28,0.46,0.71
		C111.55,145.81,111.42,145.6,111.42,145.22z M112.41,147.08c-0.01-0.01,0.02-0.05,0.03-0.1c0.04,0.04,0.08,0.06,0.09,0.09
		c0.01,0.02-0.03,0.06-0.04,0.09C112.46,147.14,112.43,147.12,112.41,147.08z M113.95,149.76c-0.06-0.03-0.12-0.04-0.12-0.06
		c-0.01-0.04,0.01-0.08,0.02-0.13c0.03,0.02,0.08,0.03,0.1,0.06C113.97,149.65,113.95,149.7,113.95,149.76z M111.35,145.05
		c-0.24-0.08-0.22-0.29-0.28-0.5C111.41,144.55,111.47,144.67,111.35,145.05z M110.4,141.97c0.15,0.49,0.28,0.98,0.41,1.47
		c0.01,0.04-0.01,0.1-0.02,0.2c-0.24-0.17-0.23-0.39-0.31-0.57c-0.1-0.2-0.16-0.41-0.25-0.62c-0.11-0.23-0.11-0.47-0.09-0.72
		C110.3,141.76,110.37,141.87,110.4,141.97z M109.95,140.84c-0.13,0.04-0.19-0.06-0.24-0.16c-0.02-0.04-0.02-0.08-0.03-0.12
		c-0.12-0.61-0.25-1.21-0.36-1.82c-0.05-0.29-0.07-0.59-0.11-0.89c-0.02-0.11-0.06-0.22-0.09-0.33c-0.02-0.08-0.04-0.16-0.03-0.24
		c0.04-0.48,0.09-0.95,0.13-1.43c0.02-0.3-0.04-0.39-0.34-0.52c-0.08-0.04-0.16-0.1-0.26-0.17c-0.13,0.17-0.19,0.32-0.13,0.51
		c0.05,0.16,0.03,0.33-0.17,0.49c-0.01-0.22-0.02-0.4-0.02-0.57c-0.01-0.1,0.02-0.23-0.03-0.3c-0.13-0.19-0.16-0.39-0.14-0.61
		c0-0.04-0.01-0.08-0.02-0.13c-0.06-0.02-0.12-0.05-0.18-0.07c-0.03-0.14-0.03-0.28,0.11-0.37c0.2-0.13,0.25-0.31,0.25-0.55
		c0.01-0.5,0.07-0.99,0.12-1.49c0.05-0.46,0.09-0.93,0.17-1.38c0.04-0.23,0.13-0.46,0.21-0.69c0.02-0.05,0.08-0.08,0.15-0.15
		c0.12,0.22-0.05,0.34-0.1,0.48c0.12,0.38,0.12,0.6-0.23,1.01c0.03,0.5,0.06,1-0.07,1.49c-0.05,0.2-0.07,0.38-0.03,0.59
		c0.05,0.25,0.01,0.52,0.01,0.78c0.04,0.03,0.07,0.06,0.1,0.06c0.36,0.01,0.36,0.01,0.39,0.4c0,0.05,0.02,0.1,0.03,0.16
		c0,0.02,0.03,0.03,0.08,0.1c0.03-0.36,0.08-0.68,0.07-1c-0.02-0.48,0.03-0.95,0.12-1.43c0.04-0.19,0.01-0.4-0.03-0.6
		c-0.09-0.41-0.04-0.81,0.06-1.2c0.1-0.43,0.24-0.86,0.38-1.29c0.06-0.17,0.16-0.32,0.24-0.49c0.13-0.28,0.26-0.56,0.38-0.84
		c0.01-0.02,0.01-0.04,0.02-0.06c0.38-0.6,0.61-1.3,1.09-1.84c0.07-0.08,0.15-0.15,0.24-0.21c0.14-0.08,0.24-0.17,0.26-0.34
		c0.01-0.05,0.04-0.1,0.07-0.14c0.21-0.21,0.41-0.43,0.54-0.71c0.02-0.04,0.12-0.05,0.18-0.07c0.02,0.06,0.07,0.13,0.06,0.19
		c-0.02,0.19-0.07,0.37-0.1,0.53c-0.05,0-0.14-0.03-0.2,0.01c-0.25,0.13-0.5,0.27-0.56,0.59c-0.02,0.1-0.07,0.2-0.12,0.29
		c-0.18,0.35-0.37,0.7-0.56,1.04c-0.22,0.41-0.45,0.82-0.68,1.23c-0.03,0.06-0.08,0.11-0.1,0.16c-0.22,0.75-0.44,1.49-0.64,2.24
		c-0.11,0.39-0.13,0.8-0.32,1.17c-0.03,0.05-0.03,0.13-0.01,0.19c0.09,0.21,0.04,0.42,0.01,0.63c-0.01,0.07-0.02,0.15-0.02,0.22
		c0.02,0.44,0.05,0.87,0.07,1.3c0,0.04,0.01,0.09,0.01,0.13c0,0.67,0,1.34,0,2.02c0,0.2,0.03,0.4,0.05,0.6
		c0.03,0.36,0.05,0.72,0.08,1.08c0.01,0.14,0.04,0.27,0.06,0.41c0.02,0.13,0.05,0.25,0.05,0.38c0,0.19,0,0.38,0.12,0.55
		c0.04,0.05,0.05,0.15,0.03,0.21c-0.07,0.24-0.02,0.46,0.04,0.69C110.06,140.7,110.07,140.8,109.95,140.84z M113.24,125.81
		c-0.02,0.27-0.02,0.27-0.25,0.2C113.07,125.95,113.14,125.9,113.24,125.81z M114.87,149.27c-0.29-0.11-0.34-0.2-0.28-0.59
		C114.63,148.9,114.96,148.98,114.87,149.27z M113.06,145.86c-0.16-0.16-0.22-0.28-0.19-0.46
		C113.1,145.47,113.08,145.63,113.06,145.86z M111.78,142.76c0.01,0.04,0.01,0.08,0.01,0.13c-0.03,0-0.06,0-0.09,0.01
		c-0.07-0.11-0.15-0.22-0.2-0.34c-0.35-0.76-0.49-1.58-0.63-2.4c-0.08-0.47-0.12-0.96-0.26-1.41c-0.09-0.27-0.11-0.53-0.13-0.81
		c-0.04-0.57-0.12-1.15-0.18-1.72c-0.01-0.05,0.01-0.11-0.01-0.16c-0.23-0.55-0.06-1.12-0.09-1.68c-0.03-0.47-0.03-0.94-0.03-1.41
		c0-0.39-0.01-0.79,0.05-1.18c0.08-0.53,0.16-1.06,0.34-1.56c0.23-0.63,0.37-1.29,0.75-1.87c0.15-0.23,0.23-0.51,0.34-0.76
		c0.12-0.26,0.3-0.45,0.51-0.65c0.16,0.37,0.1,0.69-0.08,1.04c-0.27,0.53-0.45,1.1-0.68,1.65c-0.19,0.45-0.25,0.96-0.43,1.4
		c-0.28,0.67-0.14,1.35-0.26,2.01c-0.16,0.84,0.03,1.68,0,2.52c-0.01,0.3,0.08,0.61,0.11,0.91c0.05,0.45,0.07,0.91,0.13,1.36
		c0.09,0.73,0.23,1.45,0.3,2.18c0.07,0.67,0.28,1.31,0.4,1.97C111.68,142.27,111.68,142.52,111.78,142.76z M113.75,145.18
		c-0.27-0.14-0.07-0.37-0.19-0.56C113.76,144.76,113.82,144.96,113.75,145.18z M113.51,144.41c-0.05-0.02-0.13-0.02-0.15-0.06
		c-0.02-0.04,0.01-0.11,0.02-0.16c0.05,0.01,0.09,0.02,0.15,0.03C113.53,144.3,113.52,144.35,113.51,144.41z M118.12,149.11
		c-0.05-0.03-0.12-0.04-0.14-0.08c-0.02-0.04,0.01-0.11,0.01-0.2c0.08,0.04,0.18,0.06,0.18,0.09
		C118.18,148.98,118.14,149.05,118.12,149.11z M118.24,147.87c-0.06-0.08-0.12-0.16-0.2-0.26
		C118.3,147.56,118.25,147.73,118.24,147.87z M117.69,144.24c-0.02-0.07-0.04-0.14-0.08-0.27
		C117.76,144.1,117.76,144.1,117.69,144.24z M117.65,143.88c-0.02-0.01-0.07-0.03-0.07-0.04c0-0.04,0.02-0.07,0.04-0.1
		c0.02,0.01,0.05,0.02,0.09,0.05C117.68,143.81,117.67,143.85,117.65,143.88z M117.59,143.51c-0.33-0.15-0.35-0.18-0.18-0.41
		C117.63,143.28,117.63,143.28,117.59,143.51z M120.12,147.81c-0.09-0.16-0.09-0.16-0.07-0.63
		C120.29,147.37,120.3,147.51,120.12,147.81z M116.94,141.46c-0.03,0.01-0.07,0.03-0.1,0.04c-0.01-0.06-0.02-0.12-0.03-0.18
		c0,0,0.05-0.02,0.05-0.01C116.89,141.36,116.91,141.41,116.94,141.46z M116.26,140.01c-0.01-0.08-0.02-0.17-0.06-0.25
		c-0.2-0.37-0.18-0.79-0.26-1.18c-0.03-0.12,0.01-0.26,0.02-0.39c0.03,0,0.06,0,0.09,0c0.14,0.26,0.27,0.51,0.3,0.82
		c0.06,0.53,0.19,1.05,0.29,1.57c0.01,0.07,0.02,0.14,0.02,0.22C116.47,140.56,116.29,140.32,116.26,140.01z M119.9,146.88
		c-0.16-0.13-0.29-0.22-0.19-0.43C119.89,146.53,119.96,146.65,119.9,146.88z M119.38,145.48c-0.03,0.01-0.08,0.02-0.08,0.02
		c-0.07-0.15-0.22-0.28-0.18-0.49C119.37,145.09,119.19,145.38,119.38,145.48z M118.62,143.99c0.01-0.04,0.11-0.09,0.14-0.08
		c0.14,0.07,0.1,0.19,0.05,0.32C118.63,144.21,118.57,144.12,118.62,143.99z M123.4,152.71c-0.04-0.01-0.09-0.03-0.12-0.06
		c0,0,0.02-0.05,0.04-0.09c0.05,0.03,0.09,0.06,0.13,0.08C123.43,152.67,123.4,152.71,123.4,152.71z M118.3,142.4
		c0.06,0.34,0.31,0.63,0.28,1.07c-0.22-0.16-0.36-0.26-0.4-0.47c-0.03-0.16-0.1-0.33-0.18-0.47c-0.09-0.15-0.19-0.28-0.13-0.47
		c0.02-0.06-0.04-0.14-0.04-0.22c-0.01-0.13,0-0.26,0.01-0.44c0.08,0.05,0.14,0.07,0.15,0.1C118.09,141.8,118.24,142.1,118.3,142.4z
		 M117.86,141.28c0,0.03-0.02,0.06-0.03,0.09c-0.21-0.15-0.41-0.58-0.35-0.8c0.01-0.05,0.07-0.09,0.11-0.14
		c0.04,0.04,0.11,0.07,0.12,0.11C117.77,140.78,117.81,141.03,117.86,141.28z M122.34,147.78c0.04,0.04,0.04,0.14,0.03,0.2
		c0,0.02-0.1,0.06-0.13,0.05c-0.05-0.03-0.11-0.09-0.13-0.15c-0.05-0.12-0.09-0.25-0.12-0.38c-0.03-0.1-0.07-0.21,0.07-0.29
		c0.03,0.04,0.08,0.08,0.08,0.12C122.16,147.5,122.21,147.66,122.34,147.78z M121.1,144.48c-0.23-0.04-0.24-0.16-0.16-0.31
		C120.98,144.26,121.03,144.35,121.1,144.48z M122.59,146.25c-0.06-0.07-0.15-0.14-0.18-0.22c-0.09-0.25-0.16-0.5-0.23-0.75
		c-0.01-0.04,0.01-0.1,0.02-0.18c0.08,0.04,0.14,0.06,0.17,0.1C122.48,145.33,122.65,145.98,122.59,146.25z M127.12,153.51
		c-0.03-0.02-0.03-0.1-0.04-0.16c0.08,0,0.15,0.01,0.24,0.01C127.29,153.53,127.22,153.58,127.12,153.51z M123.44,145.51
		c-0.15-0.17-0.15-0.17-0.05-0.33C123.41,145.3,123.42,145.38,123.44,145.51z M124.63,145.63c-0.01,0.05-0.07,0.11-0.12,0.12
		c-0.11,0.01-0.14-0.11-0.09-0.33C124.62,145.46,124.67,145.5,124.63,145.63z M125.45,145.21c-0.18-0.22-0.19-0.43-0.21-0.64
		C125.4,144.72,125.52,144.89,125.45,145.21z M125.2,144.41c-0.14-0.19-0.24-0.33-0.16-0.54c0.06,0.03,0.13,0.04,0.14,0.07
		C125.25,144.07,125.22,144.21,125.2,144.41z M126.89,146.22c-0.09-0.08-0.17-0.12-0.2-0.18c-0.03-0.06,0-0.15,0-0.22
		c0.07,0.02,0.16,0.01,0.22,0.05C127.01,145.94,127,145.97,126.89,146.22z M128.04,146.73c-0.02,0-0.05-0.02-0.1-0.04
		c0.02-0.03,0.04-0.07,0.05-0.07c0.03,0,0.06,0.02,0.09,0.05C128.08,146.67,128.05,146.73,128.04,146.73z M129.57,148.14
		c-0.01,0.02-0.06,0-0.12,0.01c0.04-0.08,0.06-0.12,0.08-0.14c0.01-0.01,0.07,0.02,0.07,0.03
		C129.6,148.08,129.59,148.12,129.57,148.14z M129.19,147.04c-0.07-0.16-0.11-0.27-0.16-0.37
		C129.24,146.71,129.26,146.75,129.19,147.04z M128.82,145.69c-0.08-0.08-0.21-0.13-0.14-0.29
		C128.87,145.44,128.78,145.6,128.82,145.69z M128.55,144.86c-0.13-0.08-0.15-0.17-0.1-0.31
		C128.61,144.62,128.69,144.7,128.55,144.86z M128.38,144.35c-0.15-0.16-0.15-0.16-0.05-0.34
		C128.45,144.16,128.45,144.16,128.38,144.35z M126.44,140.6c0.05,0.2,0.09,0.39,0.15,0.59c0.05,0.18,0.13,0.36,0.17,0.55
		c0.04,0.2,0.07,0.4,0.09,0.6c0,0.04-0.04,0.09-0.07,0.16c-0.06-0.06-0.12-0.1-0.14-0.15c-0.18-0.44-0.38-0.88-0.54-1.33
		c-0.2-0.58-0.38-1.18-0.55-1.77c-0.05-0.17-0.13-0.2-0.29-0.18c-0.09,0.28-0.17,0.54-0.06,0.86c0.15,0.43,0.2,0.89,0.33,1.34
		c0.15,0.54,0.34,1.07,0.5,1.61c0.04,0.15,0.05,0.3,0.08,0.52c-0.29-0.17-0.43-0.35-0.48-0.6c-0.05-0.27-0.16-0.51-0.36-0.7
		c-0.19-0.2-0.24-0.44-0.25-0.71c-0.02-0.45-0.22-0.84-0.34-1.27c-0.13,0.13-0.23,0.23-0.33,0.34c-0.15,0.15-0.17,0.24-0.08,0.43
		c0.2,0.4,0.26,0.83,0.35,1.25c0.01,0.06,0.03,0.12,0.05,0.19c0.11,0.43,0.22,0.86,0.31,1.29c-0.31-0.29-0.42-0.69-0.6-1.05
		c-0.18-0.37-0.29-0.77-0.43-1.13c-0.14,0.12-0.29,0.25-0.48,0.41c0,0,0,0,0,0c0.24,0.55,0.22,1.16,0.43,1.72
		c0.09,0.24,0.17,0.48,0.24,0.73c0.03,0.11,0.03,0.24,0.05,0.38c-0.19-0.01-0.2-0.13-0.24-0.23c-0.16-0.38-0.32-0.76-0.56-1.11
		c-0.12-0.17-0.11-0.42-0.17-0.64c-0.08-0.3-0.17-0.59-0.27-0.88c-0.02-0.05-0.09-0.09-0.15-0.11c-0.13-0.04-0.27-0.05-0.47-0.09
		c0.09,0.3,0.16,0.55,0.23,0.8c0.06,0.21,0.12,0.43,0.18,0.64c0.06,0.2,0.13,0.4,0.2,0.6c0.01,0.03,0.03,0.06,0.04,0.09
		c0.07,0.35,0.14,0.71,0.21,1.06c0,0.02-0.02,0.04-0.06,0.09c-0.07-0.09-0.15-0.16-0.19-0.25c-0.21-0.47-0.48-0.9-0.6-1.41
		c-0.06-0.24-0.22-0.46-0.33-0.69c-0.05-0.1-0.1-0.21-0.13-0.32c-0.03-0.11-0.03-0.23-0.05-0.35c-0.03-0.27-0.12-0.49-0.4-0.59
		c-0.11-0.04-0.21-0.11-0.35-0.18c0.01,0.1,0,0.17,0.02,0.23c0.05,0.23,0.11,0.45,0.17,0.68c0.01,0.05,0.02,0.11,0.05,0.15
		c0.35,0.6,0.42,1.29,0.64,1.92c0.06,0.16,0.12,0.32,0.2,0.47c0.08,0.15,0.09,0.28-0.04,0.44c-0.2-0.18-0.34-0.39-0.42-0.63
		c-0.09-0.26-0.19-0.52-0.29-0.77c-0.1-0.25-0.24-0.5-0.33-0.76c-0.24-0.67-0.48-1.35-0.71-2.02c-0.11-0.32-0.23-0.61-0.45-0.87
		c-0.18-0.2-0.28-0.46-0.42-0.68c0,0-0.02,0.02-0.02,0.03c0.11,0.43,0.21,0.87,0.33,1.3c0.17,0.59,0.34,1.18,0.53,1.77
		c0.14,0.44,0.29,0.87,0.43,1.3c0.04,0.12,0.05,0.24,0.08,0.42c-0.28-0.17-0.33-0.41-0.42-0.61c-0.22-0.52-0.39-1.05-0.59-1.58
		c-0.14-0.38-0.32-0.75-0.45-1.13c-0.21-0.61-0.39-1.22-0.58-1.83c-0.16-0.52-0.31-1.04-0.47-1.56c-0.18-0.56-0.34-1.12-0.4-1.71
		c0-0.03-0.02-0.06-0.08-0.08c0.01,0.3-0.01,0.6,0.04,0.88c0.08,0.5,0.21,1,0.31,1.5c0.1,0.49,0.15,0.99,0.27,1.48
		c0.14,0.6,0.32,1.19,0.49,1.78c0.14,0.49,0.28,0.98,0.43,1.47c0.11,0.36,0.22,0.71,0.33,1.07c0.02,0.06,0.02,0.13,0.04,0.26
		c-0.21-0.14-0.27-0.32-0.34-0.47c-0.26-0.56-0.55-1.11-0.74-1.7c-0.21-0.67-0.53-1.31-0.58-2.02c0-0.02-0.01-0.04-0.02-0.06
		c-0.13-0.43-0.26-0.85-0.38-1.29c-0.06-0.24-0.11-0.48-0.15-0.72c-0.08-0.52-0.16-1.03-0.23-1.55c-0.04-0.3-0.04-0.59-0.06-0.89
		c-0.01-0.1-0.01-0.21-0.02-0.35c-0.18,0.04-0.33,0.07-0.49,0.11c-0.01,0.09-0.02,0.15-0.01,0.21c0.07,0.74,0.08,1.48,0.23,2.22
		c0.13,0.65,0.31,1.3,0.41,1.96c0.02,0.1,0,0.2,0,0.35c-0.26-0.13-0.38-0.27-0.42-0.52c-0.05-0.34-0.06-0.71-0.26-1.01
		c-0.03-0.04-0.04-0.1-0.04-0.15c-0.03-0.27-0.06-0.55-0.1-0.82c-0.08-0.63-0.15-1.27-0.23-1.9c0-0.03-0.02-0.06-0.04-0.11
		c-0.14,0.07-0.28,0.14-0.43,0.22c0.02,0.41,0.03,0.82,0.06,1.23c0.01,0.23,0.04,0.47,0.07,0.7c0.02,0.16,0.02,0.32-0.08,0.48
		c-0.23-0.11-0.23-0.33-0.25-0.51c-0.05-0.56-0.08-1.13-0.11-1.69c0-0.02-0.02-0.04-0.03-0.08c-0.17,0.03-0.34,0.05-0.52,0.08
		c-0.09,0.22-0.09,0.43-0.05,0.66c0.06,0.29,0.03,0.6,0.07,0.89c0.11,0.82,0.19,1.65,0.44,2.45c0.2,0.66,0.31,1.35,0.53,2
		c0.17,0.51,0.3,1.02,0.44,1.54c0.03,0.11,0.1,0.21,0.15,0.32c0.03,0.07,0.08,0.13,0.1,0.2c0.14,0.41,0.27,0.82,0.4,1.23
		c0.03,0.09,0.05,0.18,0.1,0.32c-0.08-0.04-0.15-0.04-0.16-0.07c-0.15-0.35-0.39-0.66-0.44-1.06c0-0.04-0.02-0.09-0.05-0.12
		c-0.24-0.22-0.25-0.53-0.37-0.8c-0.05-0.12-0.12-0.22-0.18-0.34c-0.04-0.06-0.1-0.13-0.11-0.19c-0.03-0.3-0.19-0.54-0.31-0.8
		c0-0.01-0.01-0.02-0.01-0.03c-0.24-0.85-0.61-1.65-0.75-2.53c-0.1-0.64-0.28-1.27-0.44-1.89c-0.04-0.17-0.15-0.32-0.1-0.51
		c0.03-0.13-0.02-0.16-0.27-0.14c0.02,0.35,0.05,0.7,0.07,1.05c0.03,0.59,0.17,1.16,0.33,1.72c0.17,0.62,0.25,1.25,0.41,1.87
		c0.16,0.63,0.36,1.25,0.58,1.86c0.18,0.53,0.41,1.05,0.61,1.58c0.04,0.11,0.13,0.23,0.01,0.37c-0.21,0-0.27-0.17-0.33-0.32
		c-0.23-0.56-0.46-1.12-0.68-1.69c-0.18-0.48-0.42-0.93-0.55-1.43c-0.1-0.4-0.27-0.79-0.39-1.19c-0.2-0.67-0.42-1.34-0.51-2.04
		c-0.04-0.3-0.12-0.6-0.19-0.92c-0.16,0.08-0.29,0.14-0.45,0.21c0.07,0.4,0.14,0.8,0.21,1.21c0.03,0.18,0.08,0.35,0.11,0.53
		c0.05,0.24,0.09,0.48,0.15,0.72c0.05,0.24,0.09,0.48,0.17,0.71c0.27,0.78,0.37,1.63,0.79,2.36c0.07,0.13,0.12,0.27,0.17,0.41
		c0.13,0.34,0.24,0.68,0.37,1.02c0.08,0.22,0.17,0.43,0.25,0.65c0.02,0.05-0.02,0.11-0.04,0.25c-0.16-0.23-0.29-0.39-0.39-0.57
		c-0.2-0.36-0.39-0.73-0.58-1.1c-0.06-0.12-0.08-0.26-0.13-0.39c-0.05-0.16-0.09-0.34-0.18-0.48c-0.14-0.22-0.18-0.48-0.25-0.72
		c-0.17-0.59-0.38-1.17-0.56-1.76c-0.09-0.29-0.17-0.59-0.25-0.89c-0.06-0.21-0.13-0.43-0.18-0.64c-0.05-0.26-0.07-0.53-0.1-0.79
		c-0.03-0.2-0.06-0.4-0.08-0.6c-0.04-0.39-0.21-0.71-0.56-0.92c0.02,0.4,0.04,0.81,0.07,1.21c0.04,0.51,0.02,1.02,0.15,1.53
		c0.12,0.43,0.2,0.87,0.32,1.3c0.19,0.72,0.4,1.44,0.6,2.15c0,0.02-0.02,0.04-0.03,0.08c-0.14,0-0.18-0.1-0.23-0.21
		c-0.22-0.47-0.45-0.94-0.67-1.41c-0.02-0.05-0.02-0.1-0.03-0.15c-0.01-0.17,0-0.34-0.04-0.5c-0.23-0.88-0.44-1.75-0.49-2.66
		c-0.02-0.43-0.14-0.86-0.21-1.29c-0.02-0.11-0.06-0.21-0.05-0.32c0.02-0.3-0.09-0.57-0.2-0.83c-0.08-0.19-0.19-0.38,0.08-0.52
		c0.03-0.22,0.1-0.44,0.08-0.65c-0.03-0.47-0.04-0.94,0.04-1.4c0.01-0.05,0.01-0.11,0-0.16c-0.12-0.58,0.07-1.14,0.13-1.71
		c0.07-0.66,0.3-1.28,0.47-1.92c0.04-0.16,0.12-0.32,0.2-0.47c0.34-0.6,0.55-1.28,0.99-1.83c0.33-0.41,0.67-0.8,1.09-1.11
		c0.37-0.27,0.7-0.57,0.78-1.05c0.01-0.05,0.04-0.1,0.08-0.14c0.25-0.2,0.5-0.4,0.75-0.59c0.05-0.04,0.12-0.07,0.18-0.07
		c0.38,0.01,0.69-0.21,1.02-0.33c0.11-0.04,0.23-0.06,0.34-0.1c0.25-0.09,0.46-0.22,0.57-0.46c0.21-0.01,0.41-0.02,0.66-0.03
		c-0.14,0.24-0.32,0.34-0.52,0.42c-0.14,0.05-0.27,0.13-0.39,0.2c-0.1,0.06-0.19,0.15-0.3,0.18c-0.41,0.13-0.72,0.42-1.07,0.63
		c-0.3,0.18-0.51,0.46-0.76,0.73c0.15,0.09,0.25,0.09,0.37-0.01c0.43-0.34,0.86-0.66,1.3-0.99c0.05-0.04,0.11-0.06,0.17-0.09
		c0.34-0.12,0.68-0.24,1.04-0.37c-0.04,0.05-0.08,0.11-0.12,0.15c-0.5,0.41-1.01,0.82-1.51,1.23c-0.1,0.08-0.18,0.2-0.27,0.3
		c0,0.04,0,0.07,0,0.11c0.05-0.01,0.11-0.01,0.16-0.02c0.33-0.11,0.68-0.18,0.95-0.44c0.25-0.24,0.51-0.49,0.89-0.62
		c-0.17,0.48-0.73,0.65-0.85,1.21c0.58-0.42,1.06-0.86,1.67-1.22c-0.09,0.25-0.24,0.37-0.38,0.5c-0.24,0.24-0.48,0.48-0.71,0.74
		c-0.08,0.08-0.16,0.2-0.05,0.31c0.09,0.09,0.24,0.04,0.35-0.09c0.16-0.19,0.33-0.37,0.5-0.57c0.06,0.15,0.05,0.14-0.15,0.39
		c-0.09,0.11-0.16,0.25-0.24,0.37c0.32,0.3,0.59,0.28,0.83-0.04c0.06-0.09,0.15-0.16,0.23-0.24c0.11,0.13,0.03,0.21,0,0.3
		c-0.03,0.08-0.06,0.15-0.08,0.22c0.15,0.15,0.21-0.06,0.29-0.05c0.07,0.11,0.1,0.26,0.18,0.28c0.16,0.05,0.19-0.12,0.25-0.23
		c0.03-0.05,0.09-0.08,0.14-0.13c0.04,0.05,0.09,0.08,0.09,0.11c0.01,0.19-0.03,0.38,0.16,0.52c0.02,0.01,0,0.08-0.01,0.12
		c-0.07,0.24,0,0.45,0.16,0.62c0.09,0.09,0.11,0.17,0.08,0.28c-0.04,0.13-0.04,0.29-0.11,0.4c-0.23,0.34-0.19,0.75-0.29,1.12
		c-0.11,0.38-0.16,0.77-0.23,1.16c-0.02,0.08-0.04,0.17,0.11,0.23c0.05-0.11,0.1-0.22,0.14-0.33c0.06-0.18,0.12-0.37,0.15-0.56
		c0.09-0.59,0.34-1.12,0.58-1.65c0.03-0.07,0.06-0.14,0.07-0.21c0.04-0.19,0.16-0.24,0.35-0.19c-0.03,0.42-0.15,0.82-0.25,1.22
		c-0.02,0.08-0.06,0.16-0.07,0.25c-0.06,0.52-0.13,1.04-0.18,1.56c-0.01,0.06,0.02,0.12,0.04,0.18c0.02,0,0.05,0,0.07,0
		c0.05-0.18,0.1-0.36,0.15-0.54c0.05-0.19,0.12-0.37,0.14-0.56c0.05-0.39,0.14-0.76,0.36-1.08c0.2-0.3,0.14-0.64,0.17-0.96
		c0.01-0.06-0.09-0.13-0.14-0.19c0.04-0.18,0.09-0.35,0.14-0.55c0.07-0.01,0.15-0.02,0.23-0.04c0.08,0.24,0.15,0.46,0.23,0.71
		c-0.14,0.22-0.22,0.49-0.21,0.81c0.01,0.15-0.1,0.3-0.11,0.46c-0.05,0.43-0.08,0.87-0.1,1.31c-0.02,0.48-0.02,0.96-0.03,1.44
		c0,0.12,0.03,0.24,0.05,0.37c0.02,0,0.05,0,0.07,0c0.03-0.16,0.06-0.31,0.09-0.47c0.03-0.16,0.07-0.31,0.07-0.47
		c0.01-0.83,0.18-1.63,0.38-2.43c0.03-0.13,0.06-0.25,0.24-0.26c0.14,0.13,0.12,0.31,0.1,0.47c-0.03,0.3-0.09,0.59-0.11,0.89
		c-0.02,0.24-0.05,0.5-0.01,0.73c0.12,0.77,0.09,1.55,0.13,2.33c0.01,0.2,0,0.4,0,0.61c0,0.2,0.03,0.22,0.29,0.22
		c0.01-0.07,0.02-0.14,0.02-0.21c-0.04-0.75-0.08-1.49-0.12-2.24c0-0.06,0-0.13,0.01-0.19c0.04-0.39,0.08-0.79,0.11-1.18
		c0.02-0.32,0.19-0.57,0.34-0.87c0.18,0.18,0.18,0.38,0.17,0.55c-0.06,0.71,0.02,1.41,0.06,2.11c0.02,0.37,0.09,0.74,0.12,1.11
		c0.03,0.38,0.02,0.77,0.05,1.15c0.04,0.45,0.11,0.89,0.17,1.33c0.01,0.09,0.06,0.18,0.11,0.26c0.1,0.16,0.2,0.32,0.34,0.47
		c-0.04-0.22-0.08-0.44-0.11-0.66c-0.07-0.57-0.13-1.14-0.19-1.71c-0.01-0.07-0.01-0.15-0.03-0.22c-0.14-0.47-0.11-0.95-0.11-1.43
		c0-0.17,0-0.34-0.03-0.51c-0.04-0.24-0.04-0.47,0.08-0.69c0.03-0.05,0.05-0.13,0.04-0.19c-0.04-0.33,0.06-0.63,0.21-0.94
		c0.04,0.22,0.08,0.43,0.11,0.65c0.04,0.36,0.07,0.72,0.11,1.08c0.06,0.51,0.14,1.01,0.21,1.52c0.16,1.15,0.26,2.31,0.49,3.45
		c0.09,0.45,0.2,0.89,0.32,1.33c0.12,0.42,0.13,0.86,0.21,1.29C126.23,139.73,126.34,140.17,126.44,140.6z M130.13,146.91
		c-0.24-0.21-0.24-0.23-0.13-0.44C130.21,146.63,130.23,146.67,130.13,146.91z M127.89,142.45c-0.04-0.05-0.1-0.1-0.13-0.16
		c-0.09-0.24-0.18-0.48-0.26-0.72c-0.15-0.48-0.29-0.96-0.43-1.44c-0.15-0.54-0.28-1.09-0.42-1.64c-0.03-0.13-0.06-0.27-0.1-0.4
		c-0.26-0.88-0.52-1.76-0.7-2.66c-0.04-0.18-0.04-0.36-0.06-0.54c-0.02-0.19-0.04-0.38-0.06-0.57c-0.03-0.25-0.06-0.51-0.08-0.76
		c-0.04-0.49-0.07-0.98-0.1-1.46c-0.01-0.1,0.04-0.2,0.06-0.29c0.03,0,0.07,0,0.1,0c0.05,0.14,0.11,0.27,0.14,0.41
		c0.06,0.25,0.11,0.5,0.16,0.75c0.15,0.75,0.3,1.5,0.45,2.25c0.08,0.38,0.19,0.75,0.24,1.13c0.11,0.84,0.3,1.65,0.53,2.46
		c0.17,0.58,0.28,1.18,0.41,1.77c0.11,0.52,0.2,1.04,0.29,1.56C127.96,142.23,127.95,142.33,127.89,142.45z M129.4,144.35
		c-0.3-0.19-0.38-0.53-0.24-1C129.31,143.68,129.36,144,129.4,144.35z M129.15,142.46c0.08,0.2,0.05,0.55-0.1,0.82
		c-0.06-0.09-0.14-0.15-0.16-0.24c-0.07-0.24-0.13-0.49-0.19-0.74c-0.05-0.2-0.09-0.39-0.13-0.59c-0.07-0.32-0.13-0.65-0.19-0.97
		c-0.09-0.45-0.19-0.89-0.28-1.34c-0.11-0.51-0.22-1.02-0.34-1.52c-0.03-0.13-0.08-0.26-0.12-0.4c-0.15-0.47-0.29-0.93-0.44-1.4
		c-0.03-0.1-0.08-0.2-0.11-0.26c-0.12-0.11-0.29,0.06-0.34-0.1c-0.05-0.19,0.16-0.16,0.27-0.25c-0.01-0.12,0.01-0.26-0.04-0.36
		c-0.25-0.53-0.31-1.11-0.42-1.67c-0.12-0.62-0.22-1.24-0.32-1.86c-0.06-0.35-0.13-0.69-0.15-1.04c-0.03-0.38-0.01-0.76-0.01-1.14
		c0-0.05,0.02-0.1,0.04-0.14c0.03,0,0.06-0.01,0.09-0.01c0.06,0.2,0.13,0.4,0.19,0.6c0.07,0.21,0.15,0.42,0.2,0.64
		c0.12,0.57,0.21,1.15,0.32,1.73c0.06,0.29,0.13,0.58,0.21,0.87c0.1,0.38,0.22,0.76,0.32,1.14c0.23,0.89,0.42,1.78,0.54,2.69
		c0.06,0.47,0.21,0.93,0.31,1.4c0.05,0.22,0.07,0.45,0.1,0.68c0.08,0.44,0.15,0.88,0.25,1.32c0.13,0.63,0.28,1.27,0.43,1.9
		C129.09,142.3,129.12,142.38,129.15,142.46z M130.26,143.45c-0.22-0.12-0.23-0.16-0.14-0.42
		C130.28,143.16,130.29,143.29,130.26,143.45z M131.42,143.22c0.05,0.27,0.07,0.54,0.12,0.82c0.02,0.14,0.08,0.26,0.12,0.4
		c0.05,0.16,0.11,0.33-0.06,0.5c-0.05-0.06-0.11-0.11-0.13-0.17c-0.21-0.63-0.35-1.7-0.26-2.02
		C131.35,142.88,131.39,143.05,131.42,143.22z M132.02,142.41c-0.05-0.13-0.08-0.19-0.11-0.26
		C132.04,142.22,132.04,142.22,132.02,142.41z M135.9,148.73c-0.04,0-0.07-0.01-0.11-0.01c0-0.06,0.01-0.12,0.01-0.17
		c0.03,0,0.06,0,0.09,0C135.89,148.61,135.89,148.67,135.9,148.73z M134.27,142.24c0.01,0.02-0.05,0.05-0.12,0.14
		c-0.01-0.4-0.29-0.7-0.1-1.06C134.28,141.59,134.18,141.94,134.27,142.24z M135.29,142.47c-0.1-0.07-0.17-0.1-0.18-0.14
		c-0.07-0.34-0.14-0.67-0.04-1.09C135.26,141.66,135.32,142.03,135.29,142.47z M136.22,142.44c-0.17-0.09-0.19-0.22-0.21-0.36
		c-0.02-0.18-0.05-0.35-0.07-0.53c-0.01-0.1,0.02-0.19,0.03-0.33C136.18,141.46,136.32,142.19,136.22,142.44z M135.93,140.68
		c-0.22-0.15-0.25-0.29-0.09-0.59C136.01,140.29,136.01,140.48,135.93,140.68z M137.39,142.39c-0.16-0.13-0.12-0.28-0.07-0.44
		C137.4,142.08,137.56,142.21,137.39,142.39z M136.96,140.48c-0.04-0.17-0.13-0.32-0.1-0.5
		C137.02,140.18,137.03,140.27,136.96,140.48z M138.3,140.79c-0.31-0.13-0.37-0.3-0.14-0.55
		C138.32,140.42,138.28,140.61,138.3,140.79z M139.26,140.12c-0.23-0.18-0.23-0.19-0.06-0.4
		C139.32,139.86,139.4,139.97,139.26,140.12z M140.31,139.02c0.05,0.3,0.09,0.61,0.16,0.91c0.03,0.16,0.11,0.32,0.14,0.49
		c0.02,0.07,0,0.15-0.07,0.24c-0.04-0.04-0.09-0.08-0.1-0.14c-0.14-0.46-0.27-0.91-0.39-1.37c-0.03-0.13-0.01-0.27-0.01-0.44
		C140.25,138.77,140.29,138.88,140.31,139.02z M139.94,137.67c-0.18,0.01-0.26-0.09-0.28-0.24c-0.04-0.21-0.06-0.42-0.11-0.63
		c-0.09-0.38-0.19-0.77-0.3-1.14c-0.04-0.13-0.13-0.24-0.18-0.37c-0.21-0.58-0.38-1.18-0.63-1.74c-0.38-0.86-0.6-1.78-1.07-2.6
		c-0.08-0.14-0.17-0.27-0.26-0.41c-0.14,0.27-0.16,0.59-0.07,0.83c0.2,0.49,0.4,0.99,0.61,1.48c0.03,0.07,0.05,0.14,0.07,0.21
		c0.09,0.33,0.19,0.65,0.33,0.97c0.16,0.38,0.25,0.79,0.35,1.19c0.07,0.3,0.11,0.61,0.17,0.91c0.01,0.07,0.05,0.14,0.07,0.21
		c0.03,0.14,0.06,0.29,0.09,0.43c0.03,0.17,0.06,0.33,0.1,0.5c0.03,0.1,0.07,0.2-0.05,0.28c-0.13-0.01-0.14-0.12-0.17-0.2
		c-0.14-0.41-0.28-0.83-0.41-1.24c-0.09-0.29-0.16-0.59-0.26-0.88c-0.24-0.71-0.49-1.41-0.75-2.11c-0.16-0.42-0.35-0.84-0.53-1.28
		c-0.33,0.33-0.15,0.64-0.04,0.94c0.04,0.11,0.11,0.21,0.17,0.31c0.08,0.13,0.16,0.25,0.11,0.42c-0.02,0.06,0.02,0.14,0.04,0.22
		c0.05,0.22,0.11,0.43,0.17,0.65c0.2,0.79,0.4,1.59,0.6,2.39c0.04,0.15,0.07,0.31,0.07,0.47c0.03,0.69,0.13,1.38,0.28,2.05
		c0.03,0.15,0.07,0.31,0.08,0.47c0.01,0.05-0.03,0.11-0.06,0.23c-0.07-0.09-0.13-0.14-0.14-0.2c-0.13-0.72-0.24-1.44-0.4-2.15
		c-0.13-0.58-0.35-1.14-0.49-1.72c-0.19-0.81-0.56-1.56-0.79-2.36c-0.07-0.25-0.2-0.49-0.32-0.76c-0.13,0.05-0.23,0.1-0.35,0.15
		c0.02,0.11,0.04,0.21,0.06,0.29c0.26,0.77,0.46,1.55,0.6,2.35c0.1,0.55,0.27,1.1,0.36,1.65c0.06,0.38,0.18,0.77,0.11,1.17
		c-0.01,0.07,0.01,0.14,0.02,0.22c0.02,0.17,0.04,0.34,0.07,0.5c0.02,0.12,0.04,0.25,0.09,0.37c0.06,0.13,0.04,0.24-0.05,0.37
		c-0.21-0.17-0.23-0.41-0.26-0.64c-0.04-0.28-0.09-0.56-0.15-0.84c-0.05-0.25-0.11-0.5-0.18-0.75c-0.13-0.52-0.27-1.03-0.39-1.55
		c-0.07-0.3-0.13-0.6-0.2-0.9c-0.03-0.13-0.09-0.26-0.13-0.39c-0.2-0.58-0.4-1.17-0.61-1.79c-0.12,0.06-0.22,0.12-0.34,0.18
		c0.2,0.79,0.42,1.57,0.6,2.35c0.15,0.63,0.31,1.26,0.41,1.91c0.12,0.72,0.13,1.44,0.23,2.16c0.01,0.07-0.01,0.14-0.01,0.29
		c-0.19-0.23-0.32-0.42-0.34-0.65c-0.05-0.63-0.25-1.23-0.37-1.85c-0.14-0.72-0.37-1.4-0.57-2.09c-0.14-0.5-0.29-1-0.44-1.49
		c-0.02-0.08-0.06-0.15-0.1-0.23c-0.26,0.1-0.24,0.1-0.23,0.33c0.02,0.4,0.18,0.77,0.28,1.15c0.09,0.36,0.17,0.73,0.26,1.09
		c0.18,0.74,0.31,1.48,0.35,2.24c0.01,0.2,0.07,0.4,0.11,0.59c0.04,0.25,0.08,0.5,0.11,0.76c0.01,0.06-0.04,0.13-0.08,0.24
		c-0.06-0.09-0.1-0.13-0.12-0.19c-0.15-0.59-0.29-1.18-0.44-1.77c-0.05-0.22-0.11-0.43-0.17-0.65c-0.06-0.22-0.13-0.43-0.19-0.64
		c-0.09-0.37-0.17-0.74-0.32-1.1c-0.19-0.46-0.33-0.94-0.5-1.45c-0.1,0.03-0.19,0.06-0.33,0.1c0.13,0.42,0.23,0.84,0.39,1.23
		c0.16,0.38,0.28,0.76,0.33,1.16c0.11,0.76,0.23,1.52,0.35,2.28c0.09,0.63,0.19,1.26,0.26,1.9c0.02,0.16-0.02,0.32-0.03,0.49
		c-0.23-0.2-0.28-0.48-0.33-0.76c-0.05-0.26-0.12-0.52-0.17-0.78c-0.03-0.16-0.06-0.31-0.09-0.47c-0.01-0.05,0-0.11-0.02-0.16
		c-0.15-0.38-0.21-0.78-0.31-1.17c-0.13-0.53-0.29-1.05-0.45-1.57c-0.19-0.61-0.37-1.22-0.57-1.83c-0.09-0.27-0.1-0.27-0.44-0.21
		c0.02,0.06,0.03,0.12,0.06,0.18c0.38,0.81,0.51,1.69,0.66,2.57c0.1,0.58,0.23,1.15,0.33,1.72c0.04,0.2,0.05,0.4,0.07,0.6
		c0.05,0.62,0.1,1.23,0.26,1.83c0.04,0.14,0.02,0.3,0.04,0.44c0.08,0.46,0.14,0.92,0.31,1.36c0.05,0.14,0.09,0.29-0.02,0.43
		c-0.17-0.03-0.17-0.18-0.2-0.3c-0.05-0.19-0.08-0.39-0.13-0.59c-0.1-0.38-0.27-0.75-0.32-1.13c-0.05-0.37-0.2-0.72-0.25-1.08
		c-0.09-0.65-0.2-1.31-0.38-1.94c-0.2-0.72-0.43-1.43-0.64-2.14c-0.13-0.43-0.23-0.86-0.36-1.29c-0.09-0.31-0.2-0.61-0.3-0.91
		c-0.06-0.18-0.18-0.28-0.38-0.36c0.08,0.31,0.15,0.6,0.24,0.89c0.2,0.65,0.43,1.29,0.62,1.95c0.09,0.3,0.12,0.62,0.18,0.94
		c0.03,0.2,0.05,0.4,0.08,0.6c0.03,0.22,0.06,0.44,0.09,0.67c0.04,0.35,0.03,0.7,0.13,1.05c0.08,0.29,0.07,0.61,0.11,0.92
		c0.03,0.23,0.06,0.46,0.08,0.7c0.01,0.09-0.01,0.17-0.02,0.26c-0.03,0.01-0.05,0.01-0.08,0.02c-0.05-0.09-0.11-0.17-0.13-0.26
		c-0.09-0.29-0.18-0.59-0.26-0.89c-0.06-0.26-0.1-0.52-0.15-0.78c-0.02-0.1-0.03-0.21-0.06-0.31c-0.21-0.78-0.43-1.56-0.64-2.35
		c-0.19-0.74-0.36-1.49-0.56-2.23c-0.13-0.46-0.33-0.9-0.48-1.35c-0.14-0.42-0.27-0.85-0.41-1.28c-0.13-0.41-0.25-0.82-0.36-1.23
		c-0.13-0.45-0.24-0.9-0.37-1.35c-0.04-0.14-0.06-0.29-0.25-0.37c-0.03,0.13,0.01,0.24,0.05,0.34c0.19,0.63,0.38,1.27,0.57,1.9
		c0.11,0.35,0.23,0.69,0.34,1.03c0.15,0.49,0.28,0.98,0.42,1.48c0.12,0.42,0.23,0.84,0.34,1.27c0.07,0.28,0.13,0.56,0.19,0.84
		c0.06,0.27,0.13,0.54,0.17,0.81c0.08,0.48,0.11,0.97,0.21,1.45c0.09,0.41,0.07,0.84,0.27,1.24c0.11,0.2,0.08,0.48,0.11,0.72
		c0.06,0.48,0.14,0.94,0.34,1.39c0.1,0.24,0.14,0.51,0.04,0.81c-0.07-0.05-0.14-0.07-0.15-0.12c-0.1-0.28-0.2-0.56-0.27-0.85
		c-0.11-0.41-0.2-0.83-0.29-1.24c-0.05-0.23-0.08-0.46-0.15-0.69c-0.32-1.14-0.63-2.28-0.97-3.41c-0.14-0.47-0.32-0.93-0.47-1.39
		c-0.17-0.54-0.32-1.08-0.48-1.62c-0.06-0.19-0.12-0.39-0.19-0.58c-0.27-0.72-0.3-1.48-0.47-2.22c-0.09-0.42-0.2-0.83-0.32-1.24
		c-0.02-0.07-0.08-0.12-0.13-0.19c-0.02,0.01-0.04,0.02-0.06,0.02c0,0.06-0.02,0.11,0,0.17c0.22,0.96,0.44,1.91,0.67,2.86
		c0.12,0.5,0.27,0.99,0.4,1.48c0.13,0.51,0.27,1.01,0.39,1.52c0.17,0.68,0.33,1.37,0.48,2.06c0.08,0.38,0.11,0.78,0.18,1.17
		c0.09,0.52,0.22,1.04,0.31,1.57c0.09,0.53,0.17,1.07,0.24,1.61c0.01,0.07,0,0.15,0.02,0.22c0.13,0.36,0.06,0.74,0.15,1.1
		c0,0.01-0.02,0.03-0.05,0.07c-0.13-0.08-0.13-0.22-0.14-0.32c-0.06-0.55-0.29-1.04-0.43-1.56c-0.14-0.52-0.29-1.04-0.43-1.57
		c-0.18-0.67-0.34-1.34-0.51-2.02c-0.03-0.12-0.03-0.25-0.06-0.38c-0.2-0.84-0.39-1.68-0.61-2.52c-0.08-0.33-0.23-0.64-0.32-0.97
		c-0.1-0.41-0.16-0.84-0.25-1.25c-0.09-0.42-0.18-0.83-0.27-1.25c-0.13-0.58-0.26-1.17-0.37-1.75c-0.07-0.37-0.14-0.48-0.45-0.54
		c-0.02,0.05-0.05,0.11-0.07,0.16c-0.02,0.05-0.02,0.1-0.04,0.21c-0.15-0.21-0.26-0.38-0.38-0.55c-0.11-0.17-0.21-0.36-0.46-0.39
		c0.01-0.03,0.03-0.06,0.04-0.09c0.15,0,0.3,0,0.47,0.01c0.02-0.11,0.04-0.22,0.07-0.39c0.08,0.11,0.12,0.16,0.15,0.22
		c0.04,0.08,0.06,0.2,0.12,0.26c0.06,0.05,0.18,0.08,0.25,0.06c0.05-0.01,0.1-0.13,0.1-0.2c-0.04-0.48-0.1-0.95-0.14-1.43
		c-0.02-0.16-0.01-0.32,0.02-0.47c0.03,0,0.06,0,0.08,0c0.22,0.78,0.45,1.55,0.67,2.33c0.01,0.02,0.06,0.02,0.09,0.04
		c0.09-0.12,0.04-0.22,0.01-0.34c-0.05-0.16-0.08-0.33-0.12-0.49c-0.06-0.3-0.08-0.62-0.18-0.91c-0.14-0.41-0.09-0.82-0.07-1.23
		c0-0.01,0.03-0.03,0.05-0.04c0.13,0,0.14,0.11,0.16,0.2c0.08,0.38,0.15,0.75,0.24,1.13c0.08,0.32,0.2,0.63,0.3,0.94
		c0.09,0.26,0.17,0.53,0.26,0.79c0.04,0.1,0.05,0.24,0.24,0.24c0-0.08,0-0.15-0.01-0.21c-0.06-0.23-0.15-0.45-0.2-0.67
		c-0.17-0.65-0.33-1.3-0.48-1.95c-0.01-0.05-0.03-0.11-0.01-0.16c0.07-0.21,0.06-0.42,0.01-0.63c-0.01-0.05,0.04-0.13,0.06-0.19
		c0.04,0.02,0.08,0.03,0.08,0.04c0.08,0.41,0.3,0.76,0.42,1.17c0.14,0.49,0.21,1.03,0.57,1.45c0.12,0.15,0.17,0.36,0.26,0.54
		c0.02,0.05,0.07,0.09,0.13,0.12c0.02-0.2-0.08-0.36-0.13-0.54c-0.12-0.44-0.24-0.88-0.35-1.33c-0.01-0.02-0.01-0.04-0.01-0.06
		c0.02-0.13-0.07-0.33,0.1-0.37c0.2-0.05,0.17,0.18,0.23,0.29c0.2,0.4,0.38,0.81,0.55,1.22c0.12,0.27,0.2,0.56,0.31,0.84
		c0.04,0.1,0.1,0.19,0.19,0.27c0-0.05,0.01-0.11-0.01-0.16c-0.17-0.54-0.39-1.06-0.52-1.61c-0.09-0.41-0.29-0.8-0.26-1.24
		c0.01-0.2-0.11-0.4-0.18-0.6c-0.05-0.14-0.08-0.29-0.03-0.44c0.18-0.02,0.25,0.08,0.23,0.22c-0.03,0.42,0.09,0.79,0.31,1.14
		c0.36,0.59,0.54,1.26,0.87,1.87c0.12,0.22,0.24,0.45,0.41,0.66c0.01-0.05,0.04-0.11,0.02-0.16c-0.03-0.12-0.08-0.24-0.13-0.36
		c-0.12-0.29-0.27-0.58-0.37-0.88c-0.18-0.54-0.35-1.09-0.5-1.65c-0.04-0.14-0.14-0.3,0.06-0.47c0.11,0.14,0.24,0.27,0.32,0.42
		c0.1,0.18,0.18,0.37,0.23,0.56c0.06,0.23,0.18,0.41,0.33,0.57c0.26,0.29,0.41,0.65,0.54,1.01c0.05,0.12,0.1,0.24,0.15,0.37
		c0.03-0.01,0.05-0.01,0.08-0.02c-0.01-0.1,0-0.2-0.03-0.28c-0.17-0.42-0.25-0.88-0.51-1.27c-0.1-0.15-0.13-0.34-0.19-0.51
		c-0.13-0.31-0.27-0.62-0.38-0.94c-0.07-0.19-0.1-0.4-0.16-0.65c0.22,0.13,0.35,0.27,0.42,0.47c0.05,0.16,0.15,0.3,0.25,0.43
		c0.15,0.2,0.24,0.45,0.36,0.68c0.18,0.37,0.38,0.74,0.66,1.06c0.2,0.23,0.31,0.53,0.47,0.79c0.09,0.14,0.19,0.27,0.32,0.39
		c-0.1-0.35-0.13-0.74-0.39-1.02c-0.39-0.42-0.61-0.95-0.87-1.45c-0.09-0.18-0.06-0.3,0.1-0.37c0.15-0.07,0.23-0.04,0.34,0.12
		c0.33,0.48,0.68,0.96,0.99,1.45c0.19,0.31,0.34,0.64,0.47,0.98c0.09,0.23,0.23,0.28,0.47,0.22c-0.02-0.07-0.04-0.13-0.07-0.19
		c-0.24-0.52-0.52-1-0.86-1.46c-0.05-0.07-0.07-0.15-0.11-0.23c-0.05-0.09-0.09-0.2-0.15-0.28c-0.08-0.11-0.21-0.18-0.28-0.3
		c-0.06-0.11-0.05-0.25-0.09-0.37c-0.04-0.13-0.08-0.26-0.14-0.43c0.25,0.03,0.39,0.14,0.48,0.31c0.15,0.29,0.32,0.55,0.54,0.79
		c0.11,0.12,0.15,0.31,0.24,0.45c0.22,0.35,0.47,0.69,0.69,1.04c0.13,0.2,0.23,0.41,0.35,0.61c0.06,0.11,0.11,0.22,0.28,0.18
		c-0.01-0.22-0.12-0.4-0.23-0.57c-0.27-0.42-0.56-0.82-0.75-1.29c-0.09-0.22-0.24-0.42-0.36-0.64c-0.1-0.18-0.19-0.37-0.27-0.58
		c0.17,0.03,0.28,0.13,0.37,0.25c0.43,0.59,0.88,1.18,1.31,1.78c0.29,0.41,0.57,0.82,0.84,1.24c0.1,0.15,0.25,0.25,0.63,0.37
		c-0.52-0.86-1.16-1.57-1.72-2.35c-0.55-0.78-1.09-1.57-1.63-2.36c0.06-0.03,0.09-0.05,0.09-0.04c0.29,0.25,0.62,0.44,0.84,0.77
		c0.17,0.25,0.37,0.5,0.6,0.71c0.42,0.4,0.78,0.85,1.11,1.32c0.08,0.11,0.15,0.24,0.25,0.33c0.28,0.24,0.43,0.55,0.62,0.85
		c0.2,0.34,0.44,0.65,0.65,0.99c0.22,0.36,0.42,0.74,0.62,1.12c0.2,0.38,0.39,0.76,0.58,1.14c0.05,0.1,0.1,0.19,0.13,0.29
		c0.31,0.81,0.63,1.61,0.9,2.42c0.14,0.42,0.2,0.87,0.31,1.3c0.15,0.6,0.33,1.19,0.47,1.79
		C139.94,137.18,140.05,137.42,139.94,137.67z M141.43,139.26c-0.21-0.12-0.24-0.25-0.15-0.44
		C141.47,138.93,141.39,139.09,141.43,139.26z M141.13,138.11c-0.21-0.17-0.23-0.25-0.17-0.59
		C141.24,137.72,141.26,137.78,141.13,138.11z M140.95,137.35c-0.14-0.1-0.13-0.19-0.08-0.32
		C141,137.12,140.98,137.22,140.95,137.35z M142.12,137.61c-0.01,0.01-0.07,0.02-0.08,0c-0.1-0.08-0.06-0.16,0.02-0.26
		C142.18,137.44,142.19,137.52,142.12,137.61z M141.85,136.31c-0.02,0-0.05,0.01-0.05,0.02
		C141.81,136.31,141.83,136.31,141.85,136.31L141.85,136.31z M138.44,129.77c0.36,0.76,0.71,1.53,1.05,2.3
		c0.24,0.55,0.46,1.1,0.66,1.66c0.09,0.25,0.12,0.52,0.18,0.77c0.1,0.43,0.21,0.87,0.31,1.3c0.01,0.04-0.01,0.08-0.03,0.14
		c-0.17-0.04-0.25-0.14-0.3-0.3c-0.09-0.31-0.21-0.6-0.31-0.9c-0.05-0.14-0.08-0.29-0.13-0.43c-0.25-0.66-0.52-1.31-0.76-1.97
		c-0.26-0.7-0.64-1.35-0.95-2.02c-0.11-0.25-0.23-0.51-0.35-0.76c-0.08-0.16-0.15-0.33-0.26-0.48c-0.45-0.63-0.84-1.32-1.4-1.87
		c-0.17-0.17-0.29-0.36-0.41-0.57c-0.13-0.22-0.32-0.4-0.47-0.6c-0.32-0.42-0.63-0.85-0.95-1.28c-0.09-0.13-0.19-0.25-0.32-0.42
		c0.27-0.01,0.41,0.08,0.54,0.19c0.48,0.4,0.92,0.82,1.24,1.37c0.09,0.16,0.22,0.29,0.33,0.43c0.4,0.49,0.84,0.93,1.15,1.49
		c0.05,0.08,0.1,0.17,0.17,0.23c0.27,0.2,0.38,0.5,0.52,0.79C138.12,129.16,138.3,129.46,138.44,129.77z M140.85,133.48
		c-0.19-0.1-0.37-0.49-0.37-0.83C140.73,132.83,140.88,133.19,140.85,133.48z M139.5,129.82c0.08,0.17,0.16,0.35,0.25,0.51
		c0.25,0.43,0.38,0.9,0.53,1.36c0.07,0.21,0.11,0.42,0.17,0.67c-0.21-0.04-0.26-0.16-0.32-0.29c-0.08-0.18-0.17-0.36-0.26-0.55
		c-0.15-0.33-0.3-0.66-0.44-0.99c-0.22-0.56-0.5-1.08-0.83-1.58c-0.36-0.53-0.72-1.06-1.11-1.57c-0.24-0.32-0.53-0.62-0.79-0.93
		c-0.15-0.18-0.28-0.37-0.43-0.56c-0.19-0.24-0.36-0.51-0.59-0.71c-0.34-0.3-0.59-0.67-0.87-1.01c-0.1-0.11-0.2-0.22-0.3-0.33
		c-0.06-0.08-0.12-0.16-0.18-0.25c0.34-0.03,0.52,0.17,0.68,0.35c0.31,0.35,0.65,0.67,1,0.98c0.21,0.19,0.39,0.43,0.58,0.64
		c0.08,0.09,0.16,0.17,0.25,0.24c0.43,0.37,0.76,0.83,1.06,1.31c0.16,0.26,0.34,0.52,0.5,0.78c0.31,0.52,0.62,1.04,0.93,1.56
		C139.41,129.58,139.45,129.71,139.5,129.82z M137.1,125.36c-0.17-0.18-0.35-0.34-0.52-0.51c-0.26-0.28-0.52-0.56-0.76-0.86
		c-0.05-0.06-0.05-0.15-0.08-0.24c0.2-0.02,0.32,0.06,0.4,0.19c0.31,0.51,0.73,0.91,1.23,1.23c0.32,0.21,0.49,0.56,0.76,0.81
		c0.41,0.37,0.66,0.86,0.97,1.3c0.09,0.13,0.14,0.28,0.18,0.44c0.01,0.05-0.06,0.12-0.09,0.18c-0.05-0.03-0.12-0.05-0.15-0.09
		c-0.24-0.35-0.47-0.71-0.72-1.05c-0.23-0.3-0.5-0.58-0.75-0.87C137.41,125.71,137.26,125.53,137.1,125.36z M141.94,133.89
		c0.18,0.05,0.23,0.15,0.18,0.33C141.92,134.19,141.88,134.08,141.94,133.89z M143.38,136.49l-0.03-0.09
		c0.03,0.01,0.05,0.03,0.08,0.04C143.41,136.47,143.39,136.49,143.38,136.49z M141.6,132.56c0.01,0.28,0.12,0.52,0.3,0.72
		c0.09,0.1,0.1,0.2,0.01,0.31c-0.16,0.04-0.21-0.08-0.26-0.18c-0.08-0.18-0.17-0.37-0.24-0.55c-0.07-0.17-0.16-0.35-0.03-0.54
		C141.56,132.33,141.59,132.44,141.6,132.56z M140.58,129.97c0.09,0.22,0.12,0.47,0.21,0.7c0.07,0.18,0.16,0.35,0.26,0.5
		c0.11,0.17,0.19,0.33,0.13,0.54c-0.32-0.05-0.35-0.31-0.38-0.53c-0.03-0.18-0.11-0.31-0.2-0.45c-0.11-0.16-0.2-0.35-0.26-0.54
		c-0.15-0.5-0.44-0.92-0.7-1.36c-0.13-0.22-0.28-0.43-0.3-0.7c0.2-0.08,0.29,0.04,0.37,0.16
		C140.09,128.81,140.34,129.38,140.58,129.97z M138.41,125.31c-0.21,0.02-0.32-0.07-0.42-0.17c-0.13-0.12-0.25-0.26-0.37-0.4
		c-0.24-0.26-0.48-0.51-0.72-0.77c-0.18-0.19-0.36-0.37-0.53-0.55c-0.03-0.03-0.04-0.09-0.05-0.14c0.15-0.12,0.25-0.02,0.35,0.06
		c0.23,0.2,0.45,0.42,0.69,0.62c0.11,0.1,0.23,0.19,0.35,0.28C138.05,124.51,138.23,124.89,138.41,125.31z M143.08,133.75
		c-0.15-0.03-0.17-0.12-0.12-0.27C143.1,133.55,143.15,133.62,143.08,133.75z M142.75,132.83c-0.18-0.04-0.25-0.1-0.18-0.27
		C142.72,132.58,142.75,132.67,142.75,132.83z M141.7,130.49c-0.24-0.02-0.31-0.13-0.29-0.26c0.03-0.14-0.05-0.21-0.12-0.3
		c-0.1-0.13-0.17-0.29-0.23-0.44c-0.06-0.17-0.03-0.38-0.17-0.53c-0.03-0.03,0-0.11,0-0.17c0.03-0.01,0.06-0.02,0.09-0.03
		C141.31,129.27,141.46,129.87,141.7,130.49z M140.72,128.17c0.01,0.05,0,0.1,0,0.19c-0.08-0.04-0.11-0.05-0.13-0.08
		c-0.21-0.37-0.51-0.68-0.66-1.08c-0.03-0.08-0.09-0.14-0.15-0.2c-0.04-0.05-0.1-0.09-0.13-0.14c-0.26-0.42-0.62-0.75-0.96-1.09
		c-0.04-0.04-0.06-0.11-0.12-0.2c0.1,0.02,0.17,0.01,0.2,0.04c0.19,0.18,0.45,0.29,0.56,0.55c0.04,0.09,0.18,0.13,0.27,0.19
		c0.06,0.05,0.16,0.1,0.17,0.16c0.02,0.3,0.24,0.46,0.4,0.66C140.43,127.46,140.64,127.78,140.72,128.17z M139.85,125.3
		c-0.2,0.06-0.31-0.03-0.4-0.15c-0.23-0.33-0.51-0.62-0.83-0.87c-0.08-0.06-0.15-0.12-0.2-0.2c-0.11-0.17-0.21-0.34-0.4-0.44
		c-0.04-0.02-0.05-0.09-0.11-0.2c0.14,0.04,0.23,0.05,0.28,0.09c0.35,0.34,0.69,0.68,1.04,1.02c0.13,0.13,0.27,0.26,0.41,0.39
		C139.73,125.03,139.86,125.11,139.85,125.3z M143.32,131.44c-0.1,0.05-0.18-0.01-0.23-0.1c-0.04-0.08-0.06-0.18,0.04-0.2
		c0.07-0.01,0.16,0.06,0.27,0.1C143.36,131.33,143.36,131.42,143.32,131.44z M141.9,128.44c-0.21-0.07-0.21-0.07-0.22-0.34
		C141.92,128.18,141.92,128.18,141.9,128.44z M141.06,125.01c-0.02,0.02-0.05,0.03-0.07,0.05c-0.26-0.24-0.52-0.48-0.79-0.72
		c-0.06-0.06-0.13-0.11-0.2-0.16c-0.15-0.09-0.21-0.23-0.23-0.45c0.11,0.03,0.21,0.03,0.28,0.08c0.15,0.11,0.29,0.22,0.41,0.36
		c0.2,0.22,0.38,0.46,0.56,0.69C141.04,124.89,141.05,124.96,141.06,125.01z M144.03,130.19c-0.25-0.14-0.28-0.23-0.18-0.49
		C144.13,129.85,144.17,129.96,144.03,130.19z M143.37,128.48c0.08,0.16,0.13,0.35,0.25,0.48c0.15,0.17,0.15,0.34,0.13,0.54
		c-0.2-0.01-0.24-0.17-0.3-0.29c-0.11-0.22-0.22-0.44-0.32-0.66c-0.15-0.34-0.3-0.68-0.45-1.02c-0.02-0.04-0.01-0.1-0.02-0.15
		c0.12-0.05,0.18,0.01,0.22,0.09C143.05,127.81,143.21,128.14,143.37,128.48z M141.83,126.07c0.33,0.02,0.46,0.17,0.4,0.56
		C142.01,126.46,141.9,126.28,141.83,126.07z M141,123.45c0.29-0.07,0.43,0.02,0.59,0.33C141.34,123.75,141.18,123.58,141,123.45z
		 M139.95,120.53c-0.37-0.06-0.73-0.21-1.1-0.29c-0.02-0.01-0.04-0.06-0.06-0.11c0.16-0.09,0.27,0.03,0.39,0.06
		c0.14,0.03,0.29,0.04,0.44,0.08c0.13,0.03,0.24,0.1,0.36,0.15C139.97,120.45,139.96,120.49,139.95,120.53z M144.33,127.95
		c-0.23,0.02-0.23,0.01-0.15-0.28C144.23,127.75,144.28,127.85,144.33,127.95z M143.89,126.88c0.06,0.1,0.11,0.21,0.15,0.32
		c0.03,0.09,0.02,0.2,0.04,0.31c-0.19,0.01-0.24-0.08-0.28-0.2c-0.04-0.1-0.07-0.22-0.14-0.28c-0.21-0.16-0.27-0.36-0.31-0.6
		c-0.03-0.14-0.04-0.29-0.22-0.39c-0.14-0.08-0.22-0.27-0.32-0.43c-0.02-0.04-0.01-0.15,0.02-0.16c0.05-0.03,0.16-0.04,0.19-0.01
		c0.11,0.14,0.26,0.28,0.29,0.44c0.06,0.31,0.21,0.48,0.56,0.51C143.76,126.59,143.8,126.74,143.89,126.88z M142.31,124.71
		c-0.03-0.02-0.03-0.07-0.05-0.14c0.08,0.02,0.12,0.01,0.14,0.03c0.04,0.04,0.08,0.08,0.11,0.13c0.01,0.01-0.04,0.07-0.05,0.06
		C142.41,124.77,142.35,124.74,142.31,124.71z M144.94,126.97c-0.04-0.06-0.07-0.12-0.13-0.22
		C144.99,126.77,145.02,126.83,144.94,126.97z M141.34,121.01c0.46-0.1,0.77,0.05,0.91,0.44
		C142.04,121.48,141.54,121.23,141.34,121.01z M144.57,124.74c-0.04-0.03-0.08-0.06-0.12-0.09c0.02-0.02,0.03-0.05,0.05-0.07
		c0.04,0.03,0.08,0.07,0.13,0.1C144.61,124.7,144.58,124.74,144.57,124.74z M147.43,129.59c-0.01,0.01-0.09,0.01-0.1,0
		c-0.02-0.04-0.02-0.09-0.03-0.18c0.07,0.03,0.12,0.04,0.13,0.07C147.45,129.51,147.44,129.56,147.43,129.59z M144.91,123.46
		c-0.06-0.02-0.13-0.03-0.14-0.06c-0.01-0.03,0.03-0.09,0.04-0.13c0.05,0.02,0.11,0.04,0.15,0.07
		C144.96,123.35,144.93,123.41,144.91,123.46z M148.41,128.9c-0.18-0.02-0.25-0.11-0.2-0.24c0.02-0.06,0.14-0.08,0.21-0.12
		c0.02,0.02,0.05,0.05,0.07,0.07C148.46,128.71,148.44,128.8,148.41,128.9z M146.14,122.97c-0.02,0.02-0.05,0.04-0.07,0.05
		c-0.3-0.25-0.6-0.5-0.89-0.76c-0.35-0.32-0.7-0.62-1.16-0.77c-0.13-0.04-0.24-0.13-0.37-0.19c-0.38-0.2-0.73-0.46-1.13-0.59
		c-0.45-0.14-0.85-0.41-1.32-0.46c-0.1-0.01-0.2-0.07-0.31-0.09c-0.47-0.09-0.94-0.18-1.41-0.27c-0.14-0.03-0.28-0.08-0.43-0.11
		c-0.32-0.06-0.65-0.12-0.97-0.18c-0.06-0.01-0.12-0.01-0.25-0.03c0.1-0.06,0.15-0.11,0.2-0.12c0.29-0.05,0.58-0.14,0.87,0.02
		c0.05,0.03,0.12,0.02,0.19,0.03c0.76,0.09,1.52,0.21,2.24,0.48c0.09,0.03,0.18,0.08,0.27,0.08c0.44,0.04,0.8,0.26,1.18,0.47
		c0.07,0.04,0.15,0.09,0.22,0.12c0.45,0.15,0.86,0.37,1.25,0.64c0.3,0.2,0.63,0.35,0.9,0.58c0.34,0.29,0.63,0.63,0.93,0.96
		C146.13,122.86,146.13,122.93,146.14,122.97z M146.6,123.66c0.02-0.01,0.04-0.03,0.06-0.04c0.05,0.07,0.1,0.15,0.15,0.22
		c-0.02,0.02-0.05,0.03-0.07,0.05C146.7,123.81,146.65,123.74,146.6,123.66z M147.73,125.4c-0.01,0.02-0.09,0.03-0.11,0.01
		c-0.09-0.07-0.08-0.16,0.02-0.25C147.75,125.23,147.8,125.3,147.73,125.4z M150.07,127.78c0,0.03-0.06,0.08-0.08,0.08
		c-0.04-0.01-0.1-0.05-0.11-0.08c-0.02-0.12-0.01-0.24-0.02-0.41C150.07,127.49,150.08,127.63,150.07,127.78z M148.51,122.45
		c-0.16,0.03-0.21-0.06-0.29-0.16c-0.18-0.22-0.37-0.43-0.57-0.64c-0.02-0.02-0.05-0.04-0.08-0.05c-0.28-0.05-0.56-0.03-0.88,0.07
		c0.09,0.16,0.14,0.28,0.22,0.36c0.47,0.41,0.8,0.94,1.18,1.42c0.1,0.12,0.16,0.28,0.22,0.42c0.08,0.2,0.11,0.43,0.28,0.6
		c0.02,0.02,0.01,0.09,0.01,0.15c-0.15,0.01-0.23-0.08-0.24-0.18c-0.01-0.13-0.09-0.2-0.17-0.29c-0.3-0.34-0.62-0.67-0.88-1.05
		c-0.19-0.27-0.44-0.49-0.65-0.74c-0.38-0.44-0.85-0.77-1.35-1.06c-0.24-0.13-0.47-0.29-0.71-0.43c-0.11-0.07-0.23-0.12-0.34-0.17
		c-0.41-0.2-0.82-0.4-1.24-0.58c-0.25-0.11-0.52-0.18-0.79-0.26c-0.23-0.07-0.47-0.14-0.71-0.21c-0.09-0.03-0.18-0.05-0.28-0.07
		c-0.42-0.07-0.84-0.15-1.26-0.21c-0.15-0.02-0.3-0.05-0.44-0.05c-0.22,0.01-0.42,0-0.61-0.14c-0.07-0.06-0.2-0.05-0.31-0.06
		c-0.28-0.03-0.51-0.13-0.64-0.4c-0.08-0.16-0.2-0.3-0.33-0.49c0.11-0.03,0.2-0.08,0.28-0.08c0.53,0.02,1.06,0.06,1.59,0.08
		c0.11,0.01,0.21-0.01,0.32,0c0.33,0.02,0.66,0.04,1.02,0.06c0.02-0.07,0.05-0.17,0.08-0.31c-0.2-0.03-0.39-0.06-0.57-0.08
		c-0.29-0.04-0.57-0.07-0.86-0.1c-0.19-0.02-0.38-0.03-0.57-0.02c-0.25,0.01-0.46-0.04-0.66-0.22c0.21-0.09,0.41-0.12,0.63-0.11
		c0.24,0,0.49-0.01,0.73-0.01c0.23,0,0.47,0.01,0.7,0.03c0.62,0.06,1.23,0.12,1.85,0.19c0.86,0.1,1.72,0.18,2.51,0.58
		c0.38,0.19,0.76,0.38,1.14,0.57c0.14,0.07,0.26,0.15,0.27,0.33c0.01,0.06,0.05,0.11,0.1,0.16c0.54,0.56,0.95,1.21,1.35,1.86
		c0.19,0.31,0.42,0.56,0.68,0.8C148.38,122.09,148.49,122.24,148.51,122.45z M148.83,122.96c0.24,0.02,0.39,0.11,0.49,0.35
		C149.02,123.35,148.94,123.17,148.83,122.96z M149.44,123.66c0.03-0.01,0.05-0.03,0.08-0.04c0.04,0.06,0.08,0.12,0.12,0.18
		c-0.02,0.01-0.04,0.03-0.06,0.04C149.53,123.79,149.48,123.72,149.44,123.66z"/>
	<path class="st0" d="M119.31,129.09c0.1-0.48,0.32-0.9,0.57-1.31c0.06-0.1,0.07-0.18,0.04-0.3c-0.14-0.48-0.65-0.55-0.95-0.35
		c-0.19,0.13-0.32,0.14-0.52,0.05c-0.21-0.1-0.3-0.06-0.43,0.13c-0.06,0.09-0.11,0.18-0.16,0.28c-0.11,0.2-0.23,0.41-0.34,0.61
		c-0.06,0.1-0.11,0.21-0.3,0.18c0.01-0.51,0.41-0.85,0.58-1.28c-0.24-0.17-0.36-0.16-0.51,0.07c-0.17,0.25-0.32,0.51-0.49,0.74
		c-0.48,0.65-0.83,1.36-1.07,2.13c-0.11,0.36-0.25,0.7-0.36,1.06c-0.04,0.11-0.05,0.22-0.09,0.37c0.17,0,0.3,0.01,0.42-0.01
		c0.07-0.01,0.15-0.08,0.18-0.14c0.22-0.51,0.43-1.02,0.65-1.53c0.04-0.1,0.07-0.21,0.23-0.19c-0.07,0.64-0.38,1.22-0.49,1.88
		c0.15,0.03,0.27,0.05,0.37,0.07c0.15-0.33,0.28-0.61,0.4-0.89c0.21-0.5,0.41-1.01,0.63-1.5c0.15-0.34,0.3-0.68,0.48-1.01
		c0.14-0.26,0.26-0.54,0.54-0.74c0.11,0.24,0.19,0.45,0.01,0.69c-0.11,0.14-0.19,0.31-0.26,0.48c-0.36,0.92-0.73,1.84-1.06,2.78
		c-0.07,0.18-0.01,0.42,0.01,0.62c0,0.04,0.08,0.07,0.12,0.1c0.16-0.42,0.33-0.82,0.45-1.24c0.24-0.81,0.49-1.61,0.83-2.38
		c0.04-0.09,0.09-0.17,0.14-0.25c0.15-0.23,0.18-0.23,0.51-0.09c-0.42,1.02-0.78,2.06-0.99,3.15c0.19,0.02,0.28-0.06,0.31-0.22
		c0.02-0.11,0.01-0.24,0.04-0.35c0.11-0.35,0.24-0.7,0.36-1.06C119.17,129.47,119.27,129.29,119.31,129.09z"/>
	<path class="st0" d="M112.93,129.63c0.27-0.57,0.56-1.13,0.84-1.69c0.03-0.07,0.07-0.13,0.12-0.19c0.24-0.27,0.49-0.54,0.73-0.81
		c0.15-0.17,0.29-0.34,0.33-0.56c-0.33-0.16-0.39-0.15-0.59,0.09c-0.04,0.04-0.07,0.08-0.1,0.12c-0.46,0.54-0.8,1.16-1.13,1.78
		c-0.37,0.69-0.61,1.43-0.84,2.18c0.09,0.05,0.16,0.08,0.27,0.14c0.05-0.13,0.08-0.22,0.11-0.31
		C112.76,130.13,112.82,129.87,112.93,129.63z"/>
	<path class="st0" d="M114.55,128.39c0.18-0.29,0.38-0.56,0.62-0.81c0.23-0.24,0.43-0.5,0.64-0.76c0.04-0.05,0.06-0.13,0.08-0.2
		c-0.25-0.1-0.28-0.09-0.45,0.09c-0.53,0.59-0.98,1.24-1.34,1.94c-0.31,0.6-0.57,1.21-0.84,1.83c-0.08,0.18-0.17,0.39-0.08,0.66
		c0.23-0.3,0.33-0.56,0.41-0.94c0.03-0.13,0.07-0.28,0.15-0.38C114.1,129.4,114.27,128.86,114.55,128.39z"/>
	<path class="st0" d="M115.11,129.55c0.1-0.23,0.15-0.5,0.28-0.71c0.34-0.54,0.7-1.06,1.06-1.59c0.05-0.07,0.13-0.11,0.18-0.18
		c0.06-0.07,0.11-0.14,0.18-0.23c-0.25-0.05-0.26-0.06-0.36,0.07c-0.13,0.17-0.26,0.34-0.39,0.51c-0.43,0.56-0.76,1.18-1.12,1.79
		c-0.31,0.52-0.56,1.08-0.66,1.69c-0.01,0.07-0.01,0.13-0.02,0.2c0.2-0.31,0.36-0.61,0.52-0.92
		C114.9,129.97,115.01,129.76,115.11,129.55z"/>
	<path class="st0" d="M119.98,129.62c0.12-0.4,0.24-0.79,0.38-1.19c0.04-0.12,0.13-0.22,0.19-0.33c0.06-0.12,0.12-0.24,0.18-0.36
		c-0.27-0.13-0.38-0.13-0.44,0.01c-0.12,0.28-0.22,0.58-0.31,0.87c-0.08,0.27-0.12,0.54-0.19,0.81c-0.11,0.41-0.23,0.82-0.35,1.23
		c-0.02,0.09-0.01,0.15,0.1,0.15c0.11-0.29,0.23-0.57,0.34-0.86C119.91,129.84,119.94,129.73,119.98,129.62z"/>
	<path class="st0" d="M112.01,131.64c0.35-0.12,0.42-0.43,0.19-0.8C112.07,131.1,112.01,131.36,112.01,131.64z"/>
	<path class="st0" d="M112.02,132.27c0-0.17,0.01-0.29,0.01-0.42C111.92,132.07,111.92,132.07,112.02,132.27z"/>
	<path class="st0" d="M129.11,129.21c0.07-0.19,0.05-0.25-0.15-0.45C129.02,128.94,129.07,129.08,129.11,129.21z"/>
	<path class="st0" d="M140.82,118.69c-0.24-0.01-0.51,0.02-0.73-0.06c-0.56-0.21-1.15-0.07-1.71-0.22
		c-0.05-0.01-0.13,0.05-0.19,0.08c0.04,0.07,0.05,0.16,0.11,0.2c0.19,0.15,0.42,0.2,0.66,0.17c0.48-0.04,0.96,0.04,1.43,0.14
		c0.36,0.08,0.73,0.1,1.1,0.15c0.01-0.03,0.02-0.05,0.02-0.08c-0.09-0.06-0.19-0.11-0.25-0.19
		C141.14,118.75,140.99,118.7,140.82,118.69z"/>
	<path class="st0" d="M130.48,119.03c-0.57,0.05-0.99,0.33-1.09,0.72C129.82,119.61,130.05,119.23,130.48,119.03z"/>
	<path class="st0" d="M121.52,108.79c-0.06-0.14-0.13-0.29-0.34-0.36c0.31,0.61,0.53,1.21,0.94,1.72
		C121.92,109.7,121.72,109.24,121.52,108.79z"/>
</g>
</svg>
