<?xml version="1.0" encoding="utf-8"?>
<!-- Generator: Adobe Illustrator 24.0.0, SVG Export Plug-In . SVG Version: 6.00 Build 0)  -->
<svg version="1.1" id="Grid" xmlns="http://www.w3.org/2000/svg" xmlns:xlink="http://www.w3.org/1999/xlink" x="0px" y="0px"
	 viewBox="0 0 235.46 144.86" style="enable-background:new 0 0 235.46 144.86;" xml:space="preserve">
<style type="text/css">
	.st0{fill:#00534C;}
</style>
<g>
	<g>
		<path class="st0" d="M181.84,110.6c-0.45-0.81-0.81-1.77-0.84-2.68c-0.05-1.76,0.27-3.53,0.22-5.29
			c-0.02-0.55-0.65-1.45-1.14-1.55c-2.2-0.46-4.44-0.73-6.67-0.99c-0.5-0.06-1.07,0.12-1.55,0.32c-1.77,0.75-3.5,1.57-5.27,2.32
			c-5.26,2.25-10.48,4.54-16.03,6.12c-5.21,1.48-10.39,1.92-15.75,1.65c-3.36-0.17-6.82-0.34-10.11,0.23
			c-7.07,1.21-13.93,0.96-20.75-1.31c-3.1-1.03-6.24-1.92-9.38-2.84c-1.67-0.49-3.13-1.3-3.91-2.87c-0.79-1.61-1.27-3.37-2.05-4.98
			c-0.88-1.84-0.69-3.55,0.28-5.22c0.81-1.37,0.47-2.35-0.67-3.37c-1.19-1.06-2.52-2.15-3.24-3.52c-1.97-3.78-3.26-7.81-1.27-11.99
			c0.94-1.97,0.2-3.03-1.22-4.21c-2.32-1.93-3.48-4.44-3.23-7.51c0.09-1.11-0.43-1.66-1.47-1.94c-2.53-0.7-5.03-1.51-7.57-2.18
			c-3.23-0.85-5.73-4.95-5.24-8.95c0.2-1.61-0.07-2.07-1.68-2.18c-4.81-0.31-9.62-0.55-14.43-0.89c-5.25-0.37-10.5-0.73-15.73-1.25
			c-3.92-0.39-7.38-2.17-10.65-4.25c-1.69-1.07-1.84-2.93-0.5-4.46c0.66-0.75,1.49-1.47,2.39-1.86c1.91-0.83,3.87-1.82,5.89-2.06
			c5.32-0.62,10.68-0.84,16.02-1.27c6.51-0.52,13.01-1.2,19.53-1.58c5.51-0.32,11.07-0.67,16.57-0.38
			c9.31,0.48,18.59,0.55,27.82-0.64c6.93-0.89,13.87-1.2,20.83-0.88c3.14,0.15,6.32,0.48,9.38,1.18c3.48,0.8,6.86,2.06,10.26,3.2
			c2.32,0.78,4.64,1.58,6.88,2.55c2.5,1.09,5.08,2.13,7.32,3.66c2.68,1.83,5.05,4.13,7.53,6.26c1.85,1.6,3.94,2.53,6.39,2.71
			c1.55,0.11,2.34-0.62,2.58-2.02c0.13-0.78,0.07-1.6,0.11-2.4c0.07-1.28,0.08-2.57,0.26-3.83c0.07-0.46,0.48-1.15,0.85-1.24
			c1.63-0.4,3.31-0.83,4.97-0.82c1.16,0.01,2-0.22,2.94-0.87c0.86-0.6,1.97-1.07,3-1.16c2.4-0.19,4.83-0.07,7.25-0.16
			c3.24-0.13,6.44,0.04,9.53,1.1c0.39,0.13,0.97,0.28,1.09,0.57c0.9,2.15,2.23,4.3,2.45,6.54c0.49,5,0.56,10.07,0.52,15.1
			c-0.12,14.07-0.4,28.13-0.6,42.2c-0.06,4.4-0.06,8.8-0.06,13.21c0,1.23-0.29,2.03-1.74,2.14c-2.83,0.21-5.66,0.8-8.48,0.74
			c-5.3-0.12-10.6-0.56-15.9-0.95c-0.48-0.04-1.08-0.63-1.32-1.11c-0.55-1.15-0.92-2.38-1.5-3.97
			C183.27,112.28,182.41,111.62,181.84,110.6z M164.7,98.68c2.09-1.61,0.84-3.92,1.7-5.69c0.46,0.07,0.88,0.14,1.81,0.29
			c-0.5-1.15-0.78-2.04-1.23-2.81c-1.52-2.57-1.53-2.61,0.56-4.82c0.46,0.18,0.93,0.37,1.14,0.46c0.64-0.55,1.13-0.98,1.63-1.41
			c0.26,0.54,0.51,1.08,0.9,1.89c0.55-0.62,1.06-1.2,1.89-2.14c-0.08,1.56-0.17,2.74-0.19,3.93c-0.03,1.15,0.01,2.3,0.02,3.45
			c0.24,0.02,0.48,0.03,0.72,0.05c0.23-1.38,0.47-2.76,0.68-4.15c0.17-1.11,0.22-2.25,0.45-3.35c0.09-0.43,0.5-0.8,0.76-1.19
			c0.22,0.44,0.49,0.86,0.64,1.32c0.11,0.34,0.07,0.73,0.47,1.2c0.28-1.04,0.57-2.08,0.79-2.89c1.05-0.01,2.01,0.02,2.96-0.05
			c0.22-0.02,0.5-0.35,0.62-0.59c1.44-3.05,2-6.27,1.99-9.63c0-2.35,0.38-4.71,0.34-7.06c-0.07-3.42-0.34-6.83-0.61-10.24
			c-0.1-1.28-0.4-2.54-0.65-3.8c-0.24-1.19-0.87-1.83-2.21-1.86c-1.16-0.02-2.32-0.39-3.48-0.56c-1.29-0.19-1.99,0.29-1.73,1.68
			c0.23,1.26,0.66,2.51,0.72,3.78c0.04,0.85-0.41,1.73-0.64,2.6c-0.49-0.73-1.16-1.39-1.43-2.19c-0.3-0.88-0.24-1.88-0.36-3.02
			c-1.81,0.99-1.98-0.07-2.29-1.38c-0.49-2.07-1.21-4.1-1.92-6.11c-0.18-0.53-0.68-0.94-1.26-1.69c-0.28,2.21,2.14,3.46,1.26,5.33
			c-0.19,0.07-0.38,0.13-0.57,0.2c-0.61-1.21-1.36-2.37-1.8-3.64c-1.28-3.64-4.41-5.16-7.47-6.82c-0.98-0.53-1.91-1.18-2.85-1.78
			c-0.54-0.34-1.03-0.88-1.62-1c-1.86-0.4-3.91,0.13-5.62-1.16c-0.16-0.12-0.66,0.3-1.01,0.33c-0.41,0.03-0.96,0.06-1.23-0.17
			c-1.78-1.51-3.56-2.92-6.14-2.31c-0.23,0.05-0.55-0.07-0.76-0.2c-2.19-1.39-4.68-1.61-7.14-1.6c-6.22,0.01-12.45,0.05-18.66,0.33
			c-2.43,0.11-4.91,0.65-7.24,1.41c-4.2,1.36-8.55,2.38-12.3,4.95c-1.65,1.13-3.53,1.93-5.25,2.97c-1.85,1.11-3.66,2.29-5.44,3.51
			c-1.13,0.78-1.21,2.95-0.27,3.93c0.54,0.56,1.25,1.13,1.41,1.8c0.08,0.34-1.1,0.83-1.39,1.42c-1.1,2.21-3.37,2.44-5.28,3.26
			c-0.44,0.19-0.98,0.13-1.41,0.18c-0.01-0.82-0.01-1.46-0.02-2.09c-0.06,0.01-0.12,0.02-0.19,0.02c0.25-0.75,0.51-1.51,0.82-2.42
			c0.72,0.67,1.48,1.38,2.29,2.14c1.02-0.56,1-0.92-0.28-2.18c0.93-1.78,0.31-2.82-1.72-2.88c-0.53-0.01-1.09,0.03-1.59,0.17
			c-2.16,0.62-4.31,1.27-6.44,1.98c-0.46,0.15-0.83,0.59-1.24,0.89c0.34,0.36,0.62,0.8,1.02,1.08c1.45,1,2.93,1.27,4.41-0.2
			c0.09,0.09,0.19,0.19,0.28,0.28c-0.2,0.9-0.41,1.8-0.53,2.36c1.13,0.81,2.08,1.5,3.03,2.18c-0.07,0.24-0.14,0.47-0.21,0.71
			c-0.53,0-1.15,0.19-1.58-0.02c-2.02-0.97-3.98-2.06-5.96-3.1c-0.53-0.28-1.06-0.57-1.95-1.05c0.45,2.77,1.49,4.58,3.64,5.74
			c4.42,2.39,9.1,2.55,13.91,1.67c0.32-0.06,0.62-0.19,0.94-0.22c4.19-0.41,7.03-2.59,8.61-6.48c0.15-0.37,0.55-0.65,1.09-1.28
			c0.07,1.05,0.1,1.65,0.14,2.24c0.13,0.07,0.26,0.15,0.4,0.22c1.01-1.44,2.02-2.87,3.12-4.44c0.98,1.7,1.41,1.71,2.29,0.37
			c0.53-0.8,0.99-1.67,1.58-2.41c0.32-0.4,0.87-0.61,1.32-0.9c0.1,0.1,0.2,0.2,0.3,0.3c-0.38,0.77-0.75,1.53-1.13,2.3
			c0.08,0.11,0.16,0.21,0.24,0.32c1.67-1.31,3.35-2.58,5.59-3.11c-0.09,1.54-1.11,1.67-2,1.98c-2.02,0.7-2.66,1.96-1.96,4.29
			c0.83-0.87,1.43-1.81,2.29-2.32c0.9-0.54,2.04-0.67,3.08-0.97c0.08,0.14,0.16,0.29,0.23,0.43c-1.23,0.99-2.46,1.97-4,3.21
			c2.91,1.11,3.88-2.52,6.67-1.55c-0.91,0.65-1.58,1.14-2.27,1.6c-0.31,0.2-0.81,0.22-1,0.49c-0.44,0.63-0.75,1.35-1.12,2.04
			c0.68,0.06,1.47,0.37,2.03,0.14c1.86-0.8,3.63-1.81,5.46-2.69c0.4-0.19,0.9-0.19,1.35-0.28c0.08,0.19,0.16,0.38,0.24,0.57
			c-1.74,1-3.49,2.01-5.23,3.01c0.08,0.19,0.15,0.37,0.23,0.56c0.44-0.03,0.88-0.08,1.32-0.08c0.35,0,0.92-0.08,1.01,0.09
			c0.8,1.42,2.02,0.9,3.14,0.74c1.38-0.2,2.74-0.52,4.13-0.67c0.62-0.07,1.26,0.15,1.9,0.24c0,0.13,0,0.26-0.01,0.39
			c-1.83,0.47-3.65,0.93-5.48,1.4c0.02,0.25,0.04,0.49,0.06,0.74c2.87,1.58,6.16,0.5,9.13,0.96c-0.41,3.34,2.73,3.46,4.05,4.88
			c0.01,0.89,0.01,1.66,0.02,2.56c-0.48,0-1.11,0.01-1.77,0.01c2.29,1.06,4.52,2.09,6.87,3.18c-0.36,0.59-0.57,0.93-0.7,1.15
			c1.37,1.15,2.68,2.24,3.99,3.34c-0.11,0.16-0.22,0.31-0.33,0.47c-3.64-0.63-7-1.98-10.13-4.12c1.32,2.58,4.13,3.65,5.86,5.74
			c-1.1,0.43-2.01,0.79-2.69,1.06c-0.07,2.47,0.31,4.46,2.61,5.17c-2.29,4-5.58,6.63-9.66,8.38c-1.43,0.61-1.44,1.41-0.12,2.36
			c1.48,1.06,3.05,1.97,4.58,2.96c0.29,0.19,0.54,0.42,0.9,0.7c-1.71,1.3-2.71-0.89-4.26-0.31c1.66,0.85,3.33,1.71,5.35,2.75
			c-1.39,0.85-2.2,0.24-3.04-0.21c-0.82-0.44-1.63-0.82-1.56,0.85c0.47,0,0.89-0.04,1.3,0c0.3,0.03,0.86,0.21,0.85,0.27
			c-0.27,2.43,2.59,2.35,3.37,4.32c-2.61-0.11-4.06-2.64-6.81-2.87c0.92,0.83,1.53,1.38,2.14,1.92c1.39,1.23,1.39,1.23,0.23,2.63
			c0.96,1.38,2.3,0.85,3,0.08c0.96-1.06,1.63-0.66,2.45-0.13c0.54,0.35,1,0.82,1.54,1.16c0.43,0.27,0.93,0.42,1.6,0.29
			c-0.31-0.45-0.62-0.91-1.13-1.64c1.11-0.01,1.98-0.05,2.84-0.02c1.93,0.07,3.85,0.14,5.77,0.31c0.57,0.05,1.09,0.55,1.67,0.68
			c0.42,0.09,1.16,0.07,1.31-0.18c0.77-1.27,2.01-1.46,3.27-1.76c1.9-0.45,3.79-0.98,5.36-1.4c0.76-0.76,1.44-1.38,2.04-2.06
			c1.29-1.45,2.54-2.92,3.79-4.4c0.53-0.62,1.02-1.28,1.52-1.93c0.18,0.13,0.36,0.25,0.54,0.38
			C164.69,97.27,164.69,97.83,164.7,98.68z M31.73,41c0.22,0.53,0.41,0.98,0.66,1.61c1.48-0.76,2.82-0.61,3.93,0.65
			c0.11,0.12,0.47,0.19,0.59,0.1c0.89-0.67,1.66-0.14,2.57-0.04c1.78,0.2,3.64-0.32,5.46-0.54c0.01-0.14,0.02-0.27,0.03-0.41
			c0.35,0.29,0.69,0.58,1.1,0.93c0.55-0.44,1.09-0.86,1.74-1.38c0.54,1.34,1.22,1.34,2.54,0.91c1.19-0.38,2.7,0.17,4.05,0.43
			c1.09,0.21,2.13,0.76,3.21,0.83c0.92,0.06,1.89-0.29,2.81-0.57c0.86-0.26,1.66-0.68,2.51-0.96c0.27-0.09,0.84-0.04,0.9,0.11
			c1.09,2.42,1.97,0.5,2.83-0.14c0.63,0.48,1.17,1.19,1.79,1.28c0.67,0.1,1.43-0.38,2.15-0.61c0.09,0.13,0.17,0.25,0.26,0.38
			c-0.47,0.57-0.93,1.15-1.4,1.72c0.1,0.15,0.19,0.31,0.29,0.46c0.74-0.43,1.5-0.84,2.21-1.31c0.69-0.45,1.25-1.25,2.17-0.22
			c0.19,0.21,1.31-0.07,1.66-0.44c1-1.04,1.65-2.1,3.51-1.15c0.74,0.38,2.31-0.57,3.37-1.16c4.68-2.6,9.31-5.28,13.95-7.95
			c0.21-0.12,0.34-0.38,0.73-0.82c-0.67-0.16-1.13-0.33-1.6-0.36c-4.18-0.26-8.36-0.69-12.53-0.67c-5.08,0.02-10.16,0.43-15.24,0.65
			c-1.07,0.05-2.14-0.01-3.2,0.04c-2.94,0.14-5.88,0.3-8.81,0.48c-1.29,0.08-2.56,0.25-3.85,0.34c-5.66,0.39-11.32,0.81-16.99,1.12
			c-2.62,0.14-5.3-0.16-7.73,1.08c-1.11,0.57-2.11,1.4-3.07,2.22c-0.3,0.25-0.3,0.85-0.43,1.3c0.44,0.11,0.87,0.29,1.31,0.33
			c0.43,0.04,0.87-0.06,1.3-0.1c0.04,0.33,0.1,0.45,0.07,0.54c-0.18,0.5-0.38,1-0.57,1.5c0.55-0.05,1.19,0.06,1.65-0.18
			c1.11-0.59,1.68-0.16,2.06,1.02C30.51,41.62,31.06,41.34,31.73,41z M99.49,60.34c0.43-0.58,0.57-0.83,0.77-1.04
			c0.31-0.33,0.64-0.62,0.97-0.93c-0.39-0.4-0.72-0.92-1.2-1.17c-0.55-0.28-1.26-0.52-1.84-0.43c-2.46,0.39-4.95,0.71-7.32,1.42
			c-2.82,0.84-5.53,2.01-8.27,3.09c-1.96,0.77-2.17,1.16-1.55,3.15c1.3,4.14,3.69,7.37,7.85,9c4.27,1.67,8.57,3.3,12.87,4.92
			c2.25,0.85,4.52,0.72,6.78-0.02c1.25-0.41,1.69-1.16,1.21-2.46c-0.77-2.08-1.13-4.2-0.76-6.46c0.41-2.56,3.48-5.1,6.05-4.51
			c2.42,0.56,4.76,1.5,7.14,2.25c0.32,0.1,0.68,0.07,1.01,0.1c-0.11-0.42-0.08-0.96-0.34-1.23c-2.65-2.72-5.99-4.19-9.68-4.44
			c-2.91-0.2-5.87,0.27-8.81,0.34c-0.51,0.01-1.02-0.45-1.54-0.69c0.42-0.22,0.82-0.48,1.26-0.65c0.44-0.17,0.91-0.24,1.36-0.35
			c-0.03-0.19-0.06-0.37-0.09-0.56C103.53,59.89,101.7,60.09,99.49,60.34z M125.24,77.57c-2.65,0.24-5.33,0.13-7.98,0.41
			c-2.16,0.23-4.4,0.49-6.38,1.29c-2.89,1.17-5.6,1.54-8.52,0.27c-1.16-0.5-2.5-0.56-3.73-0.92c-1.83-0.54-3.66-1.1-5.45-1.76
			c-1.86-0.68-3.66-1.48-5.5-2.22c-1.1-0.44-1.72,0.05-2.08,1.09c-1.18,3.42,0.55,11.59,4.03,14.2c2.88,2.16,6.11,2.64,9.37,3.45
			c4.97,1.23,9.98,1.23,15.01,0.63c2.34-0.28,2.24-0.5,1.46-2.67c-1.14-3.19-0.98-6.43,0.47-9.54c0.17-0.37,0.51-0.75,0.87-0.92
			c4.88-2.27,9.17-2.86,13.3,1.32c0.34,0.35,0.78,0.6,1.3,0.98C131.61,80.28,128.05,77.31,125.24,77.57z M193.9,54.55
			c0.31,2.96,0.36,5.94,0.56,8.91c0.04,0.69,0.08,1.4,0.31,2.04c0.37,1.03,1.19,0.91,2,0.55c0.96-0.43,0.4-0.99,0.16-1.57
			c-0.2-0.5-0.28-1.06-0.41-1.59c0.58-0.09,1.17-0.26,1.75-0.26c3.37,0,6.73,0.08,10.1,0.02c0.45-0.01,0.89-0.68,1.33-1.05
			c-0.51-0.28-1.01-0.76-1.54-0.8c-1.22-0.1-2.47,0.07-3.7,0.02c-2.28-0.09-4.56-0.22-6.83-0.43c-0.43-0.04-0.83-0.53-1.24-0.81
			c0.4-0.27,0.8-0.75,1.21-0.77c3.46-0.15,6.92-0.2,10.38-0.29c0.1,0,0.23,0.08,0.31,0.05c0.57-0.21,1.14-0.44,1.7-0.66
			c-0.46-0.44-0.89-1.24-1.38-1.27c-2.45-0.18-4.92-0.19-7.38-0.2c-0.96,0-1.92,0.2-2.88,0.23c-0.89,0.03-1.8-0.29-1.56-1.3
			c0.13-0.55,1.03-1.26,1.62-1.29c2.78-0.16,5.58-0.09,8.37-0.17c0.84-0.02,1.71-0.16,2.5-0.43c1.07-0.36,1.55-1.18,1.55-2.36
			c0.01-3.11,0.12-6.22,0.16-9.33c0.01-0.69-0.09-1.39-0.2-2.08c-0.22-1.4-1.03-2.19-2.48-2.27c-3.05-0.17-6.09-0.34-9.14-0.51
			c-1.18-0.07-2.36-0.1-3.53-0.23c-2.3-0.25-2.98,0.25-3.05,2.53c-0.06,1.82,0.02,3.65,0.04,6.31
			C192.98,47.98,193.55,51.25,193.9,54.55z M122.9,102.4c0.51-1.41,1.28-2.4-0.24-3.1c0.36-0.59,1.1-1.46,0.97-1.62
			c-0.72-0.88-1.59-1.68-2.54-2.32c-0.42-0.28-1.16-0.18-1.74-0.13c-3.4,0.31-6.8,0.91-10.21,0.93c-3.07,0.01-6.16-0.47-9.19-0.98
			c-2.15-0.36-4.23-1.15-6.36-1.71c-2.18-0.58-3.29,0.21-3.16,2.44c0.13,2.08,0.36,4.18,0.89,6.19c0.25,0.95,1.14,2.1,2.02,2.44
			c2.98,1.15,6,2.38,9.34,1.91c0.42-0.06,0.95,0.11,1.27-0.08c2.06-1.28,3.93-0.56,6.12-0.12c2.84,0.56,5.93-0.09,8.9-0.35
			c0.63-0.05,1.2-0.68,1.8-1.04c-0.04-0.23-0.08-0.46-0.11-0.68c-0.8-0.1-1.67-0.44-2.4-0.26c-3.16,0.77-4.57-1.12-4.73-3.96
			c-0.04-0.63-0.01-1.43,0.34-1.86c0.51-0.61,1.33-1.31,2.04-1.33c1.06-0.03,1.48,0.99,1.34,1.99c-0.11,0.84-0.67,1.92,0.46,2.19
			c0.99,0.24,2.37,0.54,2.88-0.9C121.38,100.83,122.03,101.5,122.9,102.4z M185.57,94.48c0.26-1.89,0.5-3.79,0.83-5.66
			c0.05-0.31,0.54-0.55,0.82-0.82c0.17,0.38,0.5,0.78,0.47,1.15c-0.12,1.61-0.35,3.21-0.57,5.11c1.62-0.68,2.13-1.35,2.3-2.76
			c0.76-6.11-0.32-12.3,1.03-18.41c0.55-2.49-0.01-5.22-0.04-7.85c-0.01-0.96,0.06-1.93,0.02-2.89c-0.08-2.02-0.2-4.04-0.31-6.06
			c-0.04-0.64-0.24-1.31-0.12-1.91c0.93-4.74-0.44-9.36-0.72-14.03c-0.02-0.39-0.42-1.04-0.72-1.08c-1.47-0.21-2.97-0.33-4.45-0.29
			c-0.21,0.01-0.62,1.12-0.54,1.67c0.22,1.53,0.81,3.01,0.97,4.54c0.9,8.96,1.55,17.91,0.7,26.93c-0.48,5.17-0.45,10.39-0.61,15.58
			c-0.08,2.6-0.07,5.2-0.08,7.8c0,0.39,0.16,0.79,0.24,1.18c0.16,0.01,0.31,0.01,0.47,0.02C185.38,95.96,185.47,95.22,185.57,94.48z
			 M118.76,75.12c0.21,0.23,1,0.19,1.36-0.01c0.67-0.38,1.22-0.97,1.99-1.61c-0.89-0.14-1.63-0.25-2.38-0.37
			c0.01-0.12,0.02-0.25,0.03-0.37c0.59-0.04,1.18-0.08,2.19-0.15c-0.74-0.49-1.17-0.77-1.6-1.05c0.08-0.15,0.1-0.27,0.18-0.32
			c0.55-0.33,1.59-0.68,1.57-0.95c-0.05-0.66-0.44-1.56-0.97-1.86c-2.19-1.24-4.48-2.32-7.13-1.89c-2,0.33-2.78,1.73-2.09,3.62
			c0.2,0.55,0.16,1.18,0.25,1.9c0.63-0.09,1.33-0.22,2.03-0.28c0.48-0.04,1.2-0.18,1.39,0.06c0.25,0.32,0.25,1.02,0.08,1.45
			c-0.52,1.34-0.57,1.32,0.74,2.5C116.83,74.33,117.49,73.72,118.76,75.12z M127.67,89.24c0.8-1.47-0.34-2.6-0.5-3.79
			c2.01-1.46,2-1.53,0.11-3.38c-1.58-1.55-3.81-1.97-5.32-0.95c-1.6,1.07-3.85,1.92-4.37,4.2c-0.13,0.58,0.07,1.57,0.47,1.86
			c0.67,0.48,1.36,1.52,2.53,0.71c0.77-0.54,1.66-0.92,2.26-1.25c0.61,0.72,1.06,1.26,1.51,1.79c0.28-0.25,0.56-0.51,0.89-0.8
			C126.02,88.13,126.75,88.62,127.67,89.24z M183.17,107.39c1.23,0.65,1.8,1.51,1.38,2.92c0.8-4.08,3.06-7.77,2.13-12.08
			C185.56,101.27,186.26,105,183.17,107.39z M128.43,106.45c-0.85-0.56-1.64-1.15-2.49-1.6c-0.28-0.15-1.04-0.02-1.09,0.14
			c-0.12,0.38-0.1,0.98,0.13,1.25c0.54,0.62,1.24,1.1,1.87,1.63C127.39,107.4,127.81,107.02,128.43,106.45z M126.48,75.54
			c1.79,0.52,3.22,0.98,4.68,1.31c0.25,0.06,0.7-0.38,0.92-0.69c0.09-0.14-0.15-0.72-0.32-0.76c-0.32-0.07-0.71,0.07-1.06,0.18
			c-0.18,0.06-0.32,0.22-0.49,0.35C129.17,75.36,128.32,74.13,126.48,75.54z M196.34,69.25c-0.55-0.34-1.07-0.82-1.66-0.95
			c-0.31-0.07-0.76,0.5-1.14,0.78c0.39,0.46,0.79,0.93,1.41,1.66C195.57,70.07,195.95,69.66,196.34,69.25z M210.05,70.49
			c-0.5-0.36-0.97-0.91-1.53-1.02c-0.31-0.06-0.77,0.61-1.16,0.95c0.4,0.4,0.8,0.79,1.42,1.4C209.35,71.22,209.7,70.86,210.05,70.49
			z M128.25,64.28c-0.71-1.14-1.31-2.1-1.9-3.05c-0.15-0.01-0.29-0.01-0.44-0.02c0.04,0.49,0.02,0.98,0.13,1.46
			c0.13,0.59,0.36,1.15,0.62,1.99C127.14,64.54,127.63,64.43,128.25,64.28z M207.02,66.34c0.41,0.23,0.9,0.71,1.23,0.62
			c0.52-0.14,0.94-0.66,1.41-1.02c-0.41-0.32-0.82-0.65-1.49-1.18C207.67,65.44,207.35,65.89,207.02,66.34z M201.67,71.01
			c0.34,0.02,0.71-0.48,1.06-0.74c-0.4-0.36-0.75-0.91-1.22-1.03c-0.33-0.08-0.81,0.41-1.64,0.89
			C200.74,70.58,201.2,70.99,201.67,71.01z M203.66,66.91c0.23,0.03,0.54-0.56,0.81-0.87c-0.51-0.3-0.99-0.69-1.53-0.85
			c-0.22-0.06-0.59,0.37-1.28,0.86C202.59,66.48,203.11,66.84,203.66,66.91z M198.7,65.63c0.2,0.39,0.59,0.78,0.99,0.93
			c0.17,0.07,0.86-0.56,0.82-0.67c-0.18-0.42-0.55-0.77-1.03-1.37C199.09,65.06,198.63,65.48,198.7,65.63z M194.55,73.76
			c-0.02,0.29,0.51,0.6,0.8,0.91c0.29-0.32,0.76-0.6,0.83-0.96c0.06-0.33-0.32-0.74-0.7-1.49C195,72.97,194.57,73.36,194.55,73.76z"
			/>
		<path class="st0" d="M161.94,78.36c-0.73,0.46-1.4,1.11-2.2,1.33c-1.44,0.39-2.95,0.54-4.44,0.73c-1.05,0.13-1.93-0.05-1.41-1.47
			c-4.82-0.44-5.63-0.72-6.75-2.4c0.62-0.01,1.12-0.06,1.61-0.01c5.14,0.6,8.84-1.33,11.47-5.87c0.27-0.46,1.09-0.91,1.62-0.87
			c1.67,0.13,2.2-0.81,2.38-2.17c0.08-0.63-0.04-1.29,0.03-1.93c0.05-0.46,0.26-0.9,0.4-1.36c0.14-0.01,0.29-0.01,0.43-0.02
			c0.4,0.78,0.79,1.55,1.34,2.61c1.27-2.3-0.38-5.09,2.41-6.82c0.21,0.41,0.47,0.92,0.73,1.43c0.17-0.08,0.35-0.16,0.52-0.24
			c-0.21-1.66-0.47-3.32-0.61-5c-0.04-0.44,0.28-0.9,0.43-1.35c0.39,0.21,0.9,0.32,1.13,0.64c0.36,0.51,0.64,1.13,0.78,1.75
			c0.75,3.48,0.73,6.91-0.78,10.23c-0.23,0.5-0.41,1.02-0.62,1.54c0.19,0.09,0.37,0.18,0.56,0.27c0.67-1.38,1.58-2.7,1.95-4.16
			c0.42-1.64,0.33-3.4,0.53-5.1c0.05-0.39,0.39-0.75,0.6-1.12c0.32,0.31,0.8,0.56,0.92,0.93c0.28,0.9,0.39,1.86,0.57,2.79
			c1.79,0.23,2.07,0.74,1.31,2.46c-0.45-0.34-0.89-0.66-1.54-1.14c-0.26,1.23-0.47,2.23-0.7,3.31c0.72-0.24,1.22-0.41,1.72-0.58
			c0.07,0.65,0.38,1.39,0.18,1.93c-1.26,3.29-2.62,6.54-3.99,9.78c-0.37,0.88-0.84,1.75-1.39,2.53c-0.23,0.32-0.78,0.41-1.19,0.61
			c-0.16-0.37-0.34-0.73-0.46-1.11c-0.19-0.58-0.2-1.27-0.52-1.75c-0.5-0.75-1.2-1.37-1.98-2.22c-0.72,0.36-1.64,0.87-2.61,1.28
			c-0.39,0.16-0.89,0.08-1.33,0.11c0.09-0.43,0.15-0.87,0.3-1.28c0.14-0.38,0.39-0.72,0.59-1.08c-0.11-0.09-0.22-0.19-0.33-0.28
			c-1.47,0.9-2.94,1.8-4.81,2.94c1.25-0.23,2.06-0.37,2.87-0.52C161.73,77.93,161.83,78.14,161.94,78.36z M174.73,69.83
			c-0.25-0.1-0.5-0.21-0.75-0.31c-0.56,1.37-1.12,2.74-1.67,4.11c0.25,0.1,0.5,0.2,0.74,0.31C173.61,72.57,174.17,71.2,174.73,69.83
			z"/>
		<path class="st0" d="M174.75,77.19c2.23-0.6,3.34-3.22,2.26-5.19C176.26,73.73,175.5,75.46,174.75,77.19z"/>
		<path class="st0" d="M136.58,80.09c0.42,0.32,0.84,0.7,0.89,0.67c0.43-0.39,0.85-0.82,1.16-1.31c0.06-0.09-0.36-0.49-0.56-0.75
			C137.63,79.11,137.19,79.53,136.58,80.09z"/>
		<path class="st0" d="M186.5,86.8c1.52-0.69,2.05-2.21,1.31-2.98c-0.14-0.15-1.07,0.1-1.11,0.28
			C186.53,84.89,186.56,85.72,186.5,86.8z"/>
	</g>
</g>
</svg>
