<?xml version="1.0" encoding="utf-8"?>
<!-- Generator: Adobe Illustrator 24.0.0, SVG Export Plug-In . SVG Version: 6.00 Build 0)  -->
<svg version="1.1" id="Grid" xmlns="http://www.w3.org/2000/svg" xmlns:xlink="http://www.w3.org/1999/xlink" x="0px" y="0px"
	 viewBox="0 0 591.37 281.72" style="enable-background:new 0 0 591.37 281.72;" xml:space="preserve">
<style type="text/css">
	.st0{fill:#00534C;}
	.st1{fill:#FFFFFF;}
</style>
<g>
	<g>
		<path class="st0" d="M55.56,43.4h13.69v27.43h13.74v12.49H55.56V43.4z"/>
		<path class="st0" d="M105.62,80.87l-0.97,2.45H89.94l20.41-40.94l20.53,40.94h-14.77l-0.97-2.45H105.62z M110.35,68.32l-2.45,5.87
			h4.73L110.35,68.32z"/>
		<path class="st0" d="M159.21,43.4h18.7c10.89,0,19.62,9.01,19.62,20.01c0,11.06-8.55,19.9-19.62,19.9h-18.7V43.4z M175.86,70.83
			c4.11,0,7.47-3.25,7.47-7.41c0-4.22-3.36-7.47-7.47-7.47h-2.97v14.88H175.86z"/>
		<path class="st0" d="M226.38,84.12c-11.58,0-21.21-8.95-21.21-20.7c0-11.75,9.64-20.7,21.21-20.7c11.58,0,21.21,8.95,21.21,20.7
			C247.59,75.16,237.95,84.12,226.38,84.12z M226.38,70.32c3.93,0,6.79-2.96,6.79-6.9s-2.85-6.9-6.79-6.9s-6.79,2.97-6.79,6.9
			S222.45,70.32,226.38,70.32z"/>
		<path class="st0" d="M257.4,43.4h13.69v27.43h13.74v12.49H257.4V43.4z"/>
		<path class="st0" d="M314.64,42.72c2.22,0,5.87,0.34,8.9,2.05v15.34c-2-2.39-4.45-3.88-8.1-3.88c-4.28,0-7.58,3.14-7.58,7.19
			c0,4.05,3.31,7.18,7.58,7.18c3.65,0,6.1-1.48,8.1-3.88v15.34c-3.02,1.71-6.67,2.05-8.9,2.05c-11.63,0-21.21-9.01-21.21-20.7
			S303.01,42.72,314.64,42.72z"/>
		<path class="st0" d="M334.94,43.4h26.74v12.2h-13.06v3.19h12.54v8.61h-12.54v3.54h13.23v12.37h-26.92V43.4z"/>
		<path class="st0" d="M409.92,56.23l5.3-12.83h14.43l-19.73,41.11L390.3,43.4h14.43L409.92,56.23z"/>
		<path class="st0" d="M438.25,43.4h13.69v39.92h-13.69V43.4z"/>
		<path class="st0" d="M470.47,55.89h-8.1V43.4h29.82v12.49h-8.04v27.43h-13.69V55.89z"/>
		<path class="st0" d="M510.55,80.87l-0.97,2.45h-14.71l20.41-40.94l20.53,40.94h-14.77l-0.97-2.45H510.55z M515.28,68.32
			l-2.45,5.87h4.73L515.28,68.32z"/>
	</g>
	<g>
		<path class="st1" d="M176.69,148.34h6.22v6.68H169.6V114.7h13.31v6.68h-6.22v9.96h5.41v6.57h-5.41V148.34z"/>
		<path class="st1" d="M194.83,132.39c0.12,1.96,0.23,8.12,0.23,10.54v12.1h-6.39V114.7h6.51l4.84,22.7
			c-0.12-2.07-0.29-8.12-0.29-10.54V114.7h6.39v40.32h-6.45L194.83,132.39z"/>
		<path class="st1" d="M223.23,114.7h9.85c5.53,0,6.74,2.71,6.74,7.2v10.14c0,4.78-1.44,7.2-6.91,7.2h-2.59v15.78h-7.08V114.7z
			 M230.32,132.67h1.21c0.86,0,1.21-0.4,1.21-1.27v-8.64c0-0.98-0.46-1.38-1.33-1.38h-1.09V132.67z"/>
		<path class="st1" d="M245.01,114.7h7.08v33.64h5.07v6.68h-12.15V114.7z"/>
		<path class="st1" d="M269.14,148.34h6.22v6.68h-13.31V114.7h13.31v6.68h-6.22v9.96h5.42v6.57h-5.42V148.34z"/>
		<path class="st1" d="M281.42,114.7h7.08v40.32h-7.08V114.7z"/>
		<path class="st1" d="M301,132.39c0.12,1.96,0.23,8.12,0.23,10.54v12.1h-6.39V114.7h6.51l4.84,22.7
			c-0.12-2.07-0.29-8.12-0.29-10.54V114.7h6.39v40.32h-6.45L301,132.39z"/>
		<path class="st1" d="M345.82,140.97v6.85c0,4.44-1.73,7.78-8.18,7.78c-6.39,0-8.24-3.34-8.24-7.78V121.9
			c0-4.44,1.84-7.78,8.24-7.78c6.45,0,8.18,3.34,8.18,7.78v6.28h-6.97v-6.28c0-0.75-0.4-1.38-1.21-1.38c-0.81,0-1.21,0.63-1.21,1.38
			v25.86c0,0.92,0.4,1.44,1.21,1.44c0.81,0,1.21-0.52,1.21-1.44v-6.8H345.82z"/>
		<path class="st1" d="M351.58,147.82v-25.86c0-4.44,1.9-7.83,8.29-7.83c6.39,0,8.29,3.4,8.29,7.83v25.86c0,4.44-1.9,7.78-8.29,7.78
			C353.48,155.6,351.58,152.26,351.58,147.82z M361.08,147.77V121.9c0-0.81-0.4-1.38-1.21-1.38c-0.81,0-1.21,0.58-1.21,1.38v25.86
			c0,0.92,0.4,1.44,1.21,1.44C360.68,149.21,361.08,148.69,361.08,147.77z"/>
		<path class="st1" d="M381.02,148.34h6.22v6.68h-13.31V114.7h13.31v6.68h-6.22v9.96h5.42v6.57h-5.42V148.34z"/>
		<path class="st1" d="M400.03,114.7v33.18c0,0.92,0.4,1.33,1.21,1.33c0.81,0,1.21-0.4,1.21-1.33V114.7h7.03v33.24
			c0,4.44-1.84,7.66-8.24,7.66c-6.39,0-8.24-3.23-8.24-7.66V114.7H400.03z"/>
		<path class="st1" d="M422.44,138.78h-0.12v16.24h-6.8V114.7h9.56c5.53,0,6.74,2.71,6.74,7.2v10.14c0,3.46-0.81,5.24-2.71,6.16
			l4.72,16.82h-7.49L422.44,138.78z M422.32,132.67h1.21c0.86,0,1.21-0.4,1.21-1.27v-8.64c0-0.98-0.46-1.38-1.33-1.38h-1.09V132.67z
			"/>
	</g>
	<g>
		<path class="st0" d="M239,210.94c-1.01-0.22-1.96,0.36-2.25,1.38c-0.15,0.87-0.43,1.74-0.72,2.61c-1.3,3.33-4.78,6.52-8.55,7.61
			c-1.88,0.58-4.71,0.87-7.25-1.01c-1.52-1.09-2.32-2.68-2.68-4.13h0.15c3.84,0,8.19-2.32,11.38-6.31
			c1.59-2.03,4.06-6.74,1.59-10.22c-1.16-1.59-3.84-3.77-9.06-0.72c-3.82,2.29-6.85,7.15-7.68,12.18c0,0,0,0,0,0
			c-0.22,0.87-0.51,1.74-0.8,2.61c-1.88,5-5.44,8.12-7.18,7.46c-1.3-0.51-2.1-3.48-1.23-7.54l6.16-26.38
			c0.29-1.01-0.36-2.03-1.38-2.25c-0.94-0.22-1.96,0.44-2.17,1.38l-3.41,14.5c-0.72-1.01-1.67-1.81-2.83-2.32
			c-4.64-2.03-10.73,1.96-13.84,9.06c-3.12,7.18-1.88,14.35,2.75,16.38c0.87,0.36,1.74,0.58,2.61,0.58c2.83,0,5.94-1.81,8.41-4.78
			c0.51,2.39,1.74,4.13,3.62,4.86c0.58,0.22,1.16,0.29,1.81,0.29c2.81,0,5.88-2.27,8.17-6c0.73,1.75,1.88,3.23,3.43,4.34
			c1.96,1.45,4.2,2.17,6.67,2.17c1.23,0,2.54-0.22,3.84-0.58c4.78-1.45,9.2-5.44,10.87-9.86c0.43-1.01,0.72-2.03,0.94-3.04
			S240.01,211.15,239,210.94z M200.51,214.63c-1.88,4.42-6.09,8.48-8.99,7.18c-2.9-1.23-2.83-7.03-0.87-11.45
			c1.67-3.84,5.07-7.46,7.83-7.46c0.44,0,0.8,0.07,1.16,0.29c1.59,0.65,2.03,2.68,2.17,3.77
			C202.18,209.27,201.67,212.02,200.51,214.63z M223.49,203.33c3.12-1.81,3.84-0.72,4.2-0.29c0.94,1.3-0.29,4.2-1.52,5.73
			c-2.54,3.12-6.02,5-8.77,4.93C217.91,209.49,220.44,205.14,223.49,203.33z"/>
		<path class="st0" d="M295.1,194.48c1.23-5,0.15-9.35-2.97-12.25c-3.7-3.48-9.78-4.42-15.95-2.54c-7.83,2.39-13.7,8.84-15.58,17.32
			c-2.83,11.89,3.48,17.32,7.03,19.35c-1.81,6.16-3.84,9.64-7.83,9.64c-1.01,0-1.88,0.87-1.88,1.88s0.87,1.81,1.88,1.81
			c6.96,0,9.78-6.38,11.81-13.77v-0.15c0.51-1.81,0.94-3.62,1.38-5.51c0.22-0.87,0.43-1.74,0.58-2.61c1.74,0.51,3.55,0.8,5.29,0.87
			c5.22,2.32,6.67,4.64,5.65,8.92c-1.09,4.78-2.25,9.71,2.46,11.74c0.22,0.07,0.51,0.14,0.73,0.14c0.72,0,1.38-0.43,1.74-1.09
			c0.36-0.94-0.07-2.03-1.01-2.46c-1.23-0.51-1.81-1.09-0.29-7.54c1.23-5.22-0.65-8.41-3.48-10.65c0.58-0.22,1.16-0.44,1.74-0.72
			C289.45,205.35,293.43,201.95,295.1,194.48z M279.3,204.85c-1.59,0-3.19-0.22-4.78-0.72c2.1-7.97,4.64-14.86,8.62-14.86
			c1.01,0,1.81-0.8,1.81-1.81s-0.8-1.81-1.81-1.81c-7.18,0-10.22,9.64-12.76,19.57c-0.36,1.45-0.65,2.9-1.01,4.28
			c-0.22,1.09-0.51,2.17-0.72,3.19c-6.16-4.06-5.22-11.6-4.42-14.86c1.59-7.1,6.52-12.61,13.05-14.64c4.78-1.45,9.64-0.8,12.32,1.74
			c2.17,2.03,2.83,5,1.96,8.7c-1.09,4.86-3.41,8.26-6.81,10C283.07,204.41,281.26,204.85,279.3,204.85z"/>
		<path class="st0" d="M373.38,198.9c1.16,0,2.17-0.94,2.17-2.1c0-1.23-1.01-2.17-2.17-2.17c-1.16,0-2.17,0.94-2.17,2.17
			C371.21,197.96,372.22,198.9,373.38,198.9z"/>
		<path class="st0" d="M406.29,211.01c-0.94-0.22-1.96,0.36-2.17,1.38c-0.22,0.87-0.51,1.74-0.8,2.54c-1.09,2.9-2.97,4.93-5.65,6.16
			c0.44-0.94,0.8-1.96,1.02-3.04c0.8-3.84-1.3-6.74-3.04-9.06c-2.25-3.04-3.19-4.57-1.3-7.1c0-0.07,0-0.07,0.07-0.14
			c0-0.07,0-0.07,0.07-0.14c0-0.07,0.07-0.15,0.07-0.22c0,0,0-0.07,0.07-0.15v-0.14c0-0.07,0-0.14,0-0.22v-0.14
			c0-0.07,0-0.14,0-0.22v-0.14c0-0.07-0.07-0.15-0.07-0.15c0-0.07,0-0.14-0.07-0.22c0,0,0-0.07-0.07-0.15
			c0-0.07-0.07-0.07-0.07-0.14l-0.14-0.15c0-0.07-0.07-0.07-0.14-0.14c0,0,0-0.07-0.07-0.07c0,0,0,0,0-0.07h-0.07
			c0,0-0.07-0.07-0.15-0.07c0,0-0.07-0.07-0.15-0.07c-0.07-0.07-0.07-0.07-0.14-0.07s-0.14-0.07-0.14-0.07h-0.22
			c-0.07-0.07-0.07-0.07-0.15-0.07s-0.14,0-0.22,0h-0.14c-0.07,0-0.15,0.07-0.22,0.07h-0.14c-0.07,0.07-0.07,0.07-0.14,0.07
			c-0.07,0.07-0.14,0.07-0.14,0.07l-0.22,0.15c0,0-0.07,0.07-0.15,0.07c0,0.07-0.07,0.07-0.07,0.14c-0.07,0.07-0.07,0.07-0.14,0.07
			v0.07c0,0.07-0.07,0.07-0.07,0.07c-1.88,2.39-3.19,6.81-4.49,11.6c-0.29,1.16-0.58,2.25-0.8,2.68c-0.36,0.94,0.07,2.03,1.09,2.39
			c0.22,0.07,0.43,0.07,0.65,0.07c0.73,0,1.45-0.43,1.74-1.16c0.22-0.58,0.51-1.59,0.87-3.04c0.29-0.87,0.58-1.96,0.87-3.12
			c0.51,0.73,0.94,1.38,1.45,2.03c1.52,2.1,2.9,3.91,2.39,6.09c-0.73,3.48-2.39,4.93-5.8,5.15c-0.07,0-0.07,0-0.15,0h-0.29
			c-1.3,0-2.61-0.51-3.48-1.45c-1.16-1.09-1.74-2.68-1.67-4.49v-0.07c0,0,0.07-0.87,0.51-2.54c0.04-0.15,0.06-0.29,0.07-0.43
			c0,0,0,0,0,0c0.22-0.94-0.36-1.96-1.38-2.17c-0.94-0.22-1.96,0.36-2.17,1.38c-0.22,0.87-0.51,1.74-0.8,2.54
			c-0.94,2.54-2.39,4.86-3.99,6.23c-1.23,1.09-2.39,1.59-3.19,1.3c-1.06-0.41-1.78-2.45-1.55-5.37c0.06-0.22,0.12-0.42,0.18-0.65
			c0.07-0.07,0.07-0.07,0.07-0.14l0.74-4.22l1.8-7.67l0.43-1.96c0.22-1.01-0.43-2.03-1.38-2.25c-1.01-0.22-2.03,0.43-2.25,1.45
			l-0.44,1.96l-2.39,10.44c-0.21,0.94-0.34,1.84-0.41,2.72c-0.91,2.99-2.1,5.15-3.58,6.56c-1.3,1.16-2.83,1.88-4.78,2.17l6.6-24.06
			c0.29-0.94-0.29-1.96-1.23-2.25c-0.94-0.22-1.96,0.29-2.25,1.3l-0.65,2.46c-0.8-1.38-1.81-2.39-3.19-3.04
			c-2.39-1.16-5.22-0.72-8.04,1.09c-2.54,1.67-4.78,4.35-6.31,7.61c-0.45,0.94-0.8,1.9-1.09,2.87c-0.09,0.16-0.17,0.34-0.21,0.53
			c-0.22,0.8-0.51,1.67-0.8,2.54c-0.94,2.54-2.39,4.78-3.99,6.23c-1.23,1.09-2.39,1.52-3.19,1.23c-1.3-0.43-2.1-3.41-1.23-7.54
			l0.36-1.52c0.51-1.74,2.54-9.13,0.07-12.54c-0.87-1.16-2.1-1.74-3.62-1.74c-1.81,0-3.62,0.87-5.36,2.61
			c-0.14-0.65-0.65-1.23-1.38-1.38c-1.01-0.22-1.96,0.36-2.25,1.38l-2.42,10.08c-0.08,0.16-0.15,0.32-0.19,0.5
			c-0.22,0.8-0.51,1.67-0.8,2.54c-0.94,2.54-2.39,4.78-3.99,6.23c-1.23,1.09-2.39,1.52-3.19,1.23c-1.3-0.44-2.1-3.41-1.23-7.54
			l2.46-10.44l0.43-2.03c0.22-1.01-0.43-1.96-1.38-2.17c-1.01-0.22-2.03,0.43-2.25,1.38l-0.43,2.03l-1.96,8.55
			c-0.07,0.07-0.07,0.14-0.07,0.22c-0.22,0.8-0.51,1.67-0.8,2.54c-0.94,2.54-2.39,4.78-3.99,6.23c-1.23,1.09-2.39,1.52-3.19,1.23
			c-1.3-0.44-2.1-3.41-1.23-7.54l2.46-10.44l0.44-2.03c0.22-1.01-0.44-1.96-1.38-2.17c-1.02-0.22-2.03,0.43-2.25,1.38l-0.43,2.03
			l-1.88,8.19c-1.09,5.65-1.3,7.03-0.51,9.86c0.58,2.1,1.81,3.55,3.48,4.2c0.58,0.22,1.16,0.36,1.81,0.36c2.39,0,5-1.67,7.1-4.49
			c0.65,2.03,1.81,3.48,3.48,4.13c0.58,0.22,1.16,0.36,1.81,0.36c1.52,0,3.11-0.67,4.69-1.95c-0.13,0.95,0.43,1.82,1.4,2.09h0.43
			c0.8,0,1.59-0.58,1.74-1.38l2.75-11.38c0.07-0.07,1.09-2.97,2.75-5.73c1.88-3.19,3.84-5.07,5.29-5.07c0.44,0,0.51,0.15,0.65,0.29
			c0.65,0.87,0.87,4.42-0.65,9.35c-0.07,0.14-0.29,1.3-0.36,1.74c-1.3,5.8,0.14,10.51,3.48,11.81c0.58,0.22,1.16,0.36,1.81,0.36
			c1.67,0,3.48-0.8,5.15-2.39c0.86-0.77,1.66-1.7,2.4-2.74c0.73,2.07,2.01,3.61,3.76,4.41c0.94,0.44,1.88,0.65,2.9,0.65
			c1.67,0,3.41-0.58,5.22-1.74c0.43-0.29,0.87-0.58,1.3-1.01l-0.65,2.54c-3.55,0.07-6.45,0.8-8.7,2.17
			c-2.17,1.3-3.62,3.33-3.91,5.51c-0.44,2.68,0.94,5.07,3.26,5.65h0.15c0.58,0.14,1.23,0.22,1.81,0.22c1.3,0,2.54-0.29,3.62-0.8
			c1.38-0.65,2.54-1.59,3.55-2.83c1.74-2.1,2.39-4.35,2.46-4.42v-0.07l0.51-1.81c3.41-0.15,6.09-1.23,8.26-3.26
			c0.82-0.74,1.55-1.62,2.2-2.64c0.67,1.23,1.62,2.13,2.8,2.57c0.58,0.29,1.16,0.36,1.81,0.36c1.67,0,3.41-0.8,5.15-2.32
			c0.93-0.83,1.79-1.85,2.58-3c0.43,0.9,1,1.72,1.7,2.42c1.67,1.67,3.84,2.54,6.16,2.54h0.36c0,0,0.07,0,0.15,0h0.87
			c6.09,0,13.55-1.81,16.6-9.86c0.36-1.01,0.65-2.03,0.87-3.04C407.96,212.24,407.3,211.23,406.29,211.01z M354.18,230.21
			c-0.07,0.22-0.65,1.81-1.81,3.26c-1.52,1.81-3.26,2.54-5.44,2.17c-0.44-0.22-0.65-0.87-0.58-1.59c0.29-1.67,2.25-4.28,8.04-4.57
			L354.18,230.21z M357.73,215.14c-1.23,2.68-3.04,4.86-5,6.09c-2.32,1.52-3.84,1.23-4.57,0.87c-0.65-0.36-1.96-1.3-2.25-4.06
			c-0.29-2.32,0.29-5.07,1.52-7.68c1.23-2.61,2.97-4.78,4.93-6.09c1.38-0.87,2.39-1.16,3.19-1.16c0.65,0,1.09,0.15,1.38,0.29
			c0.72,0.36,1.96,1.3,2.25,4.06C359.47,209.78,358.96,212.53,357.73,215.14z"/>
	</g>
</g>
</svg>
