<?xml version="1.0" encoding="utf-8"?>
<!-- Generator: Adobe Illustrator 24.0.0, SVG Export Plug-In . SVG Version: 6.00 Build 0)  -->
<svg version="1.1" id="Grid" xmlns="http://www.w3.org/2000/svg" xmlns:xlink="http://www.w3.org/1999/xlink" x="0px" y="0px"
	 viewBox="0 0 230.04 231.33" style="enable-background:new 0 0 230.04 231.33;" xml:space="preserve">
<style type="text/css">
	.st0{fill:#F8A88B;}
</style>
<g>
	<path class="st0" d="M101.7,27.56c-48.82,7.38-82.56,52.91-75.22,101.49s53.04,82.1,101.86,74.71
		c48.82-7.38,82.56-52.91,75.22-101.49S150.52,20.18,101.7,27.56z M127.95,201.16c-47.38,7.16-91.73-25.36-98.85-72.5
		c-7.13-47.14,25.62-91.32,73-98.48c47.38-7.16,91.73,25.36,98.85,72.5C208.07,149.81,175.33,193.99,127.95,201.16z"/>
	<path class="st0" d="M69.45,164.72c-0.19-0.72-0.56-1.34-1.09-1.86c-0.54-0.52-1.16-0.87-1.89-1.04c-0.72-0.17-1.44-0.16-2.16,0.04
		c-0.72,0.2-1.33,0.57-1.85,1.1c-0.53,0.54-0.88,1.17-1.05,1.89c-0.18,0.72-0.17,1.43,0.03,2.14c0.2,0.71,0.56,1.33,1.1,1.85
		c0.2,0.19,0.42,0.37,0.67,0.53l2.71,2.64l1.1-1.13l-0.93-0.9c0.44-0.07,0.86-0.2,1.26-0.41c0.4-0.2,0.76-0.47,1.08-0.8
		c0.52-0.53,0.86-1.16,1.04-1.88C69.65,166.16,69.64,165.44,69.45,164.72z M67.92,166.44c-0.12,0.44-0.34,0.83-0.67,1.17
		s-0.71,0.58-1.14,0.71c-0.43,0.13-0.86,0.15-1.29,0.06c-0.43-0.1-0.81-0.3-1.14-0.62c-0.34-0.33-0.57-0.71-0.68-1.15
		c-0.12-0.44-0.12-0.88,0-1.32c0.11-0.44,0.34-0.83,0.67-1.17c0.33-0.34,0.71-0.57,1.15-0.7c0.43-0.13,0.87-0.14,1.3-0.04
		c0.43,0.1,0.82,0.31,1.15,0.64c0.33,0.32,0.55,0.7,0.67,1.13C68.03,165.57,68.03,166.01,67.92,166.44z"/>
	<path class="st0" d="M78.62,171.29l-1.29-0.93l-3.01,4.17c-0.15,0.21-0.36,0.37-0.62,0.47c-0.26,0.1-0.54,0.14-0.85,0.1
		c-0.3-0.04-0.58-0.15-0.84-0.33c-0.24-0.17-0.42-0.39-0.55-0.67c-0.12-0.27-0.18-0.55-0.17-0.83c0.01-0.28,0.09-0.53,0.25-0.74
		l3.01-4.17l-1.3-0.94l-3.03,4.2c-0.34,0.47-0.53,0.99-0.57,1.54c-0.04,0.55,0.07,1.08,0.32,1.59c0.25,0.51,0.63,0.94,1.12,1.29
		c0.49,0.35,1.02,0.57,1.58,0.66c0.56,0.08,1.1,0.02,1.62-0.19c0.51-0.21,0.94-0.55,1.28-1.02L78.62,171.29z"/>
	<path class="st0" d="M75.98,179.28l1.39,0.75l1.34-1.09l2.38,1.29l-0.2,1.71l1.64,0.89l0.8-9.21l-0.08-0.04L75.98,179.28z
		 M81.27,178.79l-1.41-0.77l1.67-1.35L81.27,178.79z"/>
	<polygon class="st0" points="89.67,176.97 88.17,176.39 85.19,183.98 90.26,185.97 90.83,184.52 87.26,183.13 	"/>
	
		<rect x="91.17" y="182.4" transform="matrix(0.2755 -0.9613 0.9613 0.2755 -107.1078 224.3023)" class="st0" width="8.16" height="1.61"/>
	<polygon class="st0" points="99.13,181.66 101,182.02 99.76,188.51 101.34,188.81 102.58,182.32 104.53,182.69 104.82,181.17 
		99.42,180.14 	"/>
	<polygon class="st0" points="106.49,189.6 112.19,190.01 112.3,188.46 108.2,188.17 108.33,186.41 111.82,186.66 111.94,185.11 
		108.44,184.86 108.57,183.12 112.51,183.41 112.63,181.86 107.07,181.46 	"/>
	<polygon class="st0" points="112.05,179.78 110.34,179.66 109.37,181.09 110.31,181.16 	"/>
	<path class="st0" d="M121.51,183.06c0.18-0.16,0.45-0.26,0.8-0.3c0.52-0.06,1.16,0.07,1.91,0.38l0.47-1.29
		c-0.41-0.21-0.82-0.36-1.24-0.45c-0.42-0.09-0.93-0.1-1.53-0.04c-0.76,0.12-1.35,0.42-1.76,0.9c-0.41,0.48-0.58,1.06-0.5,1.76
		c0.05,0.48,0.21,0.86,0.47,1.15c0.26,0.29,0.55,0.5,0.88,0.64c0.33,0.14,0.73,0.27,1.22,0.4c0.82,0.22,1.25,0.54,1.3,0.96
		c0.04,0.32-0.06,0.57-0.3,0.74c-0.23,0.17-0.52,0.27-0.86,0.31c-0.29,0.03-0.62,0-0.99-0.09c-0.37-0.09-0.71-0.23-1.01-0.4
		l-0.57,1.32c0.44,0.25,0.91,0.42,1.41,0.51c0.49,0.09,0.98,0.11,1.47,0.06c0.58-0.06,1.07-0.22,1.46-0.48
		c0.4-0.26,0.68-0.57,0.86-0.95c0.18-0.38,0.24-0.78,0.2-1.2c-0.05-0.48-0.19-0.88-0.4-1.17c-0.22-0.29-0.47-0.52-0.76-0.67
		s-0.64-0.27-1.03-0.37c-0.49-0.12-0.89-0.27-1.19-0.43c-0.3-0.16-0.47-0.37-0.5-0.63C121.25,183.44,121.33,183.22,121.51,183.06z"
		/>
	<path class="st0" d="M133.04,179.28l-1.54,0.36l1.18,5.01c0.06,0.25,0.04,0.51-0.05,0.78c-0.09,0.27-0.25,0.5-0.48,0.71
		c-0.22,0.21-0.49,0.34-0.8,0.42c-0.29,0.07-0.57,0.06-0.86-0.02c-0.29-0.09-0.53-0.22-0.74-0.42c-0.21-0.19-0.34-0.42-0.4-0.67
		l-1.18-5.01l-1.56,0.37l1.19,5.04c0.13,0.57,0.4,1.05,0.79,1.44c0.39,0.39,0.86,0.65,1.41,0.79c0.55,0.14,1.12,0.14,1.71,0
		c0.59-0.14,1.1-0.39,1.53-0.77c0.43-0.37,0.74-0.82,0.92-1.34c0.18-0.52,0.2-1.07,0.07-1.64L133.04,179.28z"/>
	<path class="st0" d="M140.29,177.46c-0.69-0.27-1.5-0.23-2.43,0.12l-2.31,0.87l2.87,7.64l1.51-0.57l-0.91-2.42l1.08-0.41
		c0.63-0.24,1.1-0.56,1.4-0.96c0.3-0.41,0.47-0.84,0.49-1.31c0.03-0.46-0.05-0.92-0.22-1.38
		C141.46,178.26,140.97,177.73,140.29,177.46z M140.35,180.21c-0.01,0.2-0.08,0.4-0.2,0.59c-0.12,0.19-0.33,0.34-0.61,0.45
		l-1.07,0.4l-0.87-2.3l1.08-0.41c0.46-0.17,0.81-0.16,1.07,0.03c0.25,0.19,0.43,0.42,0.53,0.69
		C140.33,179.83,140.36,180.01,140.35,180.21z"/>
	<polygon class="st0" points="147.22,180.7 146.41,179.14 149.51,177.52 148.8,176.14 145.69,177.76 144.88,176.22 148.4,174.39 
		147.68,173.01 142.74,175.58 146.51,182.82 151.59,180.17 150.87,178.8 	"/>
	<path class="st0" d="M156.59,172.08c-0.08-0.48-0.26-0.93-0.54-1.34c-0.48-0.7-1.09-1.09-1.83-1.18c-0.74-0.09-1.52,0.16-2.36,0.73
		l-2.03,1.41l4.64,6.71l1.32-0.91l-1.48-2.13l0.89-0.61l2.89,1.16l1.54-1.07l-3.24-1.36C156.6,173.03,156.67,172.57,156.59,172.08z
		 M154.94,172.58c-0.02,0.32-0.21,0.61-0.57,0.86l-0.94,0.65l-1.4-2.03l0.95-0.66c0.4-0.28,0.75-0.35,1.04-0.23
		c0.29,0.13,0.52,0.31,0.69,0.55C154.88,171.98,154.96,172.26,154.94,172.58z"/>
	
		<rect x="159.03" y="165.25" transform="matrix(0.7633 -0.646 0.646 0.7633 -71.5628 143.3427)" class="st0" width="1.61" height="8.16"/>
	<path class="st0" d="M168.36,160.98c-0.54-0.51-1.17-0.85-1.9-1.01c-0.73-0.17-1.45-0.15-2.17,0.05c-0.72,0.2-1.33,0.58-1.84,1.12
		c-0.51,0.54-0.85,1.18-1.02,1.9c-0.16,0.73-0.14,1.45,0.07,2.16c0.21,0.71,0.58,1.32,1.12,1.83c0.55,0.52,1.18,0.86,1.9,1.03
		c0.72,0.17,1.43,0.15,2.14-0.06c0.71-0.2,1.32-0.58,1.84-1.13c0.51-0.54,0.85-1.17,1.02-1.89c0.17-0.72,0.15-1.44-0.05-2.15
		C169.28,162.11,168.9,161.49,168.36,160.98z M168.02,164.61c-0.09,0.43-0.29,0.82-0.61,1.15c-0.33,0.34-0.71,0.58-1.14,0.7
		c-0.44,0.12-0.88,0.13-1.32,0.02c-0.44-0.11-0.84-0.33-1.18-0.65c-0.35-0.34-0.6-0.72-0.74-1.16c-0.14-0.43-0.16-0.87-0.07-1.31
		c0.09-0.44,0.3-0.82,0.62-1.16c0.32-0.34,0.7-0.57,1.13-0.68c0.43-0.12,0.87-0.12,1.31,0c0.44,0.11,0.84,0.34,1.19,0.67
		c0.35,0.33,0.59,0.71,0.73,1.14C168.09,163.75,168.11,164.18,168.02,164.61z"/>
	<path class="st0" d="M173.25,154.42c-0.24-0.43-0.56-0.79-0.97-1.08c-0.69-0.49-1.4-0.66-2.12-0.49c-0.72,0.17-1.38,0.66-1.97,1.49
		l-1.44,2.01l6.64,4.74l0.93-1.31l-2.11-1.51l0.62-0.87l3.11,0.11l1.09-1.53l-3.51-0.18C173.58,155.31,173.48,154.85,173.25,154.42z
		 M171.61,156.45l-0.66,0.93l-2-1.43l0.67-0.94c0.28-0.4,0.59-0.59,0.9-0.57s0.6,0.11,0.84,0.29c0.24,0.17,0.41,0.41,0.5,0.72
		C171.95,155.76,171.87,156.09,171.61,156.45z"/>
	<polygon class="st0" points="178.01,151.23 176.46,150.39 178.13,147.31 176.76,146.57 175.09,149.65 173.56,148.82 175.45,145.34 
		174.08,144.6 171.43,149.49 178.6,153.38 181.33,148.35 179.97,147.61 	"/>
	
		<rect x="58.47" y="118.07" transform="matrix(0.9888 -0.1495 0.1495 0.9888 -17.9008 10.3181)" class="st0" width="2.42" height="12.29"/>
	<polygon class="st0" points="73.92,125.92 68.21,126.78 66.72,116.94 64.33,117.3 66.17,129.45 74.27,128.23 	"/>
	<polygon class="st0" points="97.11,124.77 95.2,112.13 95.16,112.13 90.18,121.82 82.7,114.02 82.68,114.02 84.59,126.67 
		86.91,126.32 86.08,120.89 90.69,125.58 90.73,125.57 93.84,119.34 94.72,125.14 	"/>
	<polygon class="st0" points="109.66,120.51 103.53,121.44 103.13,118.81 108.35,118.03 108,115.71 102.78,116.5 102.39,113.91 
		108.29,113.02 107.94,110.71 99.65,111.96 101.49,124.11 110,122.82 	"/>
	<path class="st0" d="M120.27,121.27l2.79-0.42l-3.49-3.98c0.59-0.47,1-1.06,1.21-1.76c0.21-0.7,0.27-1.43,0.15-2.18
		c-0.19-1.27-0.76-2.2-1.7-2.81c-0.94-0.61-2.17-0.8-3.67-0.57l-3.68,0.56l1.84,12.15l2.39-0.36l-0.58-3.86l1.6-0.24L120.27,121.27z
		 M114.63,112.06l1.72-0.26c0.73-0.11,1.25,0.02,1.56,0.38c0.31,0.36,0.5,0.77,0.57,1.21c0.07,0.44-0.02,0.87-0.26,1.3
		c-0.24,0.42-0.68,0.69-1.33,0.78l-1.7,0.26L114.63,112.06z"/>
	<path class="st0" d="M133.52,116.04c-0.24,0.31-0.58,0.59-1.02,0.86c-0.44,0.26-0.96,0.44-1.56,0.53c-0.74,0.11-1.41,0.04-2.01-0.2
		c-0.6-0.25-1.09-0.64-1.48-1.19c-0.39-0.54-0.64-1.21-0.76-1.99c-0.11-0.71-0.05-1.39,0.18-2.03c0.23-0.64,0.59-1.17,1.08-1.59
		c0.49-0.42,1.04-0.68,1.66-0.77c0.91-0.14,1.85,0.06,2.82,0.59l0.6-2.41c-0.52-0.23-1.11-0.39-1.76-0.49
		c-0.66-0.1-1.36-0.1-2.09,0.01c-1.17,0.18-2.16,0.6-2.97,1.27c-0.81,0.67-1.39,1.52-1.74,2.55c-0.35,1.03-0.43,2.16-0.25,3.38
		c0.17,1.11,0.57,2.09,1.21,2.95c0.64,0.86,1.46,1.49,2.48,1.9c1.02,0.41,2.16,0.52,3.43,0.33c0.79-0.12,1.51-0.36,2.14-0.71
		c0.63-0.35,1.08-0.68,1.35-0.98L133.52,116.04z"/>
	<path class="st0" d="M140.24,115.82l4.03-0.61l1.3,2.23l2.77-0.42l-7.39-11.8l-0.13,0.02l-3.57,13.46l2.36-0.36L140.24,115.82z
		 M141.55,110.54l1.62,2.78l-2.39,0.36L141.55,110.54z"/>
	<polygon class="st0" points="154.77,116.06 153.28,106.22 156.23,105.77 155.88,103.46 147.69,104.7 148.04,107.01 150.88,106.58 
		152.37,116.42 	"/>
	<path class="st0" d="M163.1,114.08c1.03,0.41,2.11,0.53,3.23,0.36c1.11-0.17,2.1-0.6,2.97-1.3c0.87-0.7,1.51-1.57,1.94-2.6
		s0.55-2.11,0.38-3.23c-0.17-1.1-0.61-2.09-1.32-2.96c-0.71-0.87-1.59-1.52-2.62-1.94c-1.04-0.42-2.11-0.55-3.22-0.38
		c-1.11,0.17-2.1,0.61-2.97,1.32c-0.87,0.71-1.5,1.59-1.92,2.63s-0.53,2.11-0.37,3.21c0.17,1.12,0.6,2.12,1.3,2.98
		C161.2,113.03,162.07,113.67,163.1,114.08z M161.87,106.76c0.24-0.64,0.62-1.18,1.13-1.62c0.51-0.43,1.12-0.7,1.81-0.81
		c0.69-0.1,1.35-0.03,1.97,0.23c0.62,0.26,1.14,0.66,1.56,1.21c0.42,0.54,0.69,1.18,0.8,1.91c0.11,0.72,0.05,1.39-0.18,2.03
		c-0.23,0.64-0.6,1.17-1.11,1.6c-0.51,0.43-1.1,0.7-1.79,0.8c-0.7,0.11-1.37,0.03-2-0.23c-0.63-0.26-1.16-0.66-1.58-1.21
		c-0.43-0.54-0.69-1.17-0.8-1.87C161.57,108.09,161.63,107.4,161.87,106.76z"/>
	<path class="st0" d="M72.76,64.61l4.28,1.35l2.1-1.7l-4.81-1.6c0.26-0.68,0.31-1.36,0.15-2.04c-0.16-0.68-0.47-1.31-0.93-1.87
		c-0.77-0.95-1.69-1.45-2.76-1.5c-1.07-0.05-2.17,0.39-3.31,1.31l-2.77,2.24l7.39,9.15l1.8-1.46l-2.35-2.91L72.76,64.61z
		 M70.15,63.85l-2.23-2.76l1.29-1.04c0.55-0.44,1.04-0.59,1.47-0.44c0.43,0.15,0.79,0.39,1.05,0.72c0.27,0.33,0.41,0.73,0.41,1.2
		c0.01,0.47-0.23,0.9-0.72,1.29L70.15,63.85z"/>
	<path class="st0" d="M82.73,59.75c0.67,0.43,1.42,0.66,2.23,0.68c0.82,0.03,1.62-0.15,2.41-0.53c0.79-0.38,1.43-0.89,1.92-1.55
		c0.49-0.66,0.79-1.38,0.88-2.18c0.09-0.79-0.04-1.57-0.41-2.33l-3.23-6.73l-2.06,0.99l3.21,6.69c0.16,0.34,0.22,0.71,0.17,1.11
		c-0.05,0.4-0.2,0.78-0.45,1.14c-0.25,0.36-0.59,0.64-1,0.83c-0.38,0.18-0.79,0.26-1.22,0.23c-0.43-0.03-0.82-0.15-1.17-0.36
		c-0.35-0.21-0.6-0.48-0.77-0.82l-3.21-6.68l-2.09,1l3.23,6.73C81.54,58.73,82.06,59.32,82.73,59.75z"/>
	<polygon class="st0" points="99.28,55.43 97.89,48.62 107.4,54.33 107.46,54.32 105.11,42.3 102.82,42.75 104.22,49.69 
		94.71,43.87 94.62,43.89 96.97,55.88 	"/>
	<path class="st0" d="M115.52,53.06c0.91,0.54,1.99,0.84,3.24,0.91c0.46,0.03,0.97-0.01,1.53-0.11c0.57-0.1,1.09-0.24,1.56-0.42
		c0.47-0.18,0.81-0.36,1-0.54l0.29-4.96l-4.37-0.25l-0.13,2.23l2.03,0.12l-0.08,1.42c-0.36,0.18-0.91,0.25-1.63,0.21
		c-0.76-0.04-1.42-0.23-1.99-0.55c-0.57-0.32-1.01-0.76-1.31-1.32c-0.3-0.56-0.43-1.2-0.39-1.92c0.07-1.25,0.46-2.18,1.18-2.78
		c0.71-0.6,1.71-0.86,2.98-0.79c0.36,0.02,0.81,0.12,1.34,0.29c0.53,0.18,0.94,0.36,1.24,0.54l0.87-2.11
		c-0.46-0.28-1.01-0.52-1.62-0.72c-0.62-0.2-1.28-0.31-2-0.35c-1.11-0.06-2.13,0.11-3.07,0.54c-0.94,0.42-1.71,1.09-2.31,2.01
		c-0.6,0.92-0.93,2.07-1.01,3.44c-0.06,1.1,0.14,2.09,0.6,2.97C113.92,51.81,114.61,52.52,115.52,53.06z"/>
	
		<rect x="124.98" y="48.72" transform="matrix(0.2451 -0.9695 0.9695 0.2451 50.431 164.5197)" class="st0" width="11.76" height="2.32"/>
	<path class="st0" d="M139.07,59.03c0.77,0.34,1.49,0.49,2.17,0.46c0.68-0.03,1.26-0.22,1.76-0.57c0.5-0.35,0.87-0.8,1.11-1.35
		c0.28-0.64,0.4-1.23,0.35-1.75c-0.05-0.52-0.21-0.99-0.46-1.38c-0.26-0.4-0.59-0.8-1.02-1.21c-0.52-0.51-0.91-0.98-1.17-1.4
		c-0.26-0.42-0.32-0.81-0.17-1.15c0.16-0.37,0.42-0.59,0.76-0.66c0.34-0.07,0.74,0,1.21,0.2c0.69,0.31,1.39,0.92,2.1,1.85l1.52-1.27
		c-0.36-0.56-0.77-1.04-1.22-1.46c-0.46-0.42-1.08-0.8-1.88-1.15c-1.04-0.4-1.98-0.45-2.84-0.15c-0.86,0.3-1.49,0.91-1.9,1.83
		c-0.28,0.63-0.36,1.23-0.25,1.78s0.32,1.03,0.63,1.43c0.31,0.4,0.72,0.87,1.22,1.38c0.86,0.87,1.17,1.58,0.92,2.14
		c-0.19,0.43-0.49,0.66-0.91,0.71c-0.42,0.04-0.85-0.03-1.29-0.23c-0.38-0.17-0.77-0.44-1.17-0.83s-0.73-0.8-0.97-1.23l-1.67,1.24
		c0.37,0.63,0.83,1.18,1.38,1.65C137.83,58.37,138.42,58.74,139.07,59.03z"/>
</g>
</svg>
